<svg xmlns="http://www.w3.org/2000/svg" xmlns:xlink="http://www.w3.org/1999/xlink" width="153.129" height="48.426" viewBox="0 0 153.129 48.426"><defs><style>.a{fill:none;}.b{fill:#008cff;}.c{clip-path:url(#a);}.d{fill:url(#b);}.e{fill:url(#c);}.f{fill:url(#d);}.g{fill:url(#e);}.h{fill:#f9f9f9;}.i{fill:#fbfcfc;}</style><clipPath id="a"><path class="a" d="M156.705,139.538l-6.9-3.854-13.318-7.434c-.739-.413-1.476-.163-1.476.7v30.289c0,.647.527.926,1.169.567L149.8,152.2l6.9-3.854,6.637-3.7c.779-.435.7-1.031.047-1.373S156.705,139.538,156.705,139.538Z" transform="translate(-135.006 -128.056)"/></clipPath><linearGradient id="b" x1="0.5" x2="0.5" y2="1" gradientUnits="objectBoundingBox"><stop offset="0" stop-color="#0067a2"/><stop offset="0.403" stop-color="#3d91a8"/><stop offset="0.805" stop-color="#74b7ae"/><stop offset="1" stop-color="#8ac6b1"/></linearGradient><linearGradient id="c" y1="0.5" x2="1" y2="0.5" gradientUnits="objectBoundingBox"><stop offset="0" stop-color="#50b09b"/><stop offset="1" stop-color="#e9e486"/></linearGradient><linearGradient id="d" x1="0.5" x2="0.5" y2="1" gradientUnits="objectBoundingBox"><stop offset="0" stop-color="#dc1b24"/><stop offset="0.228" stop-color="#c1203b"/><stop offset="0.748" stop-color="#8a2b6c"/><stop offset="1" stop-color="#753080"/></linearGradient><linearGradient id="e" x1="0.5" x2="0.5" y2="1" gradientUnits="objectBoundingBox"><stop offset="0" stop-color="#eb7165"/><stop offset="0.003" stop-color="#eb7164"/><stop offset="0.675" stop-color="#f9a85e"/><stop offset="1" stop-color="#ffbe5c"/></linearGradient></defs><path class="b" d="M249.77,136.4A6.659,6.659,0,0,1,243,142.948H103.41a6.66,6.66,0,0,1-6.769-6.545V101.066a6.66,6.66,0,0,1,6.769-6.544H243a6.659,6.659,0,0,1,6.768,6.544Z" transform="translate(-96.641 -94.522)"/><g transform="translate(11.486 9.706)"><g class="c"><path class="d" d="M135.006,126.292v32.794l17.1-16.4Z" transform="translate(-135.006 -126.803)"/><path class="e" d="M156.705,137.993l-6.9-3.854-14.794-8.258V126l17.1,16.4Z" transform="translate(-135.006 -126.51)"/><path class="f" d="M135.006,199.342v.119L149.8,191.2l6.9-3.854-4.594-4.4Z" transform="translate(-135.006 -167.058)"/><path class="g" d="M196.734,167.728l-4.594,4.4,4.594,4.4,7.891-4.4Z" transform="translate(-175.035 -156.246)"/></g></g><g transform="translate(114.582 18.289)"><path class="h" d="M483.958,180.825a4.4,4.4,0,0,1-1.759-.344,3.3,3.3,0,0,1-1.337-1.057h-.108a12.405,12.405,0,0,1,.108,1.584v3.924h-1.493V171.114h1.215l.207,1.305h.072a3.448,3.448,0,0,1,1.342-1.131,4.2,4.2,0,0,1,1.755-.348,3.7,3.7,0,0,1,3.029,1.3,6.712,6.712,0,0,1-.017,7.289A3.71,3.71,0,0,1,483.958,180.825Zm-.216-8.658a2.694,2.694,0,0,0-2.187.809,4.064,4.064,0,0,0-.694,2.576v.322a4.649,4.649,0,0,0,.694,2.876,2.68,2.68,0,0,0,2.223.866,2.337,2.337,0,0,0,2-1,4.628,4.628,0,0,0,.724-2.759,4.456,4.456,0,0,0-.724-2.737A2.414,2.414,0,0,0,483.742,172.167Z" transform="translate(-479.368 -167.111)"/><path class="h" d="M516.438,171.251h-1.494v-13.54h1.494Z" transform="translate(-504.293 -157.711)"/><path class="h" d="M532.7,180.693l-.3-1.357h-.072a4.107,4.107,0,0,1-1.472,1.214,4.612,4.612,0,0,1-1.831.318,3.367,3.367,0,0,1-2.3-.731,2.618,2.618,0,0,1-.833-2.079q0-2.888,4.779-3.028l1.675-.052v-.592a2.361,2.361,0,0,0-.5-1.658,2.094,2.094,0,0,0-1.6-.535,6.68,6.68,0,0,0-2.79.731L527,171.818a7.383,7.383,0,0,1,3.34-.818,3.847,3.847,0,0,1,2.615.757,3.1,3.1,0,0,1,.85,2.428v6.509Zm-3.375-1.018a3.1,3.1,0,0,0,2.192-.74,2.688,2.688,0,0,0,.8-2.071V176l-1.495.061a5.587,5.587,0,0,0-2.57.535,1.6,1.6,0,0,0-.787,1.475,1.461,1.461,0,0,0,.491,1.192A2.083,2.083,0,0,0,529.327,179.676Z" transform="translate(-511.967 -167.154)"/><path class="h" d="M555.222,171.541h1.6l2.16,5.439a20.282,20.282,0,0,1,.883,2.689h.072q.117-.445.49-1.519t2.444-6.609h1.6l-4.24,10.86a5.4,5.4,0,0,1-1.472,2.285,3.2,3.2,0,0,1-2.065.674,6.227,6.227,0,0,1-1.351-.148v-1.157a5.391,5.391,0,0,0,1.107.1,2.271,2.271,0,0,0,2.2-1.671l.549-1.357Z" transform="translate(-532.513 -167.538)"/></g><g transform="translate(46.469 17.222)"><path class="h" d="M384.239,172.84a3.194,3.194,0,0,1-.269,5.525,1.394,1.394,0,0,0-.578.979,1.09,1.09,0,0,0,.537.857l.743.557c.908.738,1.732,1.417,1.732,2.794,0,1.875-1.878,3.769-5.426,3.769-2.992,0-4.436-1.376-4.436-2.853a2.857,2.857,0,0,1,1.589-2.434,9.141,9.141,0,0,1,3.941-.918,2.058,2.058,0,0,1-.619-1.355,1.751,1.751,0,0,1,.207-.779c-.228.02-.454.04-.661.04a3.212,3.212,0,0,1-3.425-3.131,3.542,3.542,0,0,1,1.32-2.673,5.763,5.763,0,0,1,3.695-1.1h4.25l-1.321.718Zm-1.465,8.857a3.311,3.311,0,0,0-.474-.021,8.507,8.507,0,0,0-2.167.321,2.269,2.269,0,0,0-1.775,2.054c0,1.416,1.424,2.434,3.632,2.434,1.98,0,3.033-.92,3.033-2.155C385.024,183.312,384.343,182.775,382.774,181.7Zm.6-3.791a1.974,1.974,0,0,0,.515-1.456c0-1.436-.887-3.67-2.6-3.67a1.955,1.955,0,0,0-1.445.658,2.252,2.252,0,0,0-.454,1.476c0,1.336.8,3.55,2.58,3.55A2.149,2.149,0,0,0,383.373,177.907Z" transform="translate(-339.214 -166.884)"/><path class="h" d="M347.1,180.682a4.782,4.782,0,0,1-5.026-4.7,5.031,5.031,0,0,1,5.336-4.839,4.737,4.737,0,0,1,4.922,4.7A4.954,4.954,0,0,1,347.1,180.682Zm2.575-1.613a3.513,3.513,0,0,0,.619-2.212c0-1.753-.865-5.1-3.42-5.1a2.926,2.926,0,0,0-1.853.678,2.958,2.958,0,0,0-.949,2.43c0,1.97,1.01,5.216,3.5,5.216A2.663,2.663,0,0,0,349.674,179.069Z" transform="translate(-315.064 -166.188)"/><path class="h" d="M309.8,180.682a4.783,4.783,0,0,1-5.027-4.7,5.032,5.032,0,0,1,5.336-4.839,4.737,4.737,0,0,1,4.923,4.7A4.954,4.954,0,0,1,309.8,180.682Zm2.575-1.613a3.517,3.517,0,0,0,.619-2.212c0-1.753-.866-5.1-3.42-5.1a2.928,2.928,0,0,0-1.854.678,2.958,2.958,0,0,0-.948,2.43c0,1.97,1.009,5.216,3.5,5.216A2.664,2.664,0,0,0,312.378,179.069Z" transform="translate(-288.933 -166.188)"/><path class="h" d="M266.125,169.3l-2.962.661a22.645,22.645,0,0,1-3.417.34c-5.717,0-7.891-4.065-7.891-7.249,0-3.884,3.085-7.487,8.367-7.487a12.306,12.306,0,0,1,3.168.421,8.187,8.187,0,0,1,2.734,1.241l-1.719,1.582-.725.159.518-.8a6,6,0,0,0-4.432-1.881,5.617,5.617,0,0,0-5.738,5.907,7.194,7.194,0,0,0,7.331,7.308,6.348,6.348,0,0,0,2.631-.5v-3.223l-3.127.16,1.656-.862h4.391l-.538.5a.467.467,0,0,0-.208.32c-.022.181-.041.762-.041.962Z" transform="translate(-251.856 -155.121)"/><path class="h" d="M413.82,167.631c-.684-.06-.827-.18-.827-.962V155.337c0-.043.007-.087.011-.129.084-.7.29-.821.933-1.181h-2.963l-1.554.721H411V167.11c0,.4-.082.46-.559,1.061h3.666l.766-.44C414.525,167.69,414.173,167.671,413.82,167.631Z" transform="translate(-362.249 -154.026)"/><path class="h" d="M434.7,179.993c-.225.12-.452.26-.677.358a4.939,4.939,0,0,1-2,.378,4.508,4.508,0,0,1-2.736-.776,5.084,5.084,0,0,1-2.1-4.2,4.591,4.591,0,0,1,4.71-4.592,4.1,4.1,0,0,1,2.12.557,3.29,3.29,0,0,1,1.438,1.967l-4.832,1.89-1.584.12c.513,2.525,2.282,4,4.237,4a5.45,5.45,0,0,0,2.509-.695Zm-1.933-5.926c.39-.139.6-.258.6-.537a2.017,2.017,0,0,0-2.037-1.71,2.484,2.484,0,0,0-2.365,2.764c0,.338.041.7.063,1.055Z" transform="translate(-374.698 -166.204)"/><g transform="translate(61.371 4.961)"><path class="h" d="M457.46,171.3v1.312H457.3V171.3h-.449v-.136h1.063v.136Z" transform="translate(-456.846 -171.165)"/><path class="h" d="M462.429,172.613v-1.324h-.008L462,172.613h-.129l-.422-1.324h-.005v1.324h-.15v-1.448h.257l.382,1.17h.005l.376-1.17h.26v1.448Z" transform="translate(-459.965 -171.165)"/></g></g><g transform="translate(46.504 9.628)"><path class="i" d="M256.052,132.158h-1.029A6.417,6.417,0,0,0,254.73,131h-1.486a5.844,5.844,0,0,0-.3,1.163h-.968a21.13,21.13,0,0,1,.751-1.99,15.271,15.271,0,0,0,.751-2.058h1.215a16.757,16.757,0,0,0,.68,2.029A17.322,17.322,0,0,1,256.052,132.158Zm-1.486-1.757a17.136,17.136,0,0,1-.55-1.735h-.052a17.745,17.745,0,0,1-.569,1.735Z" transform="translate(-251.974 -128.017)"/><path class="i" d="M271.371,132.158h-.795a7.538,7.538,0,0,0-.884-1.346,7.347,7.347,0,0,1-1.055-1.757h-.051a10.586,10.586,0,0,1,.081,1.231q0,.768.045,1.872h-.791q.049-.964.048-2.118,0-1.134-.048-1.931h.955a5.79,5.79,0,0,0,.794,1.315,7.671,7.671,0,0,1,.971,1.657h.048a11.4,11.4,0,0,1-.077-1.244q0-.842-.045-1.729h.8q-.045.771-.045,1.931T271.371,132.158Z" transform="translate(-263.146 -128.017)"/><path class="i" d="M286.738,129.949a2.248,2.248,0,0,1-.586,1.542,2.078,2.078,0,0,1-1.64.659q-.476,0-1.312-.037.042-.939.042-2.118,0-1.131-.042-1.931h.563q.138,0,.412-.009c.182-.006.3-.009.357-.009a2.211,2.211,0,0,1,1.684.56A1.9,1.9,0,0,1,286.738,129.949Zm-.878.134a1.467,1.467,0,0,0-.36-1.006,1.391,1.391,0,0,0-1.1-.409,3.54,3.54,0,0,0-.38.028q.032.622.032,1.3,0,.743.032,1.474a2.2,2.2,0,0,0,.418.041,1.234,1.234,0,0,0,1.024-.415A1.567,1.567,0,0,0,285.86,130.082Z" transform="translate(-273.851 -127.971)"/><path class="i" d="M301.441,132.113h-.952a6.009,6.009,0,0,0-.572-1.359.762.762,0,0,0-.643-.258q-.187,0-.357,0,0,.8.029,1.614h-.894q.042-.939.042-2.118,0-1.131-.042-1.931h.556q.1,0,.4-.009t.568-.009q1.476,0,1.476.976a1.1,1.1,0,0,1-.843,1.079v.047a.994.994,0,0,1,.569.49A10.615,10.615,0,0,1,301.441,132.113Zm-1.206-2.86q0-.619-.823-.619a2.92,2.92,0,0,0-.534.044q.036.482.036,1.256.176.007.3.006Q300.235,129.939,300.235,129.252Z" transform="translate(-284.256 -127.971)"/><path class="i" d="M315.191,129.831a2.191,2.191,0,0,1-.6,1.583,1.994,1.994,0,0,1-1.5.628,1.922,1.922,0,0,1-1.421-.577A1.994,1.994,0,0,1,311.1,130a2.19,2.19,0,0,1,.6-1.583,1.993,1.993,0,0,1,1.5-.628,1.926,1.926,0,0,1,1.421.575A1.994,1.994,0,0,1,315.191,129.831Zm-.887.09a1.57,1.57,0,0,0-.344-1.054,1.073,1.073,0,0,0-.849-.4.991.991,0,0,0-.8.407,1.59,1.59,0,0,0-.328,1.029,1.566,1.566,0,0,0,.346,1.052,1.073,1.073,0,0,0,.848.406.991.991,0,0,0,.8-.409A1.591,1.591,0,0,0,314.3,129.921Z" transform="translate(-293.397 -127.788)"/><path class="i" d="M328.715,132.158h-.91q.042-.964.042-2.118,0-1.134-.042-1.931h.91q-.042.784-.042,1.931Q328.674,131.213,328.715,132.158Z" transform="translate(-305.102 -128.017)"/><path class="i" d="M338.137,129.949a2.248,2.248,0,0,1-.585,1.542,2.078,2.078,0,0,1-1.64.659q-.476,0-1.312-.037.042-.939.042-2.118,0-1.131-.042-1.931h.563q.138,0,.412-.009c.182-.006.3-.009.357-.009a2.211,2.211,0,0,1,1.684.56A1.9,1.9,0,0,1,338.137,129.949Zm-.878.134a1.469,1.469,0,0,0-.36-1.006,1.391,1.391,0,0,0-1.1-.409,3.534,3.534,0,0,0-.38.028q.032.622.032,1.3,0,.743.032,1.474a2.2,2.2,0,0,0,.418.041,1.234,1.234,0,0,0,1.024-.415A1.567,1.567,0,0,0,337.259,130.082Z" transform="translate(-309.862 -127.971)"/><path class="i" d="M357.528,132.158H356.5a6.372,6.372,0,0,0-.293-1.163H354.72a5.834,5.834,0,0,0-.3,1.163h-.968a21.138,21.138,0,0,1,.751-1.99,15.246,15.246,0,0,0,.751-2.058h1.216a16.732,16.732,0,0,0,.68,2.029A17.4,17.4,0,0,1,357.528,132.158Zm-1.486-1.757a17.189,17.189,0,0,1-.55-1.735h-.051a17.746,17.746,0,0,1-.569,1.735Z" transform="translate(-323.07 -128.017)"/><path class="i" d="M372.452,129.125a1.2,1.2,0,0,1-.571,1.1,2.6,2.6,0,0,1-1.4.355q-.151,0-.216-.006,0,.584.035,1.542h-.9q.042-.9.042-2.118,0-1.119-.042-1.931h.56q.119,0,.457-.009t.585-.009a1.888,1.888,0,0,1,1.032.267A.9.9,0,0,1,372.452,129.125Zm-.83.171q0-.665-.913-.665a2.656,2.656,0,0,0-.482.047q.035.587.035,1.331.08.007.187.006Q371.622,130.014,371.622,129.3Z" transform="translate(-334.242 -127.971)"/><path class="i" d="M385.335,129.125a1.2,1.2,0,0,1-.571,1.1,2.605,2.605,0,0,1-1.4.355c-.1,0-.172,0-.215-.006q0,.584.035,1.542h-.9q.042-.9.042-2.118,0-1.119-.042-1.931h.56q.119,0,.457-.009t.585-.009a1.888,1.888,0,0,1,1.032.267A.9.9,0,0,1,385.335,129.125Zm-.83.171q0-.665-.913-.665a2.657,2.657,0,0,0-.482.047q.035.587.035,1.331.08.007.187.006Q384.506,130.014,384.506,129.3Z" transform="translate(-343.268 -127.971)"/><path class="i" d="M403.969,129.831a2.19,2.19,0,0,1-.6,1.583,1.993,1.993,0,0,1-1.5.628,1.922,1.922,0,0,1-1.421-.577,2,2,0,0,1-.572-1.466,2.191,2.191,0,0,1,.6-1.583,1.994,1.994,0,0,1,1.5-.628,1.927,1.927,0,0,1,1.421.575A2,2,0,0,1,403.969,129.831Zm-.888.09a1.569,1.569,0,0,0-.344-1.054,1.072,1.072,0,0,0-.849-.4.992.992,0,0,0-.8.407,1.589,1.589,0,0,0-.328,1.029,1.565,1.565,0,0,0,.346,1.052,1.072,1.072,0,0,0,.847.406.99.99,0,0,0,.8-.409A1.589,1.589,0,0,0,403.081,129.921Z" transform="translate(-355.596 -127.788)"/><path class="i" d="M420.035,132.158h-.794a7.535,7.535,0,0,0-.884-1.346,7.351,7.351,0,0,1-1.055-1.757h-.051a10.655,10.655,0,0,1,.08,1.231q0,.768.045,1.872h-.791q.048-.964.048-2.118,0-1.134-.048-1.931h.955a5.8,5.8,0,0,0,.795,1.315,7.671,7.671,0,0,1,.971,1.657h.048a11.341,11.341,0,0,1-.077-1.244q0-.842-.045-1.729h.8q-.045.771-.045,1.931T420.035,132.158Z" transform="translate(-367.303 -128.017)"/></g></svg>