<svg xmlns="http://www.w3.org/2000/svg" width="153.129" height="48.426" viewBox="0 0 153.129 48.426"><defs><style>.a{fill:#008cff;}.b{fill:#fff;}</style></defs><g transform="translate(0 0)"><path class="a" d="M249.77,977.706A6.659,6.659,0,0,1,243,984.251H103.41a6.66,6.66,0,0,1-6.769-6.545V942.369a6.66,6.66,0,0,1,6.769-6.544H243a6.659,6.659,0,0,1,6.768,6.544Z" transform="translate(-96.641 -935.825)"/><g transform="translate(10.272 7.528)"><path class="b" d="M161.3,1006.554a23.736,23.736,0,0,1-2.242,4.048c-1.457,2.143-3.509,4.813-6.052,4.835-2.26.02-2.841-1.422-5.908-1.406s-3.707,1.431-5.968,1.411c-2.543-.023-4.488-2.433-5.945-4.576-4.073-5.993-4.5-13.027-1.987-16.766a9.069,9.069,0,0,1,7.248-4.213c2.7,0,4.39,1.429,6.619,1.429,2.162,0,3.48-1.432,6.6-1.432a8.892,8.892,0,0,1,6.63,3.385A7.238,7.238,0,0,0,161.3,1006.554Z" transform="translate(-131.637 -982.073)"/><g transform="translate(14.256)"><path class="b" d="M185.609,967.772a7.15,7.15,0,0,0,1.68-5.417,8.261,8.261,0,0,0-5.277,2.744,6.644,6.644,0,0,0-1.724,5.284A6.98,6.98,0,0,0,185.609,967.772Z" transform="translate(-180.207 -962.355)"/></g></g><g transform="translate(46.505 7.599)"><g transform="translate(0 11.6)"><path class="b" d="M260.916,1004.42l-5.834,16.6h2.672l1.741-5.1h5.648l1.791,5.1h2.745l-5.859-16.6Zm1.384,2.73c.2.741.409,1.511.683,2.342l1.572,4.4H260.08l1.55-4.431C261.867,1008.744,262.091,1007.969,262.3,1007.149Z" transform="translate(-255.082 -1004.155)"/><path class="b" d="M314.624,1019.586a4.922,4.922,0,0,0-4.13,1.916l-.1-1.651h-2.376l.014.211c.07,1.029.1,2.161.1,3.786v12.8h2.6v-5.971a4.635,4.635,0,0,0,3.551,1.475,5.446,5.446,0,0,0,3.937-1.618,6.725,6.725,0,0,0,1.738-4.831,6.539,6.539,0,0,0-1.509-4.411A5.015,5.015,0,0,0,314.624,1019.586Zm-.647,2.079c2.316,0,3.353,2.074,3.353,4.13,0,2.651-1.323,4.3-3.451,4.3a3.082,3.082,0,0,1-3.153-3.144v-2.02a3.657,3.657,0,0,1,.082-.62c.013-.069.027-.137.037-.2A3.268,3.268,0,0,1,313.977,1021.665Z" transform="translate(-292.478 -1015.018)"/><path class="b" d="M360.206,1019.586a4.925,4.925,0,0,0-4.131,1.916l-.1-1.651H353.6l.013.211c.07,1.03.1,2.161.1,3.786v12.8h2.6v-5.971a4.633,4.633,0,0,0,3.55,1.475,5.454,5.454,0,0,0,3.939-1.618,6.733,6.733,0,0,0,1.737-4.831,6.54,6.54,0,0,0-1.51-4.411A5.013,5.013,0,0,0,360.206,1019.586Zm-.647,2.079c2.315,0,3.352,2.074,3.352,4.13,0,2.651-1.323,4.3-3.451,4.3a3.08,3.08,0,0,1-3.152-3.144v-2.02a3.61,3.61,0,0,1,.083-.622c.013-.068.026-.135.038-.2A3.266,3.266,0,0,1,359.559,1021.665Z" transform="translate(-324.681 -1015.018)"/><path class="b" d="M418.33,1010.786c-2.425-.908-3.2-1.622-3.2-2.941,0-1.111.913-2.231,2.953-2.231a6.057,6.057,0,0,1,3.05.74l.22.131.733-2.1-.145-.082a7.737,7.737,0,0,0-3.783-.821c-3.313,0-5.627,1.891-5.627,4.6,0,2.183,1.449,3.709,4.56,4.8,2.2.8,3.026,1.613,3.026,3.012,0,1.584-1.266,2.566-3.3,2.566a7.292,7.292,0,0,1-3.745-1.027l-.225-.14-.7,2.145.128.082a9.138,9.138,0,0,0,4.391,1.091c4.465,0,6.048-2.632,6.048-4.886C422.712,1013.407,421.443,1011.974,418.33,1010.786Z" transform="translate(-366.045 -1003.488)"/><path class="b" d="M453.459,1010.439l-2.548.773v2.087h-1.865v2.007h1.865v6.149a4.589,4.589,0,0,0,.9,3.187,3.391,3.391,0,0,0,2.514.954,6.309,6.309,0,0,0,2.008-.3l.146-.05-.124-2.011-.249.074a4.04,4.04,0,0,1-1.208.135c-1.007,0-1.437-.616-1.437-2.062v-6.077h3.134V1013.3h-3.134Z" transform="translate(-392.114 -1008.466)"/><path class="b" d="M481.835,1019.586a6.006,6.006,0,0,0-6.173,6.377,5.819,5.819,0,0,0,5.975,6.185h.024a6.02,6.02,0,0,0,6.174-6.4,6.222,6.222,0,0,0-1.656-4.443A5.882,5.882,0,0,0,481.835,1019.586Zm-.075,1.983c2.337,0,3.4,2.2,3.4,4.251,0,2.518-1.452,4.345-3.451,4.345h-.025c-1.97,0-3.4-1.8-3.4-4.273C478.285,1023.74,479.36,1021.569,481.76,1021.569Z" transform="translate(-410.919 -1015.018)"/><path class="b" d="M528.678,1019.7l-.156-.038a2.582,2.582,0,0,0-.646-.078,3.718,3.718,0,0,0-3.257,2.022l-.076-1.758h-2.331l.015.211c.069.994.1,2.11.1,3.617l-.024,8.205h2.6v-6.4a6.268,6.268,0,0,1,.072-.974,2.833,2.833,0,0,1,2.733-2.531,6.9,6.9,0,0,1,.7.042l.278.028Z" transform="translate(-443.805 -1015.018)"/><path class="b" d="M550.005,1019.5c-3.458,0-5.874,2.672-5.874,6.5a5.711,5.711,0,0,0,6.123,6.065,10.26,10.26,0,0,0,4.113-.763l.156-.068-.5-1.872-.217.085a8.3,8.3,0,0,1-3.255.563,3.571,3.571,0,0,1-3.891-3.642l8.386.025.034-.161a5.394,5.394,0,0,0,.078-1.048C555.159,1022.562,553.809,1019.5,550.005,1019.5Zm-.173,1.911a2.613,2.613,0,0,1,1.907.7,3.5,3.5,0,0,1,.895,2.338h-5.925A3.26,3.26,0,0,1,549.832,1021.413Z" transform="translate(-459.291 -1014.958)"/></g><g transform="translate(0)"><path class="b" d="M255.082,964.044a19.565,19.565,0,0,1,2.492-.163,5.7,5.7,0,0,1,3.658.968,3.391,3.391,0,0,1,1.286,2.833,3.914,3.914,0,0,1-1.3,3.054,6.174,6.174,0,0,1-4.006,1.131,18.642,18.642,0,0,1-2.131-.094ZM256.261,971a8.636,8.636,0,0,0,1.179.047c2.492.011,3.845-1.213,3.845-3.334.014-1.877-1.193-3.031-3.657-3.031a7.65,7.65,0,0,0-1.367.1Z" transform="translate(-255.082 -963.519)"/><path class="b" d="M287.172,977.338a2.886,2.886,0,0,1-3.108-2.9,2.966,2.966,0,0,1,3.215-3,2.862,2.862,0,0,1,3.122,2.891,2.98,2.98,0,0,1-3.215,3.008Zm.04-.77a2.033,2.033,0,0,0,1.97-2.2,1.974,1.974,0,1,0-1.983,2.2Z" transform="translate(-275.557 -968.934)"/><path class="b" d="M309.106,971.891l.871,2.856c.174.629.348,1.224.469,1.807h.04c.147-.571.362-1.177.576-1.8l1.058-2.868h.992l1.005,2.821c.241.665.429,1.271.576,1.842h.04a15.2,15.2,0,0,1,.5-1.83l.924-2.833h1.166l-2.09,5.642h-1.072l-.991-2.693a18.025,18.025,0,0,1-.577-1.865h-.026a15.117,15.117,0,0,1-.59,1.877l-1.045,2.681h-1.072l-1.957-5.642Z" transform="translate(-292.397 -969.257)"/><path class="b" d="M343.882,973.1c0-.594-.014-1.061-.054-1.527h1.046l.067.921h.027a2.479,2.479,0,0,1,2.144-1.049,2.184,2.184,0,0,1,2.291,2.4v3.369h-1.178v-3.252c0-.909-.389-1.678-1.5-1.678a1.68,1.68,0,0,0-1.581,1.049,1.341,1.341,0,0,0-.081.478v3.4h-1.179Z" transform="translate(-317.78 -968.934)"/><path class="b" d="M369.346,962.607h1.179v8.276h-1.179Z" transform="translate(-335.808 -962.607)"/><path class="b" d="M381.54,977.338a2.886,2.886,0,0,1-3.108-2.9,2.966,2.966,0,0,1,3.215-3,2.863,2.863,0,0,1,3.121,2.891,2.98,2.98,0,0,1-3.215,3.008Zm.04-.77a2.033,2.033,0,0,0,1.97-2.2,1.974,1.974,0,1,0-1.983,2.2Z" transform="translate(-342.227 -968.934)"/><path class="b" d="M408.434,975.858a8.225,8.225,0,0,0,.094,1.352H407.47l-.107-.711h-.04a2.529,2.529,0,0,1-1.983.839c-1.313,0-1.983-.8-1.983-1.621,0-1.364,1.393-2.11,3.9-2.1V973.5c0-.466-.147-1.317-1.473-1.306a3.477,3.477,0,0,0-1.7.419l-.268-.688a4.7,4.7,0,0,1,2.144-.489c2,0,2.478,1.177,2.478,2.308Zm-1.152-1.527c-1.286-.023-2.747.175-2.747,1.27a.973.973,0,0,0,1.1.979,1.638,1.638,0,0,0,1.594-.945.913.913,0,0,0,.054-.326Z" transform="translate(-359.836 -968.934)"/><path class="b" d="M431.565,962.607v6.819c0,.5.014,1.072.054,1.457h-1.058l-.053-.979h-.027a2.448,2.448,0,0,1-2.2,1.108,2.733,2.733,0,0,1-2.787-2.868,2.857,2.857,0,0,1,2.907-3.031,2.258,2.258,0,0,1,1.957.851h.026v-3.357Zm-1.179,4.931a1.655,1.655,0,0,0-.054-.443,1.7,1.7,0,0,0-1.7-1.178,1.955,1.955,0,0,0-1.943,2.169,1.9,1.9,0,0,0,1.916,2.1,1.749,1.749,0,0,0,1.728-1.224,1.549,1.549,0,0,0,.054-.443Z" transform="translate(-375.477 -962.607)"/><path class="b" d="M464.028,977.338a2.886,2.886,0,0,1-3.108-2.9,2.967,2.967,0,0,1,3.215-3,2.863,2.863,0,0,1,3.122,2.891,2.98,2.98,0,0,1-3.215,3.008Zm.041-.77a2.033,2.033,0,0,0,1.969-2.2,1.974,1.974,0,1,0-1.983,2.2Z" transform="translate(-400.504 -968.934)"/><path class="b" d="M487.452,973.1c0-.594-.014-1.061-.054-1.527h1.045l.068.921h.026a2.479,2.479,0,0,1,2.144-1.049,2.184,2.184,0,0,1,2.291,2.4v3.369h-1.179v-3.252c0-.909-.388-1.678-1.5-1.678a1.682,1.682,0,0,0-1.581,1.049,1.346,1.346,0,0,0-.08.478v3.4h-1.179Z" transform="translate(-419.21 -968.934)"/><path class="b" d="M522.241,967.127v1.352h1.688v.781h-1.688V972.3c0,.7.228,1.1.884,1.1a2.5,2.5,0,0,0,.683-.07l.053.781a3.655,3.655,0,0,1-1.045.14,1.822,1.822,0,0,1-1.273-.431,2,2,0,0,1-.455-1.481V969.26h-1v-.781h1v-1.037Z" transform="translate(-442.302 -965.844)"/><path class="b" d="M537.705,962.607h1.179v3.521h.027a1.98,1.98,0,0,1,.844-.723,2.556,2.556,0,0,1,1.206-.291,2.181,2.181,0,0,1,2.264,2.413v3.357h-1.179v-3.241c0-.921-.389-1.678-1.5-1.678a1.7,1.7,0,0,0-1.581,1.026,1.094,1.094,0,0,0-.081.49v3.4h-1.179Z" transform="translate(-454.751 -962.607)"/><path class="b" d="M562.582,974.534a1.952,1.952,0,0,0,2.211,1.959,5.069,5.069,0,0,0,1.8-.28l.214.723a5.977,5.977,0,0,1-2.171.362c-1.984,0-3.189-1.154-3.189-2.844A2.919,2.919,0,0,1,564.5,971.4a2.5,2.5,0,0,1,2.666,2.658,2.29,2.29,0,0,1-.04.489Zm3.444-.734a1.533,1.533,0,0,0-1.622-1.667A1.807,1.807,0,0,0,562.6,973.8Z" transform="translate(-471.522 -968.903)"/></g></g></g></svg>