<svg xmlns="http://www.w3.org/2000/svg" width="72.235" height="72.235" viewBox="0 0 72.235 72.235"><defs><style>.a{fill:#008cff;}</style></defs><rect class="a" width="6" height="6" transform="translate(33 32)"/><path class="a" d="M63.77,5.643H60.384V0H54.74V5.643H17.494V0H11.851V5.643H8.465A8.475,8.475,0,0,0,0,14.108V63.77a8.475,8.475,0,0,0,8.465,8.465h29.03a24.885,24.885,0,0,1-5.031-5.643h-24A2.825,2.825,0,0,1,5.643,63.77V26.524H66.592v5.939a24.891,24.891,0,0,1,5.643,5.031V14.108A8.475,8.475,0,0,0,63.77,5.643ZM66.592,20.88H5.643V14.108a2.825,2.825,0,0,1,2.822-2.822h3.386V16.93h5.643V11.287H54.74V16.93h5.643V11.287H63.77a2.825,2.825,0,0,1,2.822,2.822Z"/><path class="a" d="M261.046,242a19.046,19.046,0,1,0,19.046,19.046A19.068,19.068,0,0,0,261.046,242Zm0,32.449a13.4,13.4,0,1,1,13.4-13.4A13.418,13.418,0,0,1,261.046,274.449Z" transform="translate(-207.858 -207.858)"/><path class="a" d="M361.643,310H356v12.274h10.44v-5.643h-4.8Z" transform="translate(-305.774 -266.264)"/><rect class="a" width="6" height="6" transform="translate(22 44)"/><rect class="a" width="5" height="6" transform="translate(11 44)"/><rect class="a" width="5" height="6" transform="translate(11 32)"/><rect class="a" width="5" height="5" transform="translate(11 55)"/><rect class="a" width="6" height="6" transform="translate(22 32)"/><rect class="a" width="6" height="5" transform="translate(22 55)"/></svg>