<svg xmlns="http://www.w3.org/2000/svg" xmlns:xlink="http://www.w3.org/1999/xlink" width="63" height="63" viewBox="0 0 63 63"><defs><style>.a,.e{fill:none;}.b{fill:#51cda2;}.c{fill:#fff;}.d{clip-path:url(#a);}.e{font-size:12px;font-family:Montserrat-Regular, Montserrat;}</style><clipPath id="a"><rect class="a" width="29" height="28"/></clipPath></defs><circle class="b" cx="31.5" cy="31.5" r="31.5"/><g transform="translate(17 18)"><path class="c" d="M2,28a2,2,0,0,1-2-2V2A2,2,0,0,1,2,0H26a2,2,0,0,1,2,2V26a2,2,0,0,1-2,2ZM2.334,3.334V24.667a1,1,0,0,0,1,1H24.667a1,1,0,0,0,1-1V3.334a1,1,0,0,0-1-1H3.334A1,1,0,0,0,2.334,3.334Zm3.333,20a1,1,0,0,1-1-1V12.667a1,1,0,0,1,1-1H22.333a1,1,0,0,1,1,1v9.667a1,1,0,0,1-1,1ZM7,15v5a1,1,0,0,0,1,1H20a1,1,0,0,0,1-1V15a1,1,0,0,0-1-1H8A1,1,0,0,0,7,15ZM5.666,9.334a1,1,0,0,1-1-1V5.666a1,1,0,0,1,1-1H8.333a1,1,0,0,1,1,1V8.333a1,1,0,0,1-1,1Zm7-2.334a1,1,0,0,1-1-1V5.666a1,1,0,0,1,1-1h9.667a1,1,0,0,1,1,1V6a1,1,0,0,1-1,1Z"/><g class="d"><rect class="a" width="28" height="28"/><text class="e" transform="translate(14 17)"><tspan x="-7.236" y="0">24</tspan></text></g></g></svg>