<svg xmlns="http://www.w3.org/2000/svg" width="78.335" height="72.235" viewBox="0 0 78.335 72.235"><defs><style>.a{fill:#008cff;}</style></defs><g transform="translate(0 -11.595)"><path class="a" d="M141.592,76.9v23.936h15.256V96.625H145.8V76.9Z" transform="translate(-104.348 -48.125)"/><path class="a" d="M79,47.965A36.382,36.382,0,0,0,6.739,41.924H.9l10.075,17.36,10.37-17.36H15.3A27.967,27.967,0,1,1,48.689,75.249v8.58A36.506,36.506,0,0,0,79,47.965Z" transform="translate(-0.661)"/><path class="a" d="M6.415,225.768l2.676-2.845a42.129,42.129,0,0,0,3.58-4.269,5.77,5.77,0,0,0,.971-3.31,5.531,5.531,0,0,0-1.827-4.386,7.46,7.46,0,0,0-5.088-1.6,6.577,6.577,0,0,0-4.932,1.91A6.262,6.262,0,0,0,0,215.956l.027.118H4.513A3.726,3.726,0,0,1,5.1,213.8a1.873,1.873,0,0,1,1.624-.895,2.141,2.141,0,0,1,1.732.67,2.7,2.7,0,0,1,.577,1.816,4.2,4.2,0,0,1-.571,1.886,12.929,12.929,0,0,1-1.734,2.472L.419,226.436v3.054H14.1v-3.682H6.456l-.041-.039Z" transform="translate(0 -145.744)"/><path class="a" d="M66.7,210.681H62.224V210.6L54.24,223.383l.222,2.818h7.762v4.209H66.7V226.2h2.1v-3.419H66.7Zm-4.472,12.1h-3.93l3.4-5.651.4-.594.131-.008Z" transform="translate(-39.973 -146.663)"/><path class="a" d="M129.744,229.888v-8.515a14.048,14.048,0,0,0-.054-1.752,6.2,6.2,0,0,0-1.167-3.18,4.361,4.361,0,0,0-3.573-1.59,3.96,3.96,0,0,0-2.056.55,3.492,3.492,0,0,0-1.567,1.542V209.9h-4.735v19.991h4.735V219.131c0-.235.439-.419.765-.55a2.951,2.951,0,0,1,1.129-.2,1.856,1.856,0,0,1,1.548.638,3.88,3.88,0,0,1,.5,2.324v8.542h4.472Z" transform="translate(-85.924 -146.142)"/></g></svg>