<svg xmlns="http://www.w3.org/2000/svg" width="1501.889" height="5329.926" viewBox="0 0 1501.889 5329.926"><defs><style>.a{opacity:0.277;}.b{fill:#008cff;}</style></defs><g class="a" transform="translate(-219.478 -1145.369)"><g transform="matrix(0.966, -0.259, 0.259, 0.966, 231.398, 4243.236)"><path class="b" d="M667.38,255.8c-8.573,0-14.506-2.235-17.638-6.646-5.666-7.98-1.039-21.235,2.341-30.911.709-2.024,1.362-3.9,1.858-5.533a1.141,1.141,0,0,1,.924-.8,1.17,1.17,0,0,1,1.127.488l6.913,10.109a24.716,24.716,0,0,1,9.028.014l6.927-10.123a1.166,1.166,0,0,1,1.127-.488,1.141,1.141,0,0,1,.924.8c.442,1.458,1.058,3.192,1.739,5.114,3.252,9.162,8.168,23.015,2.359,31.243C681.854,253.528,675.921,255.8,667.38,255.8Zm-11.962-40.174c-.354,1.067-.75,2.194-1.164,3.376-3.21,9.2-7.616,21.81-2.636,28.823,2.672,3.767,7.975,5.676,15.762,5.676,7.75,0,13.053-1.941,15.748-5.758,5.124-7.258.451-20.435-2.644-29.15-.373-1.049-.727-2.047-1.044-2.976l-5.905,8.633-.014.028a1.155,1.155,0,0,1-1.265.644,22.687,22.687,0,0,0-9.635-.023,1.149,1.149,0,0,1-1.186-.474Z" transform="translate(-634.821 -211.887)"/><g transform="translate(0 26.953)"><path class="b" d="M671.036,222.74l-.124-.009-25.47-2.691a1.149,1.149,0,1,1,.244-2.286l25.471,2.691a1.151,1.151,0,0,1-.12,2.3Z" transform="translate(-644.414 -217.748)"/><path class="b" d="M645.56,224.645a1.15,1.15,0,0,1-.147-2.29l25.471-3.362a1.15,1.15,0,0,1,.3,2.281l-25.471,3.367C645.661,224.645,645.615,224.645,645.56,224.645Z" transform="translate(-644.413 -213.301)"/><path class="b" d="M653.754,222.739a1.151,1.151,0,0,1-.12-2.3l25.466-2.691a1.167,1.167,0,0,1,1.265,1.021,1.151,1.151,0,0,1-1.021,1.265l-25.466,2.691Z" transform="translate(-614.926 -217.747)"/><path class="b" d="M679.224,224.645c-.05,0-.1,0-.151,0l-25.466-3.367a1.15,1.15,0,0,1,.3-2.281l25.466,3.362a1.15,1.15,0,0,1-.148,2.29Z" transform="translate(-614.925 -213.301)"/></g></g><g transform="translate(1646 6012.088)"><path class="b" d="M765.228,218.4a7.124,7.124,0,0,1-5.71-11.381l-16.893-14.263a.531.531,0,0,1-.17-.092l-16.087-13.583a7.123,7.123,0,0,1-9.753.527l-.024-.026a7.085,7.085,0,0,1-1.921-8.17,6.971,6.971,0,0,1,5.949-4.326,7.124,7.124,0,0,1,11.669-6.048,7.143,7.143,0,0,1,1.122,9.706l15.671,13.228a.617.617,0,0,1,.17.092l17.306,14.613a7.112,7.112,0,1,1,5.751,12,7.076,7.076,0,0,1-7.081,7.726ZM743.1,191.659a.6.6,0,0,1,.173.092l17.467,14.75a.587.587,0,0,1,.05.855,5.939,5.939,0,1,0,10.27,2.859.594.594,0,0,1,.13-.487.6.6,0,0,1,.458-.21h.076a5.926,5.926,0,1,0-4.546-9.753.754.754,0,0,1-.444.281.663.663,0,0,1-.477-.08L748.61,185.072a.513.513,0,0,1-.17-.092l-16.245-13.713a.6.6,0,0,1-.208-.409.583.583,0,0,1,.147-.435c.017-.019.09-.09.109-.106a5.952,5.952,0,0,0-.714-8.373,5.924,5.924,0,0,0-9.656,5.6.583.583,0,0,1-.13.487.615.615,0,0,1-.458.21h-.069a5.937,5.937,0,0,0-3.858,10.438h0l.076.076a5.947,5.947,0,0,0,8.321-.761,1.073,1.073,0,0,1,.09-.128.593.593,0,0,1,.4-.208.527.527,0,0,1,.432.135Z" transform="translate(-714.105 -159.381)"/><path class="b" d="M722.573,181.019c-2.958,0-5.276-1.557-5.276-3.544s2.318-3.544,5.276-3.544,5.273,1.557,5.273,3.544S725.531,181.019,722.573,181.019Zm0-5.907c-2.221,0-4.095,1.082-4.095,2.363s1.874,2.363,4.095,2.363,4.092-1.082,4.092-2.363S724.791,175.112,722.573,175.112Z" transform="translate(-709.755 -139.555)"/><path class="b" d="M722.642,181.433c-2.093,0-3.615-.588-4.517-1.753a5.1,5.1,0,0,1-.74-4.052.59.59,0,1,1,1.144.291,3.971,3.971,0,0,0,.536,3.045c.666.853,1.871,1.288,3.577,1.288a4.319,4.319,0,0,0,3.577-1.29,3.96,3.96,0,0,0,.534-3.043.6.6,0,0,1,.425-.718.582.582,0,0,1,.718.428,5.1,5.1,0,0,1-.74,4.052C726.254,180.844,724.735,181.433,722.642,181.433Z" transform="translate(-709.823 -137.851)"/><path class="b" d="M729.113,184.76c-2.958,0-5.278-1.557-5.278-3.544s2.32-3.544,5.278-3.544,5.274,1.557,5.274,3.544S732.071,184.76,729.113,184.76Zm0-5.907c-2.221,0-4.1,1.082-4.1,2.363s1.876,2.363,4.1,2.363,4.092-1.082,4.092-2.363S731.332,178.853,729.113,178.853Z" transform="translate(-700.846 -134.457)"/><path class="b" d="M729.181,185.175c-2.093,0-3.615-.588-4.515-1.751a5.1,5.1,0,0,1-.744-4.057.59.59,0,1,1,1.144.291,3.968,3.968,0,0,0,.536,3.045c.669.855,1.873,1.29,3.579,1.29s2.913-.437,3.579-1.295a3.938,3.938,0,0,0,.532-3.041.591.591,0,0,1,.427-.718.6.6,0,0,1,.716.428,5.108,5.108,0,0,1-.74,4.057C732.792,184.586,731.272,185.175,729.181,185.175Z" transform="translate(-700.914 -132.752)"/><path class="b" d="M723.519,187.772c-2.315,0-4.125-1.238-4.125-2.819s1.81-2.821,4.125-2.821,4.125,1.24,4.125,2.821S725.832,187.772,723.519,187.772Zm0-4.458c-1.734,0-2.944.862-2.944,1.64s1.21,1.637,2.944,1.637,2.944-.862,2.944-1.637S725.254,183.313,723.519,183.313Z" transform="translate(-706.897 -128.38)"/><path class="b" d="M723.57,188.082a4.205,4.205,0,0,1-3.52-1.377,4.006,4.006,0,0,1-.586-3.185.59.59,0,0,1,1.143.288,2.849,2.849,0,0,0,.378,2.176,4.1,4.1,0,0,0,5.169,0,2.847,2.847,0,0,0,.378-2.176.59.59,0,0,1,1.144-.288,4,4,0,0,1-.584,3.185A4.217,4.217,0,0,1,723.57,188.082Z" transform="translate(-706.948 -127.093)"/></g><g transform="translate(1646 2008.104)"><path class="b" d="M773.6,228.064a8.29,8.29,0,0,1-6.645-13.244l-19.658-16.6a.619.619,0,0,1-.2-.107l-18.721-15.806a8.29,8.29,0,0,1-11.35.613l-.027-.03a8.245,8.245,0,0,1-2.235-9.507,8.112,8.112,0,0,1,6.923-5.034,8.291,8.291,0,0,1,13.579-7.039,8.312,8.312,0,0,1,1.306,11.295L754.808,188a.718.718,0,0,1,.2.107l20.139,17.005a8.277,8.277,0,1,1,6.692,13.961,8.235,8.235,0,0,1-8.24,8.991Zm-25.756-31.12a.7.7,0,0,1,.2.107l20.326,17.165a.682.682,0,0,1,.058,1,6.912,6.912,0,1,0,11.952,3.327.691.691,0,0,1,.151-.566.7.7,0,0,1,.534-.245h.088a6.9,6.9,0,1,0-5.29-11.35.878.878,0,0,1-.517.327.771.771,0,0,1-.555-.093l-20.53-17.332a.6.6,0,0,1-.2-.107l-18.9-15.958a.693.693,0,0,1-.242-.476.679.679,0,0,1,.171-.506c.019-.022.1-.1.126-.124a6.927,6.927,0,0,0-.83-9.744,6.894,6.894,0,0,0-11.237,6.522.678.678,0,0,1-.151.566.715.715,0,0,1-.533.245h-.08a6.909,6.909,0,0,0-4.49,12.147h0l.088.088a6.921,6.921,0,0,0,9.683-.885,1.255,1.255,0,0,1,.1-.148.691.691,0,0,1,.467-.242.613.613,0,0,1,.5.157Z" transform="translate(-714.105 -159.381)"/><path class="b" d="M723.437,182.179c-3.442,0-6.14-1.812-6.14-4.124s2.7-4.124,6.14-4.124,6.137,1.812,6.137,4.124S726.879,182.179,723.437,182.179Zm0-6.874c-2.584,0-4.765,1.259-4.765,2.749s2.18,2.749,4.765,2.749,4.762-1.259,4.762-2.749S726.018,175.306,723.437,175.306Z" transform="translate(-708.52 -133.927)"/><path class="b" d="M723.525,182.456c-2.436,0-4.207-.685-5.257-2.04a5.931,5.931,0,0,1-.861-4.715.687.687,0,1,1,1.331.338,4.621,4.621,0,0,0,.624,3.544c.775.993,2.178,1.5,4.163,1.5s3.384-.506,4.163-1.5a4.608,4.608,0,0,0,.621-3.541.692.692,0,0,1,.495-.836.678.678,0,0,1,.836.5,5.931,5.931,0,0,1-.861,4.715C727.729,181.771,725.961,182.456,723.525,182.456Z" transform="translate(-708.608 -131.74)"/><path class="b" d="M729.977,185.92c-3.442,0-6.142-1.812-6.142-4.124s2.7-4.124,6.142-4.124,6.137,1.812,6.137,4.124S733.42,185.92,729.977,185.92Zm0-6.873c-2.584,0-4.767,1.259-4.767,2.749s2.183,2.749,4.767,2.749,4.762-1.259,4.762-2.749S732.559,179.047,729.977,179.047Z" transform="translate(-697.082 -127.382)"/><path class="b" d="M730.065,186.2c-2.436,0-4.206-.685-5.254-2.037a5.931,5.931,0,0,1-.866-4.721.687.687,0,1,1,1.331.338,4.618,4.618,0,0,0,.624,3.544c.778,1,2.18,1.5,4.165,1.5s3.39-.509,4.165-1.507a4.583,4.583,0,0,0,.619-3.538.688.688,0,0,1,.5-.836.7.7,0,0,1,.833.5,5.944,5.944,0,0,1-.861,4.721C734.266,185.513,732.5,186.2,730.065,186.2Z" transform="translate(-697.17 -125.194)"/><path class="b" d="M724.195,188.695c-2.695,0-4.8-1.441-4.8-3.28s2.106-3.283,4.8-3.283,4.8,1.443,4.8,3.283S726.886,188.695,724.195,188.695Zm0-5.188c-2.018,0-3.426,1-3.426,1.908s1.408,1.905,3.426,1.905,3.426-1,3.426-1.905S726.213,183.507,724.195,183.507Z" transform="translate(-704.851 -119.58)"/><path class="b" d="M724.26,188.9a4.894,4.894,0,0,1-4.1-1.6,4.662,4.662,0,0,1-.682-3.706.686.686,0,0,1,1.331.335,3.316,3.316,0,0,0,.44,2.532,4.774,4.774,0,0,0,6.016,0,3.313,3.313,0,0,0,.44-2.532.686.686,0,0,1,1.331-.335,4.657,4.657,0,0,1-.679,3.706A4.907,4.907,0,0,1,724.26,188.9Z" transform="translate(-704.917 -117.928)"/></g><g transform="translate(873 1611.019)"><path class="b" d="M771.153,225.242a7.949,7.949,0,0,1-6.372-12.7l-18.851-15.916a.6.6,0,0,1-.19-.1l-17.952-15.157a7.949,7.949,0,0,1-10.883.588l-.026-.029a7.907,7.907,0,0,1-2.143-9.117,7.779,7.779,0,0,1,6.639-4.827,7.95,7.95,0,0,1,13.021-6.749,7.971,7.971,0,0,1,1.252,10.831l17.488,14.761a.691.691,0,0,1,.19.1l19.312,16.306a7.937,7.937,0,1,1,6.417,13.388,7.9,7.9,0,0,1-7.9,8.621Zm-24.7-29.842a.671.671,0,0,1,.193.1l19.491,16.459a.655.655,0,0,1,.055.954,6.628,6.628,0,1,0,11.461,3.19.662.662,0,0,1,.145-.543.671.671,0,0,1,.512-.235h.084a6.612,6.612,0,1,0-5.073-10.883.842.842,0,0,1-.5.314.739.739,0,0,1-.533-.09l-19.686-16.62a.574.574,0,0,1-.19-.1l-18.128-15.3a.663.663,0,0,1-.232-.456.65.65,0,0,1,.163-.485c.018-.021.1-.1.121-.119a6.642,6.642,0,0,0-.8-9.344,6.611,6.611,0,0,0-10.775,6.254.65.65,0,0,1-.145.543.686.686,0,0,1-.511.235h-.077a6.625,6.625,0,0,0-4.305,11.648h0l.084.084a6.637,6.637,0,0,0,9.285-.849,1.2,1.2,0,0,1,.1-.142.662.662,0,0,1,.448-.232.588.588,0,0,1,.482.15Z" transform="translate(-714.105 -159.381)"/><path class="b" d="M723.184,181.84c-3.3,0-5.887-1.737-5.887-3.955s2.586-3.955,5.887-3.955,5.885,1.737,5.885,3.955S726.485,181.84,723.184,181.84Zm0-6.591c-2.478,0-4.569,1.208-4.569,2.636s2.091,2.636,4.569,2.636,4.566-1.207,4.566-2.636S725.66,175.249,723.184,175.249Z" transform="translate(-708.881 -135.57)"/><path class="b" d="M723.267,182.157c-2.336,0-4.034-.656-5.041-1.956a5.687,5.687,0,0,1-.825-4.522.658.658,0,1,1,1.276.324,4.432,4.432,0,0,0,.6,3.4c.743.952,2.088,1.437,3.992,1.437s3.245-.485,3.992-1.439a4.419,4.419,0,0,0,.6-3.4.664.664,0,0,1,.475-.8.65.65,0,0,1,.8.477,5.687,5.687,0,0,1-.825,4.522C727.3,181.5,725.6,182.157,723.267,182.157Z" transform="translate(-708.963 -133.525)"/><path class="b" d="M729.725,185.581c-3.3,0-5.89-1.737-5.89-3.955s2.589-3.955,5.89-3.955,5.885,1.737,5.885,3.955S733.026,185.581,729.725,185.581Zm0-6.591c-2.478,0-4.571,1.207-4.571,2.636s2.093,2.636,4.571,2.636,4.566-1.207,4.566-2.636S732.2,178.99,729.725,178.99Z" transform="translate(-698.182 -129.449)"/><path class="b" d="M729.807,185.9c-2.336,0-4.034-.656-5.038-1.954a5.687,5.687,0,0,1-.831-4.527.658.658,0,1,1,1.276.324,4.429,4.429,0,0,0,.6,3.4c.746.954,2.09,1.44,3.994,1.44s3.251-.488,3.994-1.445a4.395,4.395,0,0,0,.593-3.393.659.659,0,0,1,.477-.8.666.666,0,0,1,.8.477,5.7,5.7,0,0,1-.825,4.527C733.835,185.243,732.14,185.9,729.807,185.9Z" transform="translate(-698.263 -127.401)"/><path class="b" d="M724,188.425c-2.584,0-4.6-1.382-4.6-3.145s2.02-3.148,4.6-3.148,4.6,1.384,4.6,3.148S726.579,188.425,724,188.425Zm0-4.975c-1.935,0-3.285.962-3.285,1.83s1.35,1.827,3.285,1.827,3.285-.962,3.285-1.827S725.933,183.45,724,183.45Z" transform="translate(-705.449 -122.15)"/><path class="b" d="M724.059,188.662a4.693,4.693,0,0,1-3.928-1.537,4.471,4.471,0,0,1-.654-3.554.658.658,0,0,1,1.276.322,3.18,3.18,0,0,0,.422,2.428,4.578,4.578,0,0,0,5.768,0,3.178,3.178,0,0,0,.422-2.428.658.658,0,0,1,1.276-.322,4.466,4.466,0,0,1-.651,3.554A4.706,4.706,0,0,1,724.059,188.662Z" transform="translate(-705.51 -120.605)"/></g><g transform="translate(905.186 3108.451)"><path class="b" d="M769.889,223.782a7.773,7.773,0,0,1-6.231-12.418L745.225,195.8a.58.58,0,0,1-.186-.1l-17.554-14.821a7.773,7.773,0,0,1-10.642.575l-.026-.028a7.731,7.731,0,0,1-2.1-8.915,7.607,7.607,0,0,1,6.491-4.72,7.774,7.774,0,0,1,12.733-6.6,7.794,7.794,0,0,1,1.224,10.59l17.1,14.434a.673.673,0,0,1,.186.1l18.884,15.945a7.761,7.761,0,1,1,6.275,13.091,7.721,7.721,0,0,1-7.726,8.43ZM745.738,194.6a.655.655,0,0,1,.188.1L764.985,210.8a.64.64,0,0,1,.054.933,6.481,6.481,0,1,0,11.207,3.119.648.648,0,0,1,.142-.531.656.656,0,0,1,.5-.229h.083a6.466,6.466,0,1,0-4.96-10.642.823.823,0,0,1-.484.307.723.723,0,0,1-.521-.088l-19.25-16.252a.561.561,0,0,1-.186-.1l-17.726-14.963a.649.649,0,0,1-.227-.446.636.636,0,0,1,.16-.474c.018-.021.1-.1.119-.116a6.5,6.5,0,0,0-.779-9.136,6.464,6.464,0,0,0-10.536,6.115.636.636,0,0,1-.142.531.671.671,0,0,1-.5.229h-.075a6.478,6.478,0,0,0-4.21,11.39h0l.082.082a6.489,6.489,0,0,0,9.079-.83,1.184,1.184,0,0,1,.1-.139.648.648,0,0,1,.438-.227.575.575,0,0,1,.472.147Z" transform="translate(-714.105 -159.381)"/><path class="b" d="M723.054,181.665c-3.228,0-5.757-1.7-5.757-3.867s2.529-3.867,5.757-3.867,5.754,1.7,5.754,3.867S726.282,181.665,723.054,181.665Zm0-6.445c-2.423,0-4.468,1.181-4.468,2.578s2.044,2.578,4.468,2.578,4.465-1.181,4.465-2.578S725.475,175.22,723.054,175.22Z" transform="translate(-709.067 -136.421)"/><path class="b" d="M723.133,182c-2.284,0-3.944-.642-4.929-1.913a5.561,5.561,0,0,1-.807-4.421.644.644,0,1,1,1.248.317,4.333,4.333,0,0,0,.585,3.323c.727.931,2.042,1.4,3.9,1.4s3.173-.474,3.9-1.408a4.321,4.321,0,0,0,.583-3.32.649.649,0,0,1,.464-.784.635.635,0,0,1,.784.467,5.561,5.561,0,0,1-.807,4.421C727.075,181.361,725.417,182,723.133,182Z" transform="translate(-709.147 -134.448)"/><path class="b" d="M729.594,185.406c-3.228,0-5.759-1.7-5.759-3.867s2.532-3.867,5.759-3.867,5.754,1.7,5.754,3.867S732.822,185.406,729.594,185.406Zm0-6.445c-2.423,0-4.47,1.181-4.47,2.578s2.047,2.578,4.47,2.578,4.465-1.181,4.465-2.578S732.015,178.961,729.594,178.961Z" transform="translate(-698.75 -130.518)"/><path class="b" d="M729.673,185.744c-2.284,0-3.944-.642-4.926-1.91a5.561,5.561,0,0,1-.812-4.426.644.644,0,1,1,1.248.317,4.33,4.33,0,0,0,.585,3.323c.729.933,2.044,1.408,3.906,1.408s3.179-.477,3.906-1.413a4.3,4.3,0,0,0,.58-3.318.645.645,0,0,1,.466-.784.651.651,0,0,1,.781.467,5.573,5.573,0,0,1-.807,4.426C733.613,185.1,731.955,185.744,729.673,185.744Z" transform="translate(-698.829 -128.543)"/><path class="b" d="M723.9,188.286c-2.526,0-4.5-1.351-4.5-3.076s1.975-3.078,4.5-3.078,4.5,1.353,4.5,3.078S726.419,188.286,723.9,188.286Zm0-4.865c-1.892,0-3.212.941-3.212,1.789S722,187,723.9,187s3.212-.941,3.212-1.787S725.788,183.421,723.9,183.421Z" transform="translate(-705.758 -123.48)"/><path class="b" d="M723.954,188.539a4.589,4.589,0,0,1-3.841-1.5,4.372,4.372,0,0,1-.639-3.475.643.643,0,0,1,1.248.314,3.109,3.109,0,0,0,.413,2.374,4.476,4.476,0,0,0,5.641,0,3.107,3.107,0,0,0,.412-2.374.643.643,0,0,1,1.248-.314,4.367,4.367,0,0,1-.637,3.475A4.6,4.6,0,0,1,723.954,188.539Z" transform="translate(-705.817 -121.99)"/></g><g transform="translate(560 4956.451)"><path class="b" d="M766.536,219.911a7.306,7.306,0,0,1-5.856-11.672l-17.325-14.628a.545.545,0,0,1-.174-.095l-16.5-13.93a7.306,7.306,0,0,1-10,.54l-.024-.027a7.267,7.267,0,0,1-1.97-8.379,7.149,7.149,0,0,1,6.1-4.437,7.307,7.307,0,0,1,11.967-6.2,7.326,7.326,0,0,1,1.151,9.954L749.977,184.6a.633.633,0,0,1,.174.094L767.9,199.684a7.294,7.294,0,1,1,5.9,12.3,7.257,7.257,0,0,1-7.262,7.923Zm-22.7-27.426a.614.614,0,0,1,.177.094l17.914,15.127a.6.6,0,0,1,.051.877,6.091,6.091,0,1,0,10.533,2.932.609.609,0,0,1,.133-.5.617.617,0,0,1,.47-.216h.078a6.077,6.077,0,1,0-4.662-10,.774.774,0,0,1-.455.288.68.68,0,0,1-.49-.082l-18.093-15.275a.527.527,0,0,1-.174-.094l-16.661-14.063a.61.61,0,0,1-.213-.419.6.6,0,0,1,.15-.446c.017-.019.092-.092.111-.109a6.1,6.1,0,0,0-.732-8.587,6.076,6.076,0,0,0-9.9,5.747.6.6,0,0,1-.133.5.63.63,0,0,1-.47.216h-.07a6.088,6.088,0,0,0-3.957,10.705h0l.077.078a6.1,6.1,0,0,0,8.534-.78,1.1,1.1,0,0,1,.092-.131.608.608,0,0,1,.412-.213.54.54,0,0,1,.443.138Z" transform="translate(-714.105 -159.381)"/><path class="b" d="M722.708,181.2c-3.034,0-5.411-1.6-5.411-3.635s2.377-3.635,5.411-3.635,5.408,1.6,5.408,3.635S725.742,181.2,722.708,181.2Zm0-6.058c-2.278,0-4.2,1.11-4.2,2.423s1.922,2.423,4.2,2.423,4.2-1.11,4.2-2.423S724.983,175.143,722.708,175.143Z" transform="translate(-709.562 -138.675)"/><path class="b" d="M722.78,181.592c-2.147,0-3.707-.6-4.633-1.8a5.227,5.227,0,0,1-.758-4.156.605.605,0,1,1,1.173.3,4.072,4.072,0,0,0,.55,3.123c.683.875,1.919,1.321,3.669,1.321s2.983-.446,3.668-1.323a4.061,4.061,0,0,0,.548-3.121.61.61,0,0,1,.436-.737.6.6,0,0,1,.737.439,5.227,5.227,0,0,1-.759,4.156C726.484,180.989,724.926,181.592,722.78,181.592Z" transform="translate(-709.633 -136.897)"/><path class="b" d="M729.248,184.941c-3.034,0-5.413-1.6-5.413-3.635s2.379-3.635,5.413-3.635,5.408,1.6,5.408,3.635S732.282,184.941,729.248,184.941Zm0-6.058c-2.278,0-4.2,1.11-4.2,2.423s1.924,2.423,4.2,2.423,4.2-1.11,4.2-2.423S731.523,178.884,729.248,178.884Z" transform="translate(-700.258 -133.352)"/><path class="b" d="M729.319,185.334c-2.147,0-3.707-.6-4.63-1.8a5.227,5.227,0,0,1-.763-4.16.605.605,0,1,1,1.173.3,4.07,4.07,0,0,0,.55,3.123c.686.877,1.921,1.323,3.671,1.323s2.988-.448,3.671-1.328a4.039,4.039,0,0,0,.545-3.118.606.606,0,0,1,.438-.737.612.612,0,0,1,.734.439,5.238,5.238,0,0,1-.758,4.16C733.022,184.731,731.464,185.334,729.319,185.334Z" transform="translate(-700.329 -131.572)"/><path class="b" d="M723.625,187.916c-2.375,0-4.231-1.27-4.231-2.891s1.856-2.893,4.231-2.893,4.23,1.272,4.23,2.893S726,187.916,723.625,187.916Zm0-4.572c-1.778,0-3.019.884-3.019,1.682s1.241,1.679,3.019,1.679,3.019-.884,3.019-1.679S725.4,183.344,723.625,183.344Z" transform="translate(-706.578 -127.005)"/><path class="b" d="M723.678,188.21a4.313,4.313,0,0,1-3.61-1.413,4.109,4.109,0,0,1-.6-3.266.6.6,0,0,1,1.173.3,2.922,2.922,0,0,0,.388,2.232,4.207,4.207,0,0,0,5.3,0,2.92,2.92,0,0,0,.388-2.232.6.6,0,0,1,1.173-.3,4.1,4.1,0,0,1-.6,3.266A4.324,4.324,0,0,1,723.678,188.21Z" transform="translate(-706.631 -125.661)"/></g><g transform="translate(215.451 5554.496) rotate(-19)"><path class="b" d="M690.727,324.981c-4.382,0-8.063-.363-10.252-2.509-1.4-1.373-2.078-3.329-2.078-5.981,0-9.436,8.731-20.827,19.576-20.827s19.579,11.391,19.579,20.827c0,2.653-.679,4.608-2.078,5.981-2.732,2.678-7.771,2.588-13.609,2.462-2.509-.05-5.277-.05-7.786,0C692.926,324.96,691.8,324.981,690.727,324.981Zm7.247-27.52c-9.849,0-17.779,10.41-17.779,19.029a6.269,6.269,0,0,0,1.539,4.695c2.193,2.153,6.887,2.07,12.311,1.952,2.534-.05,5.327-.05,7.857,0,5.432.119,10.126.2,12.315-1.952a6.271,6.271,0,0,0,1.538-4.695C715.755,307.871,707.822,297.461,697.973,297.461Z" transform="translate(-671.629 -277.249)"/><path class="b" d="M682.934,309.967c-3.541,0-6.42-3.584-6.42-7.991s2.88-7.994,6.42-7.994,6.423,3.584,6.423,7.994S686.474,309.967,682.934,309.967Zm0-14.188c-2.549,0-4.623,2.779-4.623,6.2s2.074,6.193,4.623,6.193,4.626-2.779,4.626-6.193S685.486,295.779,682.934,295.779Z" transform="translate(-676.514 -281.613)"/><path class="b" d="M694.023,309.967c-3.541,0-6.423-3.584-6.423-7.991s2.883-7.994,6.423-7.994,6.423,3.584,6.423,7.994S697.563,309.967,694.023,309.967Zm0-14.188c-2.549,0-4.626,2.779-4.626,6.2s2.078,6.193,4.626,6.193,4.626-2.779,4.626-6.193S696.575,295.779,694.023,295.779Z" transform="translate(-647.754 -281.613)"/><path class="b" d="M687.167,309.934c-4.27,0-7.746-4.349-7.746-9.694s3.476-9.7,7.746-9.7,7.753,4.35,7.753,9.7S691.441,309.934,687.167,309.934Zm0-17.6c-3.282,0-5.949,3.544-5.949,7.9s2.667,7.9,5.949,7.9,5.956-3.541,5.956-7.9S690.453,292.338,687.167,292.338Z" transform="translate(-668.972 -290.541)"/><path class="b" d="M691.707,309.934c-4.274,0-7.753-4.349-7.753-9.694s3.48-9.7,7.753-9.7,7.746,4.35,7.746,9.7S695.977,309.934,691.707,309.934Zm0-17.6c-3.282,0-5.956,3.544-5.956,7.9s2.674,7.9,5.956,7.9,5.949-3.541,5.949-7.9S694.989,292.338,691.707,292.338Z" transform="translate(-657.213 -290.541)"/></g><g transform="translate(325.451 2345.496) rotate(-19)"><path class="b" d="M690.727,324.981c-4.382,0-8.063-.363-10.252-2.509-1.4-1.373-2.078-3.329-2.078-5.981,0-9.436,8.731-20.827,19.576-20.827s19.579,11.391,19.579,20.827c0,2.653-.679,4.608-2.078,5.981-2.732,2.678-7.771,2.588-13.609,2.462-2.509-.05-5.277-.05-7.786,0C692.926,324.96,691.8,324.981,690.727,324.981Zm7.247-27.52c-9.849,0-17.779,10.41-17.779,19.029a6.269,6.269,0,0,0,1.539,4.695c2.193,2.153,6.887,2.07,12.311,1.952,2.534-.05,5.327-.05,7.857,0,5.432.119,10.126.2,12.315-1.952a6.271,6.271,0,0,0,1.538-4.695C715.755,307.871,707.822,297.461,697.973,297.461Z" transform="translate(-671.629 -277.249)"/><path class="b" d="M682.934,309.967c-3.541,0-6.42-3.584-6.42-7.991s2.88-7.994,6.42-7.994,6.423,3.584,6.423,7.994S686.474,309.967,682.934,309.967Zm0-14.188c-2.549,0-4.623,2.779-4.623,6.2s2.074,6.193,4.623,6.193,4.626-2.779,4.626-6.193S685.486,295.779,682.934,295.779Z" transform="translate(-676.514 -281.613)"/><path class="b" d="M694.023,309.967c-3.541,0-6.423-3.584-6.423-7.991s2.883-7.994,6.423-7.994,6.423,3.584,6.423,7.994S697.563,309.967,694.023,309.967Zm0-14.188c-2.549,0-4.626,2.779-4.626,6.2s2.078,6.193,4.626,6.193,4.626-2.779,4.626-6.193S696.575,295.779,694.023,295.779Z" transform="translate(-647.754 -281.613)"/><path class="b" d="M687.167,309.934c-4.27,0-7.746-4.349-7.746-9.694s3.476-9.7,7.746-9.7,7.753,4.35,7.753,9.7S691.441,309.934,687.167,309.934Zm0-17.6c-3.282,0-5.949,3.544-5.949,7.9s2.667,7.9,5.949,7.9,5.956-3.541,5.956-7.9S690.453,292.338,687.167,292.338Z" transform="translate(-668.972 -290.541)"/><path class="b" d="M691.707,309.934c-4.274,0-7.753-4.349-7.753-9.694s3.48-9.7,7.753-9.7,7.746,4.35,7.746,9.7S695.977,309.934,691.707,309.934Zm0-17.6c-3.282,0-5.956,3.544-5.956,7.9s2.674,7.9,5.956,7.9,5.949-3.541,5.949-7.9S694.989,292.338,691.707,292.338Z" transform="translate(-657.213 -290.541)"/></g><g transform="translate(301.099 3270.635) rotate(11)"><path class="b" d="M496.563,253.833c-7.489,0-12.672-1.953-15.408-5.806-4.95-6.971-.9-18.55,2.049-27,.615-1.768,1.185-3.4,1.619-4.833a1,1,0,0,1,1.792-.277l6.039,8.831a21.705,21.705,0,0,1,7.891.012l6.047-8.843a1,1,0,0,1,1.792.277c.386,1.274.924,2.792,1.523,4.468,2.841,8,7.135,20.1,2.057,27.292C509.207,251.852,504.028,253.833,496.563,253.833Zm-10.45-35.091c-.309.928-.655,1.912-1.012,2.945-2.808,8.039-6.653,19.052-2.306,25.179,2.338,3.291,6.971,4.958,13.769,4.958,6.774,0,11.4-1.691,13.761-5.03,4.476-6.34.39-17.847-2.314-25.464-.326-.916-.635-1.788-.912-2.6l-5.155,7.537-.012.024a1,1,0,0,1-1.109.566,19.8,19.8,0,0,0-8.413-.02,1.034,1.034,0,0,1-1.041-.418Z" transform="translate(-468.121 -215.476)"/><g transform="translate(0 23.543)"><path class="b" d="M499.417,225.7l-.108,0-22.246-2.354a1,1,0,0,1-.892-1.1.988.988,0,0,1,1.1-.892l22.246,2.35a1.005,1.005,0,0,1-.1,2Z" transform="translate(-476.162 -221.336)"/><path class="b" d="M477.169,227.524a1,1,0,0,1-.129-2l22.246-2.941a1,1,0,0,1,.261,1.993L477.3,227.516C477.257,227.52,477.213,227.524,477.169,227.524Z" transform="translate(-476.164 -217.608)"/><path class="b" d="M485.36,225.7a1.005,1.005,0,0,1-.1-2l22.246-2.35a1,1,0,1,1,.213,2l-22.246,2.354Z" transform="translate(-451.438 -221.335)"/><path class="b" d="M507.612,227.524c-.044,0-.088,0-.133-.008l-22.25-2.941a1.005,1.005,0,0,1,.265-1.993l22.246,2.941a1,1,0,0,1-.129,2Z" transform="translate(-451.44 -217.608)"/></g></g><g transform="matrix(0.966, 0.259, -0.259, 0.966, 712.661, 3917.117)"><path class="b" d="M645.21,319.537c-.961,0-1.957-.022-2.984-.043-2.231-.043-4.678-.043-6.908,0-5.25.1-9.776.19-12.288-2.265a7.332,7.332,0,0,1-1.932-5.518c0-8.511,7.883-18.785,17.676-18.785s17.671,10.274,17.671,18.785a7.331,7.331,0,0,1-1.932,5.518C652.5,319.208,649.165,319.537,645.21,319.537Zm-6.436-2.252c1.2,0,2.365.022,3.5.048,4.747.087,8.866.173,10.728-1.655a5.31,5.31,0,0,0,1.282-3.967c0-7.48-7.155-16.619-15.506-16.619s-15.51,9.139-15.51,16.619a5.311,5.311,0,0,0,1.282,3.967c1.863,1.828,5.973,1.741,10.729,1.655C636.4,317.307,637.574,317.285,638.774,317.285Z" transform="translate(-615.087 -276.58)"/><path class="b" d="M625.7,306.452c-3.3,0-5.99-3.309-5.99-7.38s2.685-7.385,5.99-7.385,5.99,3.313,5.99,7.385S629,306.452,625.7,306.452Zm0-12.6c-2.109,0-3.825,2.343-3.825,5.219s1.715,5.215,3.825,5.215,3.825-2.339,3.825-5.215S627.81,293.853,625.7,293.853Z" transform="translate(-619.71 -280.708)"/><path class="b" d="M633.871,306.452c-3.3,0-5.99-3.309-5.99-7.38s2.685-7.385,5.99-7.385,5.99,3.313,5.99,7.385S637.176,306.452,633.871,306.452Zm0-12.6c-2.109,0-3.824,2.343-3.824,5.219s1.715,5.215,3.824,5.215,3.824-2.339,3.824-5.215S635.981,293.853,633.871,293.853Z" transform="translate(-592.491 -280.708)"/><path class="b" d="M629.021,306.94c-3.95,0-7.168-3.989-7.168-8.892s3.218-8.9,7.168-8.9,7.168,3.989,7.168,8.9S632.976,306.94,629.021,306.94Zm0-15.623c-2.759,0-5,3.019-5,6.731s2.243,6.726,5,6.726,5-3.019,5-6.726S631.78,291.318,629.021,291.318Z" transform="translate(-612.572 -289.152)"/><path class="b" d="M632.362,306.94c-3.955,0-7.168-3.989-7.168-8.892s3.214-8.9,7.168-8.9,7.168,3.989,7.168,8.9S636.317,306.94,632.362,306.94Zm0-15.623c-2.759,0-5,3.019-5,6.731s2.244,6.726,5,6.726,5-3.019,5-6.726S635.122,291.318,632.362,291.318Z" transform="translate(-601.442 -289.152)"/></g><g transform="matrix(0.966, 0.259, -0.259, 0.966, 712.661, 3478.117)"><path class="b" d="M645.21,319.537c-.961,0-1.957-.022-2.984-.043-2.231-.043-4.678-.043-6.908,0-5.25.1-9.776.19-12.288-2.265a7.332,7.332,0,0,1-1.932-5.518c0-8.511,7.883-18.785,17.676-18.785s17.671,10.274,17.671,18.785a7.331,7.331,0,0,1-1.932,5.518C652.5,319.208,649.165,319.537,645.21,319.537Zm-6.436-2.252c1.2,0,2.365.022,3.5.048,4.747.087,8.866.173,10.728-1.655a5.31,5.31,0,0,0,1.282-3.967c0-7.48-7.155-16.619-15.506-16.619s-15.51,9.139-15.51,16.619a5.311,5.311,0,0,0,1.282,3.967c1.863,1.828,5.973,1.741,10.729,1.655C636.4,317.307,637.574,317.285,638.774,317.285Z" transform="translate(-615.087 -276.58)"/><path class="b" d="M625.7,306.452c-3.3,0-5.99-3.309-5.99-7.38s2.685-7.385,5.99-7.385,5.99,3.313,5.99,7.385S629,306.452,625.7,306.452Zm0-12.6c-2.109,0-3.825,2.343-3.825,5.219s1.715,5.215,3.825,5.215,3.825-2.339,3.825-5.215S627.81,293.853,625.7,293.853Z" transform="translate(-619.71 -280.708)"/><path class="b" d="M633.871,306.452c-3.3,0-5.99-3.309-5.99-7.38s2.685-7.385,5.99-7.385,5.99,3.313,5.99,7.385S637.176,306.452,633.871,306.452Zm0-12.6c-2.109,0-3.824,2.343-3.824,5.219s1.715,5.215,3.824,5.215,3.824-2.339,3.824-5.215S635.981,293.853,633.871,293.853Z" transform="translate(-592.491 -280.708)"/><path class="b" d="M629.021,306.94c-3.95,0-7.168-3.989-7.168-8.892s3.218-8.9,7.168-8.9,7.168,3.989,7.168,8.9S632.976,306.94,629.021,306.94Zm0-15.623c-2.759,0-5,3.019-5,6.731s2.243,6.726,5,6.726,5-3.019,5-6.726S631.78,291.318,629.021,291.318Z" transform="translate(-612.572 -289.152)"/><path class="b" d="M632.362,306.94c-3.955,0-7.168-3.989-7.168-8.892s3.214-8.9,7.168-8.9,7.168,3.989,7.168,8.9S636.317,306.94,632.362,306.94Zm0-15.623c-2.759,0-5,3.019-5,6.731s2.244,6.726,5,6.726,5-3.019,5-6.726S635.122,291.318,632.362,291.318Z" transform="translate(-601.442 -289.152)"/></g><g transform="translate(317.28 6441.593) rotate(-16)"><path class="b" d="M688.9,350.573c-3.362,0-6.191-.28-7.91-1.963a6.23,6.23,0,0,1-1.643-4.688c0-7.233,6.7-15.968,15.026-15.968s15.029,8.736,15.029,15.968a6.231,6.231,0,0,1-1.642,4.688c-2.136,2.092-6,2.022-10.448,1.926-1.9-.033-3.981-.033-5.874,0C690.568,350.554,689.721,350.573,688.9,350.573Zm5.473-1.911c1.02,0,2.014.018,2.975.037,4.033.066,7.539.147,9.123-1.4a4.527,4.527,0,0,0,1.09-3.373c0-6.4-5.885-14.127-13.188-14.127s-13.184,7.726-13.184,14.127a4.526,4.526,0,0,0,1.09,3.373c1.583,1.55,5.075,1.469,9.122,1.4C692.365,348.68,693.359,348.661,694.376,348.661Z" transform="translate(-674.239 -314.047)"/><path class="b" d="M683.055,339.271c-2.81,0-5.093-2.817-5.093-6.283s2.283-6.275,5.093-6.275,5.094,2.817,5.094,6.275S685.865,339.271,683.055,339.271Zm0-10.717c-1.793,0-3.252,1.989-3.252,4.434s1.458,4.441,3.252,4.441,3.252-1.992,3.252-4.441S684.849,328.554,683.055,328.554Z" transform="translate(-677.962 -317.374)"/><path class="b" d="M691.226,339.271c-2.81,0-5.093-2.817-5.093-6.283s2.283-6.275,5.093-6.275,5.093,2.817,5.093,6.275S694.036,339.271,691.226,339.271Zm0-10.717c-1.793,0-3.252,1.989-3.252,4.434s1.458,4.441,3.252,4.441,3.252-1.992,3.252-4.441S693.02,328.554,691.226,328.554Z" transform="translate(-656.042 -317.374)"/><path class="b" d="M686.2,339.306c-3.362,0-6.1-3.392-6.1-7.565s2.733-7.564,6.1-7.564,6.091,3.392,6.091,7.564S689.559,339.306,686.2,339.306Zm0-13.287c-2.346,0-4.254,2.567-4.254,5.723s1.908,5.723,4.254,5.723,4.25-2.571,4.25-5.723S688.542,326.019,686.2,326.019Z" transform="translate(-672.213 -324.177)"/><path class="b" d="M689.541,339.306c-3.362,0-6.095-3.392-6.095-7.565s2.733-7.564,6.095-7.564,6.095,3.392,6.095,7.564S692.9,339.306,689.541,339.306Zm0-13.287c-2.346,0-4.254,2.567-4.254,5.723s1.908,5.723,4.254,5.723,4.254-2.571,4.254-5.723S691.887,326.019,689.541,326.019Z" transform="translate(-663.25 -324.177)"/></g><g transform="translate(382.705 1900.521) rotate(-14)"><path class="b" d="M584.509,118.482c-8.745,0-14.787-2.262-17.957-6.724-5.754-8.108-1-21.709,2.464-31.644.73-2.094,1.408-4.033,1.922-5.733a.851.851,0,0,1,.689-.6.865.865,0,0,1,.839.36l7.269,10.627a25.442,25.442,0,0,1,9.633.014l7.275-10.641a.872.872,0,0,1,.839-.36.851.851,0,0,1,.689.6c.459,1.515,1.1,3.31,1.8,5.3,3.341,9.407,8.386,23.622,2.481,31.987C599.262,116.189,593.223,118.482,584.509,118.482ZM572.045,76.564c-.421,1.282-.9,2.659-1.412,4.116-3.345,9.582-7.926,22.7-2.683,30.085,2.831,3.986,8.4,6,16.559,6,8.125,0,13.694-2.049,16.545-6.09,5.4-7.642.528-21.353-2.694-30.427-.469-1.323-.911-2.563-1.289-3.691l-6.494,9.493-.017.038a.833.833,0,0,1-.943.493,23.763,23.763,0,0,0-10.1-.024.868.868,0,0,1-.884-.353Z" transform="translate(-551.195 -73.774)"/><g transform="translate(0 27.846)"><path class="b" d="M587.342,86.4l-.093-.007-26.319-2.783a.86.86,0,0,1-.761-.942.844.844,0,0,1,.942-.761l26.319,2.783a.857.857,0,0,1-.089,1.71Z" transform="translate(-560.166 -81.9)"/><path class="b" d="M561.02,88.806a.857.857,0,0,1-.11-1.707l26.319-3.478a.866.866,0,0,1,.96.74.854.854,0,0,1-.737.96L561.133,88.8A.627.627,0,0,1,561.02,88.806Z" transform="translate(-560.166 -77.739)"/><path class="b" d="M572.384,86.4a.857.857,0,0,1-.089-1.71l26.315-2.783a.856.856,0,0,1,.182,1.7l-26.318,2.783Z" transform="translate(-532.589 -81.899)"/><path class="b" d="M598.7,88.806a.627.627,0,0,1-.113-.007l-26.318-3.478a.857.857,0,0,1,.226-1.7L598.813,87.1a.857.857,0,0,1-.11,1.707Z" transform="translate(-532.591 -77.739)"/></g></g><g transform="matrix(0.966, 0.259, -0.259, 0.966, 1539.474, 1610.801)"><path class="b" d="M548.261,378.768c-1.063,0-2.17-.021-3.308-.043-2.475-.05-5.2-.05-7.68,0-5.751.124-10.729.209-13.421-2.432-1.379-1.355-2.049-3.283-2.049-5.9,0-9.3,8.613-20.544,19.31-20.544s19.313,11.24,19.313,20.544c0,2.617-.67,4.545-2.049,5.9C556.214,378.413,552.587,378.768,548.261,378.768Zm-7.148-1.865c1.33,0,2.627.025,3.875.05,5.361.113,9.985.2,12.144-1.925a6.2,6.2,0,0,0,1.521-4.634c0-8.5-7.825-18.771-17.54-18.771s-17.537,10.272-17.537,18.771a6.2,6.2,0,0,0,1.518,4.634c2.159,2.12,6.78,2.035,12.148,1.925C538.489,376.928,539.784,376.9,541.113,376.9Z" transform="translate(-515.123 -331.691)"/><path class="b" d="M526.255,363.938c-3.493,0-6.336-3.535-6.336-7.886s2.844-7.886,6.336-7.886,6.336,3.539,6.336,7.886S529.752,363.938,526.255,363.938Zm0-14c-2.514,0-4.563,2.744-4.563,6.113s2.05,6.113,4.563,6.113,4.563-2.744,4.563-6.113S528.773,349.94,526.255,349.94Z" transform="translate(-519.919 -335.974)"/><path class="b" d="M537.341,363.938c-3.492,0-6.336-3.535-6.336-7.886s2.844-7.886,6.336-7.886,6.336,3.539,6.336,7.886S540.837,363.938,537.341,363.938Zm0-14c-2.514,0-4.563,2.744-4.563,6.113s2.049,6.113,4.563,6.113,4.563-2.744,4.563-6.113S539.859,349.94,537.341,349.94Z" transform="translate(-491.697 -335.974)"/><path class="b" d="M530.472,363.857c-4.216,0-7.644-4.29-7.644-9.566s3.429-9.563,7.644-9.563,7.644,4.29,7.644,9.563S534.688,363.857,530.472,363.857Zm0-17.356c-3.237,0-5.872,3.493-5.872,7.79s2.634,7.793,5.872,7.793,5.872-3.5,5.872-7.793S533.709,346.5,530.472,346.5Z" transform="translate(-512.516 -344.728)"/><path class="b" d="M535,363.857c-4.216,0-7.645-4.29-7.645-9.566s3.429-9.563,7.645-9.563,7.644,4.29,7.644,9.563S539.217,363.857,535,363.857Zm0-17.356c-3.237,0-5.872,3.493-5.872,7.79s2.634,7.793,5.872,7.793,5.872-3.5,5.872-7.793S538.242,346.5,535,346.5Z" transform="translate(-500.976 -344.728)"/></g><g transform="translate(1561.305 4635.996) rotate(11)"><path class="b" d="M639.583,144.471c-7.241,0-12.255-1.888-14.9-5.613-4.786-6.74-.878-17.934,1.977-26.107.6-1.709,1.15-3.29,1.569-4.673a.963.963,0,0,1,.781-.68.981.981,0,0,1,.952.412l5.838,8.538a20.985,20.985,0,0,1,7.629.012l5.846-8.55a.979.979,0,0,1,.952-.412.963.963,0,0,1,.781.68c.373,1.231.893,2.7,1.468,4.316,2.746,7.742,6.9,19.438,1.993,26.391C651.808,142.556,646.8,144.471,639.583,144.471Zm-10.1-33.931c-.3.9-.633,1.853-.983,2.851-2.711,7.773-6.433,18.42-2.226,24.344,2.257,3.181,6.735,4.793,13.312,4.793,6.549,0,11.024-1.639,13.3-4.867,4.327-6.13.377-17.259-2.241-24.62-.315-.886-.61-1.725-.878-2.509l-4.988,7.291-.012.023a.956.956,0,0,1-1.068.544,19.269,19.269,0,0,0-8.134-.019.978.978,0,0,1-1.006-.4Z" transform="translate(-612.084 -107.387)"/><g transform="translate(0 22.762)"><path class="b" d="M642.256,117.466l-.1-.008-21.512-2.272a.974.974,0,0,1-.862-1.068.954.954,0,0,1,1.068-.862l21.512,2.272a.972.972,0,0,1-.1,1.938Z" transform="translate(-619.772 -113.247)"/><path class="b" d="M620.74,119.266a.971.971,0,0,1-.124-1.934l21.512-2.84a.972.972,0,0,1,.252,1.927l-21.512,2.843C620.826,119.266,620.783,119.266,620.74,119.266Z" transform="translate(-619.772 -109.683)"/><path class="b" d="M628.934,117.466a.972.972,0,0,1-.1-1.938l21.512-2.272a.971.971,0,0,1,.206,1.931l-21.512,2.272Z" transform="translate(-596.14 -113.247)"/><path class="b" d="M650.449,119.266c-.046,0-.085,0-.132,0l-21.508-2.843a.972.972,0,0,1,.252-1.927l21.512,2.84a.971.971,0,0,1-.124,1.934Z" transform="translate(-596.14 -109.683)"/></g></g><g transform="translate(246.74 2828.903) rotate(-11)"><path class="b" d="M562.372,420.08c-.832,0-1.693-.019-2.582-.038-1.926-.037-4.046-.037-5.972,0-4.541.094-8.46.169-10.63-1.967a6.328,6.328,0,0,1-1.671-4.77c0-7.359,6.819-16.246,15.287-16.246s15.287,8.888,15.287,16.246a6.328,6.328,0,0,1-1.671,4.77C568.674,419.791,565.793,420.08,562.372,420.08Zm-5.568-1.948c1.038,0,2.046.019,3.024.041,4.11.064,7.67.15,9.281-1.431a4.6,4.6,0,0,0,1.109-3.436c0-6.471-6.19-14.373-13.414-14.373s-13.413,7.9-13.413,14.373a4.6,4.6,0,0,0,1.109,3.436c1.611,1.581,5.17,1.5,9.281,1.431C554.758,418.15,555.766,418.131,556.8,418.131Z" transform="translate(-536.317 -382.919)"/><path class="b" d="M545.311,408.593c-2.859,0-5.182-2.866-5.182-6.385s2.323-6.388,5.182-6.388,5.178,2.863,5.178,6.388S548.166,408.593,545.311,408.593Zm0-10.9c-1.825,0-3.308,2.027-3.308,4.515s1.484,4.511,3.308,4.511,3.3-2.023,3.3-4.511S547.132,397.694,545.311,397.694Z" transform="translate(-540.129 -386.322)"/><path class="b" d="M553.478,408.593c-2.855,0-5.178-2.866-5.178-6.385s2.323-6.388,5.178-6.388,5.182,2.863,5.182,6.388S556.337,408.593,553.478,408.593Zm0-10.9c-1.821,0-3.3,2.027-3.3,4.515s1.484,4.511,3.3,4.511,3.308-2.023,3.308-4.511S555.3,397.694,553.478,397.694Z" transform="translate(-517.685 -386.322)"/><path class="b" d="M548.473,408.673c-3.421,0-6.2-3.451-6.2-7.7s2.78-7.692,6.2-7.692,6.2,3.451,6.2,7.692S551.89,408.673,548.473,408.673Zm0-13.515c-2.387,0-4.328,2.612-4.328,5.819s1.941,5.822,4.328,5.822,4.324-2.611,4.324-5.822S550.856,395.159,548.473,395.159Z" transform="translate(-534.243 -393.285)"/><path class="b" d="M551.811,408.673c-3.417,0-6.2-3.451-6.2-7.7s2.78-7.692,6.2-7.692,6.2,3.451,6.2,7.692S555.231,408.673,551.811,408.673Zm0-13.515c-2.383,0-4.324,2.612-4.324,5.819s1.941,5.822,4.324,5.822,4.327-2.611,4.327-5.822S554.2,395.159,551.811,395.159Z" transform="translate(-525.066 -393.285)"/></g><g transform="matrix(0.996, -0.087, 0.087, 0.996, 219.009, 1430.876)"><path class="b" d="M527.179,319.388c-3.511,0-6.46-.288-8.215-2.01a6.368,6.368,0,0,1-1.665-4.793c0-7.558,7-16.688,15.686-16.688s15.689,9.13,15.689,16.688a6.369,6.369,0,0,1-1.665,4.793c-2.189,2.146-6.224,2.077-10.9,1.976-2.01-.04-4.228-.04-6.239,0C528.941,319.37,528.043,319.388,527.179,319.388Zm5.807-22.051c-7.892,0-14.246,8.341-14.246,15.248a5.032,5.032,0,0,0,1.233,3.765c1.757,1.722,5.516,1.653,9.865,1.564,2.031-.04,4.269-.04,6.3,0,4.349.089,8.111.158,9.868-1.564a5.031,5.031,0,0,0,1.233-3.765C547.234,305.678,540.877,297.336,532.985,297.336Z" transform="translate(-511.873 -281.146)"/><path class="b" d="M520.562,307.025c-2.837,0-5.147-2.871-5.147-6.406s2.31-6.406,5.147-6.406,5.147,2.872,5.147,6.406S523.4,307.025,520.562,307.025Zm0-11.371c-2.042,0-3.707,2.229-3.707,4.966s1.665,4.966,3.707,4.966,3.707-2.229,3.707-4.966S522.607,295.654,520.562,295.654Z" transform="translate(-515.415 -284.309)"/><path class="b" d="M531.648,307.025c-2.837,0-5.147-2.871-5.147-6.406s2.31-6.406,5.147-6.406,5.147,2.872,5.147,6.406S534.485,307.025,531.648,307.025Zm0-11.371c-2.045,0-3.707,2.229-3.707,4.966s1.662,4.966,3.707,4.966,3.707-2.229,3.707-4.966S533.69,295.654,531.648,295.654Z" transform="translate(-494.57 -284.309)"/><path class="b" d="M524.533,306.311c-3.425,0-6.21-3.485-6.21-7.768s2.785-7.768,6.21-7.768,6.21,3.485,6.21,7.768S527.955,306.311,524.533,306.311Zm0-14.1c-2.63,0-4.77,2.837-4.77,6.328s2.14,6.328,4.77,6.328,4.77-2.837,4.77-6.328S527.163,292.215,524.533,292.215Z" transform="translate(-509.947 -290.775)"/><path class="b" d="M529.066,306.311c-3.425,0-6.21-3.485-6.21-7.768s2.785-7.768,6.21-7.768,6.207,3.485,6.207,7.768S532.488,306.311,529.066,306.311Zm0-14.1c-2.632,0-4.77,2.837-4.77,6.328s2.137,6.328,4.77,6.328,4.767-2.837,4.767-6.328S531.7,292.215,529.066,292.215Z" transform="translate(-501.424 -290.775)"/></g><g transform="translate(818.615 1145.369)"><path class="b" d="M541.064,453.941c-.916,0-1.866-.018-2.846-.04-2.128-.04-4.472-.04-6.6,0-4.931.1-9.205.183-11.519-2.085a6.727,6.727,0,0,1-1.759-5.065c0-7.988,7.4-17.638,16.581-17.638s16.578,9.65,16.578,17.638a6.726,6.726,0,0,1-1.76,5.065C547.883,453.633,544.772,453.941,541.064,453.941Zm-6.146-1.6c1.144,0,2.259.018,3.33.04,4.594.1,8.566.17,10.423-1.65a5.321,5.321,0,0,0,1.3-3.979c0-7.3-6.715-16.116-15.056-16.116s-15.059,8.816-15.059,16.116a5.322,5.322,0,0,0,1.3,3.979c1.857,1.817,5.82,1.75,10.423,1.65C532.66,452.358,533.777,452.34,534.918,452.34Z" transform="translate(-512.605 -413.524)"/><path class="b" d="M521.894,440.966c-3,0-5.44-3.035-5.44-6.767s2.441-6.767,5.44-6.767,5.44,3.035,5.44,6.767S524.893,440.966,521.894,440.966Zm0-12.012c-2.158,0-3.918,2.353-3.918,5.245s1.76,5.245,3.918,5.245,3.918-2.353,3.918-5.245S524.055,428.954,521.894,428.954Z" transform="translate(-516.454 -416.96)"/><path class="b" d="M532.977,440.966c-3,0-5.437-3.035-5.437-6.767s2.438-6.767,5.437-6.767,5.443,3.035,5.443,6.767S535.979,440.966,532.977,440.966Zm0-12.012c-2.158,0-3.915,2.353-3.915,5.245s1.757,5.245,3.915,5.245,3.921-2.353,3.921-5.245S535.138,428.954,532.977,428.954Z" transform="translate(-493.793 -416.96)"/><path class="b" d="M525.922,440.412c-3.617,0-6.56-3.683-6.56-8.21s2.943-8.21,6.56-8.21,6.563,3.683,6.563,8.21S529.542,440.412,525.922,440.412Zm0-14.9c-2.779,0-5.038,3-5.038,6.688s2.259,6.688,5.038,6.688,5.041-3,5.041-6.688S528.7,425.514,525.922,425.514Z" transform="translate(-510.51 -423.992)"/><path class="b" d="M530.457,440.412c-3.616,0-6.563-3.683-6.563-8.21s2.947-8.21,6.563-8.21,6.563,3.683,6.563,8.21S534.077,440.412,530.457,440.412Zm0-14.9c-2.779,0-5.041,3-5.041,6.688s2.262,6.688,5.041,6.688,5.041-3,5.041-6.688S533.237,425.514,530.457,425.514Z" transform="translate(-501.246 -423.992)"/></g><g transform="translate(992.377 4298.261)"><path class="b" d="M664.861,200.6c-8.089,0-13.677-2.092-16.61-6.222-5.325-7.5-.929-20.08,2.279-29.269.675-1.937,1.3-3.731,1.778-5.3a.786.786,0,0,1,.637-.555.8.8,0,0,1,.777.336l6.723,9.826a23.388,23.388,0,0,1,8.907.013l6.732-9.839a.8.8,0,0,1,.776-.336.786.786,0,0,1,.637.555c.422,1.4,1.014,3.059,1.667,4.9,3.09,8.7,7.756,21.852,2.295,29.586C678.5,198.473,672.922,200.6,664.861,200.6Zm-11.528-38.775c-.39,1.182-.837,2.463-1.306,3.807-3.094,8.859-7.332,21-2.482,27.827,2.615,3.686,7.769,5.556,15.316,5.556,7.515,0,12.663-1.9,15.3-5.636,4.992-7.068.488-19.75-2.491-28.144-.434-1.224-.843-2.371-1.192-3.414l-6.006,8.777-.022.051a.758.758,0,0,1-.865.444,21.927,21.927,0,0,0-9.338-.022.814.814,0,0,1-.818-.33Z" transform="translate(-634.048 -159.241)"/><g transform="translate(0 25.759)"><path class="b" d="M667.2,171.528l-.086-.006-24.34-2.574a.792.792,0,0,1,.165-1.575l24.343,2.574a.793.793,0,0,1-.082,1.582Z" transform="translate(-642.066 -167.368)"/><path class="b" d="M642.86,173.882a.793.793,0,0,1-.1-1.578L667.1,169.09a.793.793,0,0,1,.206,1.572l-24.34,3.214A.575.575,0,0,1,642.86,173.882Z" transform="translate(-642.067 -163.649)"/><path class="b" d="M654.22,171.527a.793.793,0,0,1-.082-1.582l24.34-2.574a.808.808,0,0,1,.872.7.789.789,0,0,1-.7.872l-24.34,2.574Z" transform="translate(-617.413 -167.367)"/><path class="b" d="M678.565,173.882a.577.577,0,0,1-.1-.006l-24.34-3.214a.793.793,0,1,1,.206-1.572l24.34,3.214a.792.792,0,0,1-.1,1.578Z" transform="translate(-617.415 -163.649)"/></g></g><g transform="matrix(0.951, 0.309, -0.309, 0.951, 1625.355, 2701.116)"><path class="b" d="M566.623,494.981c-1.064,0-2.172-.024-3.307-.048-2.464-.043-5.177-.043-7.641,0-5.809.115-10.823.216-13.6-2.507-1.438-1.414-2.138-3.408-2.138-6.1,0-9.419,8.724-20.788,19.556-20.788s19.557,11.37,19.557,20.788c0,2.694-.7,4.688-2.138,6.1C574.681,494.617,571,494.981,566.623,494.981Zm-7.128-2.488c1.328,0,2.622.024,3.868.048,5.263.086,9.812.192,11.873-1.826a5.892,5.892,0,0,0,1.419-4.391c0-8.283-7.919-18.392-17.16-18.392s-17.16,10.109-17.16,18.392a5.873,5.873,0,0,0,1.419,4.391c2.061,2.018,6.605,1.917,11.873,1.826C556.874,492.518,558.168,492.494,559.5,492.494Z" transform="translate(-533.286 -447.441)"/><path class="b" d="M545.175,480.641c-3.652,0-6.624-3.667-6.624-8.173s2.972-8.173,6.624-8.173,6.629,3.667,6.629,8.173S548.833,480.641,545.175,480.641Zm0-13.948c-2.329,0-4.228,2.593-4.228,5.776s1.9,5.776,4.228,5.776,4.232-2.588,4.232-5.776S547.51,466.693,545.175,466.693Z" transform="translate(-538.551 -452.145)"/><path class="b" d="M553.347,480.641c-3.653,0-6.624-3.667-6.624-8.173s2.972-8.173,6.624-8.173,6.629,3.667,6.629,8.173S557,480.641,553.347,480.641Zm0-13.948c-2.33,0-4.228,2.593-4.228,5.776s1.9,5.776,4.228,5.776,4.232-2.588,4.232-5.776S555.681,466.693,553.347,466.693Z" transform="translate(-507.556 -452.145)"/><path class="b" d="M548.622,481.452c-4.372,0-7.928-4.415-7.928-9.845s3.557-9.846,7.928-9.846,7.933,4.415,7.933,9.846S553,481.452,548.622,481.452Zm0-17.294c-3.049,0-5.532,3.341-5.532,7.449s2.483,7.449,5.532,7.449,5.536-3.346,5.536-7.449S551.676,464.158,548.622,464.158Z" transform="translate(-530.423 -461.761)"/><path class="b" d="M551.964,481.452c-4.372,0-7.929-4.415-7.929-9.845s3.557-9.846,7.929-9.846,7.932,4.415,7.932,9.846S556.34,481.452,551.964,481.452Zm0-17.294c-3.049,0-5.532,3.341-5.532,7.449s2.483,7.449,5.532,7.449,5.536-3.346,5.536-7.449S555.017,464.158,551.964,464.158Z" transform="translate(-517.749 -461.761)"/></g></g></svg>