<svg xmlns="http://www.w3.org/2000/svg" width="158.187" height="31.62" viewBox="0 0 158.187 31.62"><defs><style>.a{fill:#ff978f;}.b{fill:#fff;}</style></defs><g transform="translate(0 0)"><path class="a" d="M17.914,10.9c1.367.574,1.351,3.083.355,3.926a.955.955,0,0,1-1.421-.121,2.839,2.839,0,0,1,.1-3.452,1.362,1.362,0,0,1,.561-.366.634.634,0,0,1,.4.012" transform="translate(-14.341 -8.89)"/><path class="a" d="M22.738,10.851c1.2.513,1.345,3.029.375,3.9a.958.958,0,0,1-1.452-.1A2.847,2.847,0,0,1,21.77,11.2a1.37,1.37,0,0,1,.565-.361.634.634,0,0,1,.4.012" transform="translate(-15.524 -8.877)"/><path class="a" d="M13.7,16.581c.02-.564.114-.95.52-1.129a.948.948,0,0,1,1.092.3,2.25,2.25,0,0,1,.721,2.182.791.791,0,0,1-1.3.514A2.238,2.238,0,0,1,13.7,16.581" transform="translate(-13.699 -9.999)"/><path class="a" d="M26.23,16.794a2.337,2.337,0,0,1-.86,1.591.971.971,0,0,1-1.107.241.988.988,0,0,1-.477-1.069A2.384,2.384,0,0,1,24.6,15.9a1.02,1.02,0,0,1,1.17-.3c.434.212.486.639.462,1.19" transform="translate(-16.175 -10.032)"/><g transform="translate(3.792 0)"><path class="b" d="M66.813,20.762l3.157.026a.592.592,0,0,1,.587.6L70.395,41.2a.593.593,0,0,1-.6.588l-3.157-.026a.593.593,0,0,1-.588-.6l.163-19.817a.591.591,0,0,1,.6-.588" transform="translate(-30.348 -11.321)"/><path class="b" d="M91.375,21.89a8.158,8.158,0,0,1,3.584,3.686,12.66,12.66,0,0,1,1.255,5.935l-.081,9.908a.592.592,0,0,1-.6.588l-3.157-.026a.592.592,0,0,1-.587-.6l.081-9.908a8.337,8.337,0,0,0-.843-4.135,4.5,4.5,0,0,0-7.485-.125,7.953,7.953,0,0,0-.954,4.034l-.081,10.059a.592.592,0,0,1-.6.587l-3.157-.026a.592.592,0,0,1-.587-.6l.162-19.8a.592.592,0,0,1,.6-.587l3.157.026a.593.593,0,0,1,.588.6l-.006.669q.28-.19.581-.358a9.437,9.437,0,0,1,8.127.066" transform="translate(-33.324 -11.352)"/><path class="b" d="M113.984,38.762a8.642,8.642,0,0,1-5.4-3.488,11.157,11.157,0,0,1-1.955-6.838,11.288,11.288,0,0,1,2.066-6.849,8.653,8.653,0,0,1,5.524-3.355l.215-.063a12.905,12.905,0,0,1,4.191.035l.214.066a7.392,7.392,0,0,1,2.276.89.588.588,0,0,0,.886-.506l.08-9.817a.593.593,0,0,1,.6-.588l3.157.026a.593.593,0,0,1,.588.6L126.177,38.5a.592.592,0,0,1-.6.587l-3.157-.026a.592.592,0,0,1-.587-.6h0a.588.588,0,0,0-.88-.519,7.552,7.552,0,0,1-2.223.852l-.236.04a11.985,11.985,0,0,1-4.278-.035Zm2.508-16.405a4.992,4.992,0,0,0-4.465,1.974,7.449,7.449,0,0,0-1.06,4.141,7.335,7.335,0,0,0,.992,4.135,5.882,5.882,0,0,0,8.875.094,7.228,7.228,0,0,0,1.082-4.119v-.042A7.23,7.23,0,0,0,120.9,24.4a4.971,4.971,0,0,0-4.411-2.046" transform="translate(-40.312 -8.248)"/><path class="b" d="M157.431,33.913,143.663,33.8a.6.6,0,0,0-.577.758q1.053,3.523,5.3,3.558a7.468,7.468,0,0,0,3.342-.678,4.579,4.579,0,0,0,1.787-1.525.588.588,0,0,1,.753-.2l2.834,1.415a.6.6,0,0,1,.241.843,8.463,8.463,0,0,1-3.358,3.166,11.368,11.368,0,0,1-5.636,1.323,9.575,9.575,0,0,1-7.27-2.926,10.548,10.548,0,0,1-2.674-7.657,10.694,10.694,0,0,1,2.736-7.613,9.3,9.3,0,0,1,7.165-2.807,9.241,9.241,0,0,1,9.579,8.355,11.973,11.973,0,0,1,.155,2.033l0,.192-.011,1.29a.592.592,0,0,1-.6.588m-4.744-4.146a.591.591,0,0,0,.569-.776q-1.116-3.164-4.984-3.2t-5.034,3.113a.59.59,0,0,0,.556.785Z" transform="translate(-48.117 -11.491)"/><path class="b" d="M172.6,42.644l-3.157-.026a.592.592,0,0,1-.587-.6l.162-19.774a.592.592,0,0,1,.6-.588l3.157.026a.592.592,0,0,1,.587.6.588.588,0,0,0,.881.518,7.84,7.84,0,0,1,2.244-.871l.214-.041a11.223,11.223,0,0,1,1.507-.164.6.6,0,0,1,.628.6l-.026,3.161a.587.587,0,0,1-.546.585,4.757,4.757,0,0,0-3.9,1.962,7.228,7.228,0,0,0-1.083,4.119l-.081,9.908a.591.591,0,0,1-.6.588" transform="translate(-55.595 -11.542)"/><path class="b" d="M205.062,22.488l-.026,3.221a.592.592,0,0,1-.158.4L194.356,37.478a.592.592,0,0,0,.43.994l9.66.079a.592.592,0,0,1,.587.6l-.026,3.157a.593.593,0,0,1-.6.588l-16.544-.136a.592.592,0,0,1-.588-.6l.026-3.2a.594.594,0,0,1,.157-.4L197.984,27.17a.592.592,0,0,0-.43-.994l-9.3-.076a.592.592,0,0,1-.588-.6l.026-3.157a.592.592,0,0,1,.6-.588l16.182.132a.593.593,0,0,1,.588.6" transform="translate(-60.118 -11.566)"/><path class="b" d="M49.371,25.253a8.221,8.221,0,0,0-3.611-3.715,9.51,9.51,0,0,0-8.19-.067,6.376,6.376,0,0,0-1.986,1.648.856.856,0,0,1-1.3.039,7.778,7.778,0,0,0-2.255-1.733,9.51,9.51,0,0,0-8.19-.067c-.107.06-.207.127-.311.192.1.173.209.343.315.526a1.865,1.865,0,0,1,.286,1.624,1.939,1.939,0,0,1-1.365,1.031s-.037.014-.049.017a2.011,2.011,0,0,1-.953-.053c-.072-.023-.139-.06-.21-.087a2.667,2.667,0,0,1-.537-.265A2.044,2.044,0,0,0,19.482,24a4.6,4.6,0,0,0-.62.16l-.136,16.57a.825.825,0,0,0,.818.831l2.726.022a.824.824,0,0,0,.831-.818l.081-9.908a8.009,8.009,0,0,1,.96-4.066,4.017,4.017,0,0,1,3.765-1.952,4.028,4.028,0,0,1,3.777,2.078,8.409,8.409,0,0,1,.849,4.167l-.08,9.757a.825.825,0,0,0,.818.831L36,41.7a.825.825,0,0,0,.832-.818l.079-9.757v-.086a8.364,8.364,0,0,1,.939-4.109,4.056,4.056,0,0,1,3.788-1.974,4.028,4.028,0,0,1,3.776,2.078,8.228,8.228,0,0,1,.871,4.167l-.08,9.757a.824.824,0,0,0,.818.831l2.7.022a.824.824,0,0,0,.831-.818l.08-9.757a12.748,12.748,0,0,0-1.266-5.98" transform="translate(-18.726 -11.248)"/></g><path class="a" d="M21.978,21.345c-.333-.578-.662-1.09-.994-1.559-.177-.25-.355-.491-.534-.715a1.587,1.587,0,0,0-1.2-.566,1.623,1.623,0,0,0-1.215.481A16.991,16.991,0,0,0,16.364,21.2a1.083,1.083,0,0,0-.251.852c.066.209.293.392.694.556a1.015,1.015,0,0,0,.538.017,4.005,4.005,0,0,1,.4-.143c.216-.081.439-.156.665-.222a3.748,3.748,0,0,1,.407-.1,2.123,2.123,0,0,1,1.6.356,1.735,1.735,0,0,0,.333.16c.047.019.1.036.142.058a1.147,1.147,0,0,0,1.28-.505,1.079,1.079,0,0,0-.2-.877" transform="translate(-14.286 -10.766)"/><path class="a" d="M217.675,46.59a2.152,2.152,0,1,1,2.134,2.169,2.152,2.152,0,0,1-2.134-2.169" transform="translate(-63.791 -17.14)"/></g></svg>