<svg xmlns="http://www.w3.org/2000/svg" width="63" height="63" viewBox="0 0 63 63"><defs><style>.a{fill:#19147c;}.b{fill:#fff;stroke:#fff;stroke-width:0.5px;}</style></defs><g transform="translate(-982 -2807)"><circle class="a" cx="31.5" cy="31.5" r="31.5" transform="translate(982 2807)"/><path class="b" d="M25.828,7.552,15.2,1.5a.788.788,0,0,0-.774,0L3.789,7.552A2.086,2.086,0,0,0,2.735,9.363v3.646A15.391,15.391,0,0,0,9.919,26.071l3.773,2.391a2.094,2.094,0,0,0,2.231,0h0L19.7,26.071A15.391,15.391,0,0,0,26.88,13.009V9.363A2.078,2.078,0,0,0,25.828,7.552Zm-.511,5.458a13.837,13.837,0,0,1-6.458,11.741l-3.773,2.391a.528.528,0,0,1-.559,0l-3.773-2.391A13.833,13.833,0,0,1,4.3,13.009V9.363a.521.521,0,0,1,.263-.453L14.809,3.081,25.055,8.91a.521.521,0,0,1,.263.453v3.646Zm-5.13-1.546a.783.783,0,0,1,0,1.106l-6.393,6.393a.78.78,0,0,1-1.105,0L9.431,15.706A.782.782,0,0,1,10.537,14.6L13.242,17.3l5.841-5.841A.778.778,0,0,1,20.187,11.464Z" transform="translate(998.874 2823.154)"/></g></svg>