<svg xmlns="http://www.w3.org/2000/svg" width="440.23" height="5578.173" viewBox="0 0 440.23 5578.173"><defs><style>.a{opacity:0.277;}.b{fill:#008cff;}.c{fill:#fff;}</style></defs><g class="a" transform="translate(-218.994 -888.438)"><g transform="matrix(0.966, -0.259, 0.259, 0.966, 228.229, 3627.556)"><path class="b" d="M16.267,35.181c-6.869,0-11.623-1.791-14.132-5.325C-2.406,23.463,1.3,12.842,4.01,5.088,4.577,3.467,5.1,1.967,5.5.655A.914.914,0,0,1,6.239.01a.937.937,0,0,1,.9.391l5.539,8.1a19.8,19.8,0,0,1,7.234.011L25.465.4a.934.934,0,0,1,.9-.391.914.914,0,0,1,.741.645c.354,1.168.848,2.557,1.393,4.1,2.605,7.341,6.545,18.441,1.891,25.033C27.864,33.365,23.11,35.181,16.267,35.181ZM6.682,2.991c-.284.855-.6,1.758-.932,2.7C3.177,13.07-.353,23.171,3.638,28.791c2.141,3.018,6.39,4.548,12.629,4.548,6.21,0,10.459-1.555,12.618-4.614,4.105-5.815.361-16.373-2.119-23.357-.3-.84-.582-1.64-.837-2.384L21.2,9.9l-.011.022a.926.926,0,0,1-1.014.516,18.179,18.179,0,0,0-7.72-.018.921.921,0,0,1-.951-.38Z" transform="translate(9.822)"/><g transform="translate(0 21.596)"><path class="b" d="M21.331,4l-.1-.007L.823,1.837a.921.921,0,1,1,.2-1.832L21.427,2.161A.922.922,0,0,1,21.331,4Z"/><path class="b" d="M.918,4.536A.922.922,0,0,1,.8,2.7L21.209.007a.922.922,0,0,1,.24,1.828L1.04,4.533C1,4.536.962,4.536.918,4.536Z" transform="translate(0.001 4.553)"/><path class="b" d="M.92,4a.922.922,0,0,1-.1-1.839L21.228,0a.935.935,0,0,1,1.014.818.922.922,0,0,1-.818,1.013L1.019,3.992Z" transform="translate(30.192 0.001)"/><path class="b" d="M21.326,4.536c-.04,0-.081,0-.121,0L.8,1.835A.922.922,0,0,1,1.04.007L21.445,2.7a.921.921,0,0,1-.118,1.835Z" transform="translate(30.193 4.553)"/></g></g><g transform="translate(296.688 4268.861)"><path class="b" d="M755.068,206.672a5.708,5.708,0,0,1-4.575-9.119l-13.535-11.428a.426.426,0,0,1-.136-.074l-12.89-10.883a5.708,5.708,0,0,1-7.815.422l-.019-.021a5.677,5.677,0,0,1-1.539-6.546,5.586,5.586,0,0,1,4.767-3.466,5.708,5.708,0,0,1,9.35-4.846,5.723,5.723,0,0,1,.9,7.777l12.557,10.6a.494.494,0,0,1,.136.074l13.867,11.709a5.7,5.7,0,1,1,4.608,9.613,5.67,5.67,0,0,1-5.674,6.19Zm-17.734-21.428a.481.481,0,0,1,.138.074l14,11.818a.47.47,0,0,1,.04.685,4.759,4.759,0,1,0,8.229,2.291.476.476,0,0,1,.1-.39.482.482,0,0,1,.367-.168h.061a4.748,4.748,0,1,0-3.642-7.815.6.6,0,0,1-.356.225.531.531,0,0,1-.382-.064l-14.136-11.934a.411.411,0,0,1-.136-.074L728.6,168.905a.477.477,0,0,1-.167-.327.467.467,0,0,1,.117-.348c.013-.015.072-.072.087-.085a4.769,4.769,0,0,0-.572-6.709,4.747,4.747,0,0,0-7.737,4.49.467.467,0,0,1-.1.39.493.493,0,0,1-.367.168H719.8a4.757,4.757,0,0,0-3.091,8.364h0l.061.061a4.765,4.765,0,0,0,6.667-.61.866.866,0,0,1,.072-.1.475.475,0,0,1,.322-.167.422.422,0,0,1,.346.108Z" transform="translate(-714.105 -159.381)"/><path class="b" d="M721.524,179.61c-2.37,0-4.227-1.248-4.227-2.84s1.857-2.84,4.227-2.84,4.225,1.248,4.225,2.84S723.895,179.61,721.524,179.61Zm0-4.733c-1.78,0-3.281.867-3.281,1.893s1.5,1.893,3.281,1.893,3.279-.867,3.279-1.893S723.3,174.878,721.524,174.878Z" transform="translate(-711.254 -146.387)"/><path class="b" d="M721.569,180.19a4.321,4.321,0,0,1-3.62-1.4,4.084,4.084,0,0,1-.593-3.247.473.473,0,1,1,.916.233,3.182,3.182,0,0,0,.43,2.44,4.494,4.494,0,0,0,5.732,0,3.173,3.173,0,0,0,.428-2.438.477.477,0,0,1,.341-.576.467.467,0,0,1,.576.343,4.084,4.084,0,0,1-.593,3.247A4.316,4.316,0,0,1,721.569,180.19Z" transform="translate(-711.299 -145.27)"/><path class="b" d="M728.064,183.351c-2.37,0-4.229-1.248-4.229-2.84s1.859-2.84,4.229-2.84,4.226,1.248,4.226,2.84S730.434,183.351,728.064,183.351Zm0-4.733c-1.779,0-3.282.867-3.282,1.893s1.5,1.893,3.282,1.893,3.279-.867,3.279-1.893S729.842,178.619,728.064,178.619Z" transform="translate(-705.415 -143.046)"/><path class="b" d="M728.109,183.932a4.318,4.318,0,0,1-3.617-1.4,4.084,4.084,0,0,1-.6-3.25.473.473,0,1,1,.916.233,3.18,3.18,0,0,0,.43,2.44,4.489,4.489,0,0,0,5.736,0,3.156,3.156,0,0,0,.426-2.436.473.473,0,0,1,.343-.576.478.478,0,0,1,.574.343,4.092,4.092,0,0,1-.593,3.25A4.326,4.326,0,0,1,728.109,183.932Z" transform="translate(-705.46 -141.928)"/><path class="b" d="M722.7,186.651c-1.855,0-3.305-.992-3.305-2.258s1.45-2.26,3.305-2.26,3.305.994,3.305,2.26S724.553,186.651,722.7,186.651Zm0-3.572c-1.389,0-2.359.691-2.359,1.314s.969,1.312,2.359,1.312,2.359-.691,2.359-1.312S724.089,183.079,722.7,183.079Z" transform="translate(-709.381 -139.063)"/><path class="b" d="M722.733,187.087a3.369,3.369,0,0,1-2.821-1.1,3.21,3.21,0,0,1-.47-2.552.472.472,0,0,1,.916.231,2.283,2.283,0,0,0,.3,1.744,3.287,3.287,0,0,0,4.142,0,2.281,2.281,0,0,0,.3-1.744.473.473,0,0,1,.916-.231,3.207,3.207,0,0,1-.468,2.552A3.379,3.379,0,0,1,722.733,187.087Z" transform="translate(-709.414 -138.219)"/></g><g transform="translate(598.688 1785.641)"><path class="b" d="M761.774,214.414a6.642,6.642,0,0,1-5.324-10.612L740.7,190.5a.5.5,0,0,1-.159-.086l-15-12.665a6.642,6.642,0,0,1-9.094.491l-.022-.024a6.607,6.607,0,0,1-1.791-7.618,6.5,6.5,0,0,1,5.547-4.034,6.643,6.643,0,0,1,10.88-5.64,6.66,6.66,0,0,1,1.046,9.05l14.612,12.334a.575.575,0,0,1,.159.086l16.137,13.625a6.632,6.632,0,1,1,5.362,11.187,6.6,6.6,0,0,1-6.6,7.2Zm-20.637-24.935a.558.558,0,0,1,.161.086l16.287,13.753a.547.547,0,0,1,.046.8,5.538,5.538,0,1,0,9.576,2.666.554.554,0,0,1,.121-.454.561.561,0,0,1,.427-.2h.07a5.525,5.525,0,1,0-4.239-9.094.7.7,0,0,1-.414.262.618.618,0,0,1-.445-.075l-16.45-13.888a.479.479,0,0,1-.159-.086l-15.148-12.786a.555.555,0,0,1-.194-.381.544.544,0,0,1,.137-.405c.016-.018.084-.084.1-.1a5.55,5.55,0,0,0-.665-7.807,5.524,5.524,0,0,0-9,5.225.543.543,0,0,1-.121.454.573.573,0,0,1-.427.2h-.064a5.536,5.536,0,0,0-3.6,9.733h0l.07.07a5.546,5.546,0,0,0,7.759-.709,1,1,0,0,1,.084-.119.553.553,0,0,1,.375-.194.491.491,0,0,1,.4.126Z" transform="translate(-714.105 -159.381)"/><path class="b" d="M722.216,180.54c-2.758,0-4.919-1.452-4.919-3.3s2.161-3.3,4.919-3.3,4.917,1.452,4.917,3.3S724.975,180.54,722.216,180.54Zm0-5.507c-2.071,0-3.818,1.009-3.818,2.2s1.747,2.2,3.818,2.2,3.816-1.009,3.816-2.2S724.285,175.033,722.216,175.033Z" transform="translate(-710.264 -141.877)"/><path class="b" d="M722.277,181.01a5.028,5.028,0,0,1-4.212-1.635,4.752,4.752,0,0,1-.69-3.778.55.55,0,1,1,1.066.271,3.7,3.7,0,0,0,.5,2.84,5.229,5.229,0,0,0,6.671,0,3.692,3.692,0,0,0,.5-2.837.555.555,0,0,1,.4-.67.543.543,0,0,1,.67.4,4.752,4.752,0,0,1-.69,3.778A5.023,5.023,0,0,1,722.277,181.01Z" transform="translate(-710.325 -140.374)"/><path class="b" d="M728.757,184.281c-2.758,0-4.921-1.452-4.921-3.3s2.163-3.3,4.921-3.3,4.917,1.452,4.917,3.3S731.515,184.281,728.757,184.281Zm0-5.507c-2.071,0-3.82,1.009-3.82,2.2s1.749,2.2,3.82,2.2,3.816-1.009,3.816-2.2S730.825,178.774,728.757,178.774Z" transform="translate(-702.399 -137.377)"/><path class="b" d="M728.817,184.752a5.026,5.026,0,0,1-4.21-1.632,4.752,4.752,0,0,1-.694-3.783.55.55,0,1,1,1.066.271,3.7,3.7,0,0,0,.5,2.84,5.224,5.224,0,0,0,6.675,0,3.672,3.672,0,0,0,.5-2.835.551.551,0,0,1,.4-.67.557.557,0,0,1,.668.4,4.762,4.762,0,0,1-.69,3.783A5.034,5.034,0,0,1,728.817,184.752Z" transform="translate(-702.46 -135.872)"/><path class="b" d="M723.241,187.391c-2.159,0-3.847-1.154-3.847-2.628s1.688-2.63,3.847-2.63,3.846,1.157,3.846,2.63S725.4,187.391,723.241,187.391Zm0-4.157c-1.617,0-2.745.8-2.745,1.529s1.128,1.527,2.745,1.527,2.745-.8,2.745-1.527S724.858,183.234,723.241,183.234Z" transform="translate(-707.742 -132.012)"/><path class="b" d="M723.286,187.744A3.921,3.921,0,0,1,720,186.46a3.736,3.736,0,0,1-.547-2.97.55.55,0,0,1,1.066.269,2.657,2.657,0,0,0,.353,2.029,3.825,3.825,0,0,0,4.82,0,2.654,2.654,0,0,0,.352-2.029.55.55,0,0,1,1.066-.269,3.731,3.731,0,0,1-.544,2.97A3.932,3.932,0,0,1,723.286,187.744Z" transform="translate(-707.787 -130.876)"/></g><g transform="translate(601.317 1308.474)"><path class="c" d="M759.815,212.153a6.369,6.369,0,0,1-5.106-10.176l-15.1-12.753a.477.477,0,0,1-.152-.082L725.07,177a6.369,6.369,0,0,1-8.72.471l-.021-.023a6.335,6.335,0,0,1-1.717-7.3,6.233,6.233,0,0,1,5.319-3.868,6.37,6.37,0,0,1,10.434-5.408,6.387,6.387,0,0,1,1,8.678l14.012,11.828a.553.553,0,0,1,.152.082L761,194.518a6.359,6.359,0,1,1,5.142,10.727,6.327,6.327,0,0,1-6.331,6.908Zm-19.789-23.911a.537.537,0,0,1,.154.082L755.8,201.512a.524.524,0,0,1,.044.765,5.311,5.311,0,1,0,9.183,2.556.531.531,0,0,1,.116-.435.538.538,0,0,1,.41-.188h.068a5.3,5.3,0,1,0-4.064-8.72.674.674,0,0,1-.4.251.592.592,0,0,1-.427-.072l-15.774-13.317a.46.46,0,0,1-.152-.082l-14.525-12.261a.532.532,0,0,1-.186-.365.521.521,0,0,1,.131-.389c.015-.017.08-.08.1-.1a5.322,5.322,0,0,0-.638-7.487,5.3,5.3,0,0,0-8.634,5.011.521.521,0,0,1-.116.435.55.55,0,0,1-.41.188h-.061a5.308,5.308,0,0,0-3.45,9.333h0l.068.068a5.318,5.318,0,0,0,7.44-.68.961.961,0,0,1,.081-.114.53.53,0,0,1,.359-.186.471.471,0,0,1,.387.12Z" transform="translate(-714.105 -159.381)"/><path class="c" d="M722.014,180.268c-2.645,0-4.717-1.392-4.717-3.169s2.072-3.169,4.717-3.169,4.715,1.392,4.715,3.169S724.659,180.268,722.014,180.268Zm0-5.281c-1.986,0-3.661.968-3.661,2.112s1.675,2.112,3.661,2.112,3.659-.967,3.659-2.112S724,174.987,722.014,174.987Z" transform="translate(-710.553 -143.194)"/><path class="c" d="M722.07,180.771a4.821,4.821,0,0,1-4.039-1.567,4.557,4.557,0,0,1-.661-3.623.527.527,0,1,1,1.022.26,3.551,3.551,0,0,0,.479,2.723,5.015,5.015,0,0,0,6.4,0,3.541,3.541,0,0,0,.478-2.721.532.532,0,0,1,.38-.642.521.521,0,0,1,.642.382,4.557,4.557,0,0,1-.661,3.623A4.817,4.817,0,0,1,722.07,180.771Z" transform="translate(-710.609 -141.804)"/><path class="c" d="M728.554,184.009c-2.645,0-4.719-1.392-4.719-3.169s2.074-3.169,4.719-3.169,4.715,1.392,4.715,3.169S731.2,184.009,728.554,184.009Zm0-5.281c-1.986,0-3.663.967-3.663,2.112s1.677,2.112,3.663,2.112,3.659-.967,3.659-2.112S730.538,178.728,728.554,178.728Z" transform="translate(-703.28 -139.033)"/><path class="c" d="M728.61,184.513a4.819,4.819,0,0,1-4.037-1.565,4.557,4.557,0,0,1-.666-3.627.528.528,0,1,1,1.023.26,3.548,3.548,0,0,0,.479,2.723,5.01,5.01,0,0,0,6.4,0,3.522,3.522,0,0,0,.476-2.719.528.528,0,0,1,.382-.642.534.534,0,0,1,.64.382,4.567,4.567,0,0,1-.661,3.627A4.827,4.827,0,0,1,728.61,184.513Z" transform="translate(-703.336 -137.641)"/><path class="c" d="M723.083,187.175c-2.07,0-3.688-1.107-3.688-2.52s1.618-2.522,3.688-2.522,3.688,1.109,3.688,2.522S725.151,187.175,723.083,187.175Zm0-3.986c-1.55,0-2.632.771-2.632,1.466s1.082,1.464,2.632,1.464,2.632-.771,2.632-1.464S724.633,183.188,723.083,183.188Z" transform="translate(-708.221 -134.071)"/><path class="c" d="M723.124,187.552a3.76,3.76,0,0,1-3.147-1.232,3.582,3.582,0,0,1-.524-2.848.527.527,0,0,1,1.022.258,2.548,2.548,0,0,0,.338,1.946,3.668,3.668,0,0,0,4.622,0,2.546,2.546,0,0,0,.338-1.946.527.527,0,0,1,1.022-.258,3.578,3.578,0,0,1-.522,2.848A3.77,3.77,0,0,1,723.124,187.552Z" transform="translate(-708.262 -133.021)"/></g><g transform="translate(571.023 2707.699)"><path class="b" d="M744.725,194.731a4.267,4.267,0,0,1-3.42-6.816l-10.118-8.543a.318.318,0,0,1-.1-.055l-9.635-8.135a4.267,4.267,0,0,1-5.841.316l-.014-.016a4.244,4.244,0,0,1-1.15-4.893A4.175,4.175,0,0,1,718.007,164,4.267,4.267,0,0,1,725,160.374a4.278,4.278,0,0,1,.672,5.813l9.386,7.923a.369.369,0,0,1,.1.055l10.365,8.752a4.26,4.26,0,1,1,3.444,7.186,4.238,4.238,0,0,1-4.241,4.627Zm-13.256-16.017a.358.358,0,0,1,.1.055l10.462,8.834a.351.351,0,0,1,.03.512,3.557,3.557,0,1,0,6.151,1.712.356.356,0,0,1,.078-.292.36.36,0,0,1,.275-.126h.045a3.549,3.549,0,1,0-2.723-5.841.452.452,0,0,1-.266.168.4.4,0,0,1-.286-.048l-10.566-8.921a.308.308,0,0,1-.1-.055l-9.73-8.213a.356.356,0,0,1-.125-.245.349.349,0,0,1,.088-.26c.01-.011.054-.054.065-.064a3.565,3.565,0,0,0-.427-5.015,3.548,3.548,0,0,0-5.783,3.357.35.35,0,0,1-.078.292.368.368,0,0,1-.274.126h-.041a3.556,3.556,0,0,0-2.311,6.252h0l.045.045a3.562,3.562,0,0,0,4.984-.456.656.656,0,0,1,.054-.076.355.355,0,0,1,.241-.125.316.316,0,0,1,.259.081Z" transform="translate(-714.105 -159.381)"/><path class="b" d="M720.457,178.176c-1.772,0-3.16-.933-3.16-2.123s1.388-2.123,3.16-2.123,3.158.933,3.158,2.123S722.229,178.176,720.457,178.176Zm0-3.538c-1.33,0-2.452.648-2.452,1.415s1.122,1.415,2.452,1.415,2.451-.648,2.451-1.415S721.786,174.639,720.457,174.639Z" transform="translate(-712.78 -153.342)"/><path class="b" d="M720.478,178.925a3.23,3.23,0,0,1-2.706-1.05,3.052,3.052,0,0,1-.443-2.427.353.353,0,1,1,.685.174,2.378,2.378,0,0,0,.321,1.824,3.359,3.359,0,0,0,4.285,0,2.372,2.372,0,0,0,.32-1.823.356.356,0,0,1,.255-.43.349.349,0,0,1,.43.256,3.053,3.053,0,0,1-.443,2.427A3.226,3.226,0,0,1,720.478,178.925Z" transform="translate(-712.801 -152.823)"/><path class="b" d="M727,181.917c-1.772,0-3.161-.933-3.161-2.123s1.39-2.123,3.161-2.123,3.159.933,3.159,2.123S728.768,181.917,727,181.917Zm0-3.538c-1.33,0-2.454.648-2.454,1.415s1.124,1.415,2.454,1.415,2.451-.648,2.451-1.415S728.325,178.38,727,178.38Z" transform="translate(-710.066 -151.789)"/><path class="b" d="M727.017,182.667a3.228,3.228,0,0,1-2.7-1.049,3.052,3.052,0,0,1-.446-2.43.353.353,0,1,1,.685.174,2.377,2.377,0,0,0,.321,1.824,3.356,3.356,0,0,0,4.288,0,2.359,2.359,0,0,0,.319-1.821.354.354,0,0,1,.256-.43.358.358,0,0,1,.429.256,3.059,3.059,0,0,1-.443,2.43A3.234,3.234,0,0,1,727.017,182.667Z" transform="translate(-710.087 -151.27)"/><path class="b" d="M721.865,185.51c-1.387,0-2.471-.742-2.471-1.688s1.084-1.69,2.471-1.69,2.471.743,2.471,1.69S723.25,185.51,721.865,185.51Zm0-2.67c-1.039,0-1.763.516-1.763.982s.725.981,1.763.981,1.763-.516,1.763-.981S722.9,182.84,721.865,182.84Z" transform="translate(-711.909 -149.938)"/><path class="b" d="M721.88,186.075a2.519,2.519,0,0,1-2.108-.825,2.4,2.4,0,0,1-.351-1.908.353.353,0,0,1,.685.173,1.706,1.706,0,0,0,.226,1.3,2.457,2.457,0,0,0,3.1,0,1.705,1.705,0,0,0,.226-1.3.353.353,0,0,1,.685-.173,2.4,2.4,0,0,1-.35,1.908A2.526,2.526,0,0,1,721.88,186.075Z" transform="translate(-711.925 -149.546)"/></g><g transform="translate(491.523 3986.692)"><path class="b" d="M756.115,207.881a5.854,5.854,0,0,1-4.692-9.352l-13.882-11.721a.436.436,0,0,1-.14-.076l-13.22-11.162a5.854,5.854,0,0,1-8.015.433l-.019-.021a5.822,5.822,0,0,1-1.578-6.714,5.729,5.729,0,0,1,4.889-3.555,5.854,5.854,0,0,1,9.589-4.97,5.87,5.87,0,0,1,.922,7.976l12.878,10.87a.506.506,0,0,1,.14.076l14.221,12.008a5.844,5.844,0,1,1,4.725,9.859,5.815,5.815,0,0,1-5.819,6.349Zm-18.188-21.976a.492.492,0,0,1,.142.076L752.423,198.1a.482.482,0,0,1,.041.7,4.881,4.881,0,1,0,8.44,2.349.488.488,0,0,1,.107-.4.494.494,0,0,1,.377-.173h.062a4.869,4.869,0,1,0-3.735-8.014.62.62,0,0,1-.365.231.545.545,0,0,1-.392-.066l-14.5-12.239a.423.423,0,0,1-.14-.076l-13.35-11.268a.489.489,0,0,1-.171-.336.479.479,0,0,1,.12-.357c.014-.016.074-.074.089-.087a4.891,4.891,0,0,0-.586-6.881,4.868,4.868,0,0,0-7.935,4.605.479.479,0,0,1-.107.4.505.505,0,0,1-.377.173h-.056a4.878,4.878,0,0,0-3.17,8.577h0l.062.062a4.887,4.887,0,0,0,6.838-.625.883.883,0,0,1,.074-.1.487.487,0,0,1,.33-.171.433.433,0,0,1,.355.111Z" transform="translate(-714.105 -159.381)"/><path class="b" d="M721.633,179.756c-2.431,0-4.335-1.279-4.335-2.912s1.9-2.912,4.335-2.912,4.333,1.279,4.333,2.912S724.063,179.756,721.633,179.756Zm0-4.854c-1.825,0-3.365.889-3.365,1.941s1.54,1.941,3.365,1.941S725,177.9,725,176.843,723.456,174.9,721.633,174.9Z" transform="translate(-711.099 -145.682)"/><path class="b" d="M721.68,180.318a4.431,4.431,0,0,1-3.712-1.441,4.188,4.188,0,0,1-.608-3.33.485.485,0,1,1,.94.239,3.263,3.263,0,0,0,.441,2.5,4.609,4.609,0,0,0,5.879,0,3.254,3.254,0,0,0,.439-2.5.489.489,0,0,1,.349-.59.479.479,0,0,1,.59.351,4.188,4.188,0,0,1-.608,3.33A4.427,4.427,0,0,1,721.68,180.318Z" transform="translate(-711.147 -144.505)"/><path class="b" d="M728.172,183.5c-2.431,0-4.337-1.279-4.337-2.912s1.906-2.912,4.337-2.912,4.333,1.279,4.333,2.912S730.6,183.5,728.172,183.5Zm0-4.854c-1.825,0-3.366.889-3.366,1.941s1.542,1.941,3.366,1.941,3.363-.889,3.363-1.941S730,178.643,728.172,178.643Z" transform="translate(-704.944 -142.16)"/><path class="b" d="M728.219,184.06a4.429,4.429,0,0,1-3.71-1.439,4.188,4.188,0,0,1-.612-3.334.485.485,0,1,1,.94.239,3.261,3.261,0,0,0,.441,2.5,4.6,4.6,0,0,0,5.882,0,3.237,3.237,0,0,0,.437-2.5.485.485,0,0,1,.351-.59.491.491,0,0,1,.588.351,4.2,4.2,0,0,1-.608,3.334A4.436,4.436,0,0,1,728.219,184.06Z" transform="translate(-704.991 -140.982)"/><path class="b" d="M722.784,186.766c-1.9,0-3.39-1.017-3.39-2.316s1.487-2.318,3.39-2.318,3.39,1.019,3.39,2.318S724.685,186.766,722.784,186.766Zm0-3.664c-1.425,0-2.419.709-2.419,1.347s.994,1.345,2.419,1.345,2.419-.709,2.419-1.345S724.209,183.1,722.784,183.1Z" transform="translate(-709.125 -137.961)"/><path class="b" d="M722.819,187.19a3.456,3.456,0,0,1-2.893-1.132,3.293,3.293,0,0,1-.482-2.617.485.485,0,0,1,.94.237,2.341,2.341,0,0,0,.311,1.788,3.371,3.371,0,0,0,4.248,0,2.339,2.339,0,0,0,.311-1.788.485.485,0,0,1,.94-.237,3.289,3.289,0,0,1-.48,2.617A3.465,3.465,0,0,1,722.819,187.19Z" transform="translate(-709.16 -137.072)"/></g><g transform="translate(372.451 5996.212) rotate(-19)"><path class="b" d="M9.879,23.49c-3.511,0-6.46-.291-8.214-2.01A6.369,6.369,0,0,1,0,16.688C0,9.127,7,0,15.686,0S31.373,9.127,31.373,16.688a6.368,6.368,0,0,1-1.665,4.793c-2.189,2.146-6.227,2.074-10.9,1.973-2.01-.04-4.228-.04-6.238,0C11.642,23.473,10.743,23.49,9.879,23.49ZM15.686,1.44C7.794,1.44,1.44,9.781,1.44,16.688a5.024,5.024,0,0,0,1.233,3.762c1.757,1.725,5.518,1.659,9.864,1.564,2.031-.04,4.268-.04,6.3,0,4.352.1,8.114.161,9.868-1.564a5.024,5.024,0,0,0,1.233-3.762C29.934,9.781,23.577,1.44,15.686,1.44Z" transform="translate(5.423 14.755)"/><path class="b" d="M5.144,12.808C2.307,12.808,0,9.937,0,6.405S2.307,0,5.144,0s5.147,2.872,5.147,6.405S7.981,12.808,5.144,12.808Zm0-11.368c-2.042,0-3.7,2.226-3.7,4.965s1.662,4.962,3.7,4.962S8.851,9.142,8.851,6.405,7.189,1.44,5.144,1.44Z" transform="translate(0 9.911)"/><path class="b" d="M5.147,12.808C2.31,12.808,0,9.937,0,6.405S2.31,0,5.147,0s5.147,2.872,5.147,6.405S7.984,12.808,5.147,12.808Zm0-11.368C3.1,1.44,1.44,3.666,1.44,6.405S3.1,11.368,5.147,11.368,8.854,9.142,8.854,6.405,7.192,1.44,5.147,1.44Z" transform="translate(31.927 9.911)"/><path class="b" d="M6.207,15.539C2.785,15.539,0,12.053,0,7.771S2.785,0,6.207,0s6.212,3.485,6.212,7.771S9.631,15.539,6.207,15.539Zm0-14.1C3.577,1.44,1.44,4.28,1.44,7.771S3.577,14.1,6.207,14.1s4.772-2.837,4.772-6.328S8.839,1.44,6.207,1.44Z" transform="translate(8.373)"/><path class="b" d="M6.213,15.539C2.788,15.539,0,12.053,0,7.771S2.788,0,6.213,0s6.207,3.485,6.207,7.771S9.634,15.539,6.213,15.539Zm0-14.1C3.583,1.44,1.44,4.28,1.44,7.771S3.583,14.1,6.213,14.1s4.767-2.837,4.767-6.328S8.842,1.44,6.213,1.44Z" transform="translate(21.426)"/></g><g transform="translate(560.451 6432.212) rotate(-19)"><path class="b" d="M9.879,23.49c-3.511,0-6.46-.291-8.214-2.01A6.369,6.369,0,0,1,0,16.688C0,9.127,7,0,15.686,0S31.373,9.127,31.373,16.688a6.368,6.368,0,0,1-1.665,4.793c-2.189,2.146-6.227,2.074-10.9,1.973-2.01-.04-4.228-.04-6.238,0C11.642,23.473,10.743,23.49,9.879,23.49ZM15.686,1.44C7.794,1.44,1.44,9.781,1.44,16.688a5.024,5.024,0,0,0,1.233,3.762c1.757,1.725,5.518,1.659,9.864,1.564,2.031-.04,4.268-.04,6.3,0,4.352.1,8.114.161,9.868-1.564a5.024,5.024,0,0,0,1.233-3.762C29.934,9.781,23.577,1.44,15.686,1.44Z" transform="translate(5.423 14.755)"/><path class="b" d="M5.144,12.808C2.307,12.808,0,9.937,0,6.405S2.307,0,5.144,0s5.147,2.872,5.147,6.405S7.981,12.808,5.144,12.808Zm0-11.368c-2.042,0-3.7,2.226-3.7,4.965s1.662,4.962,3.7,4.962S8.851,9.142,8.851,6.405,7.189,1.44,5.144,1.44Z" transform="translate(0 9.911)"/><path class="b" d="M5.147,12.808C2.31,12.808,0,9.937,0,6.405S2.31,0,5.147,0s5.147,2.872,5.147,6.405S7.984,12.808,5.147,12.808Zm0-11.368C3.1,1.44,1.44,3.666,1.44,6.405S3.1,11.368,5.147,11.368,8.854,9.142,8.854,6.405,7.192,1.44,5.147,1.44Z" transform="translate(31.927 9.911)"/><path class="b" d="M6.207,15.539C2.785,15.539,0,12.053,0,7.771S2.785,0,6.207,0s6.212,3.485,6.212,7.771S9.631,15.539,6.207,15.539Zm0-14.1C3.577,1.44,1.44,4.28,1.44,7.771S3.577,14.1,6.207,14.1s4.772-2.837,4.772-6.328S8.839,1.44,6.207,1.44Z" transform="translate(8.373)"/><path class="b" d="M6.213,15.539C2.788,15.539,0,12.053,0,7.771S2.788,0,6.213,0s6.207,3.485,6.207,7.771S9.634,15.539,6.213,15.539Zm0-14.1C3.583,1.44,1.44,4.28,1.44,7.771S3.583,14.1,6.213,14.1s4.767-2.837,4.767-6.328S8.842,1.44,6.213,1.44Z" transform="translate(21.426)"/></g><g transform="translate(303.589 2106.979) rotate(-19)"><path class="b" d="M9.879,23.49c-3.511,0-6.46-.291-8.214-2.01A6.369,6.369,0,0,1,0,16.688C0,9.127,7,0,15.686,0S31.373,9.127,31.373,16.688a6.368,6.368,0,0,1-1.665,4.793c-2.189,2.146-6.227,2.074-10.9,1.973-2.01-.04-4.228-.04-6.238,0C11.642,23.473,10.743,23.49,9.879,23.49ZM15.686,1.44C7.794,1.44,1.44,9.781,1.44,16.688a5.024,5.024,0,0,0,1.233,3.762c1.757,1.725,5.518,1.659,9.864,1.564,2.031-.04,4.268-.04,6.3,0,4.352.1,8.114.161,9.868-1.564a5.024,5.024,0,0,0,1.233-3.762C29.934,9.781,23.577,1.44,15.686,1.44Z" transform="translate(5.423 14.755)"/><path class="b" d="M5.144,12.808C2.307,12.808,0,9.937,0,6.405S2.307,0,5.144,0s5.147,2.872,5.147,6.405S7.981,12.808,5.144,12.808Zm0-11.368c-2.042,0-3.7,2.226-3.7,4.965s1.662,4.962,3.7,4.962S8.851,9.142,8.851,6.405,7.189,1.44,5.144,1.44Z" transform="translate(0 9.911)"/><path class="b" d="M5.147,12.808C2.31,12.808,0,9.937,0,6.405S2.31,0,5.147,0s5.147,2.872,5.147,6.405S7.984,12.808,5.147,12.808Zm0-11.368C3.1,1.44,1.44,3.666,1.44,6.405S3.1,11.368,5.147,11.368,8.854,9.142,8.854,6.405,7.192,1.44,5.147,1.44Z" transform="translate(31.927 9.911)"/><path class="b" d="M6.207,15.539C2.785,15.539,0,12.053,0,7.771S2.785,0,6.207,0s6.212,3.485,6.212,7.771S9.631,15.539,6.207,15.539Zm0-14.1C3.577,1.44,1.44,4.28,1.44,7.771S3.577,14.1,6.207,14.1s4.772-2.837,4.772-6.328S8.839,1.44,6.207,1.44Z" transform="translate(8.373)"/><path class="b" d="M6.213,15.539C2.788,15.539,0,12.053,0,7.771S2.788,0,6.213,0s6.207,3.485,6.207,7.771S9.634,15.539,6.213,15.539Zm0-14.1C3.583,1.44,1.44,4.28,1.44,7.771S3.583,14.1,6.213,14.1s4.767-2.837,4.767-6.328S8.842,1.44,6.213,1.44Z" transform="translate(21.426)"/></g><g transform="translate(284.077 2848.253) rotate(11)"><path class="b" d="M14.209,30.734c-6,0-10.153-1.565-12.346-4.652C-2.1,20.5,1.139,11.219,3.505,4.446,4,3.029,4.455,1.719,4.8.573A.805.805,0,0,1,6.238.351l4.838,7.076a17.391,17.391,0,0,1,6.323.01L22.244.351A.815.815,0,0,1,23.033.01a.808.808,0,0,1,.647.563c.309,1.02.74,2.237,1.22,3.58,2.276,6.413,5.717,16.109,1.648,21.868C24.34,29.147,20.19,30.734,14.209,30.734ZM5.836,2.617c-.248.744-.525,1.532-.811,2.36C2.775,11.419-.306,20.242,3.177,25.152c1.874,2.637,5.585,3.973,11.032,3.973,5.427,0,9.136-1.355,11.026-4.03,3.586-5.08.312-14.3-1.854-20.4-.261-.734-.509-1.432-.731-2.08L18.52,8.65l-.01.019a.8.8,0,0,1-.888.454,15.866,15.866,0,0,0-6.741-.016.829.829,0,0,1-.834-.335Z" transform="translate(8.58)"/><g transform="translate(0 18.864)"><path class="b" d="M18.631,3.5l-.087,0L.719,1.607A.805.805,0,0,1,0,.721.792.792,0,0,1,.89.007L18.715,1.89A.806.806,0,0,1,18.631,3.5Z" transform="translate(0.002)"/><path class="b" d="M.805,3.968a.8.8,0,0,1-.1-1.6L18.527.008a.805.805,0,0,1,.209,1.6L.911,3.962C.876,3.965.841,3.968.805,3.968Z" transform="translate(0 3.977)"/><path class="b" d="M.8,3.5A.805.805,0,0,1,.719,1.889L18.544.006a.81.81,0,0,1,.885.715.808.808,0,0,1-.715.885L.89,3.492Z" transform="translate(26.377 0.001)"/><path class="b" d="M18.633,3.968c-.035,0-.071,0-.106-.006L.7,1.605A.805.805,0,0,1,.912.008L18.736,2.365a.805.805,0,0,1-.1,1.6Z" transform="translate(26.375 3.977)"/></g></g><g transform="matrix(0.966, 0.259, -0.259, 0.966, 613.844, 3366.251)"><path class="b" d="M19.32,21.322c-.77,0-1.568-.017-2.391-.035-1.787-.035-3.748-.035-5.535,0-4.206.083-7.833.153-9.846-1.815A5.875,5.875,0,0,1,0,15.051C0,8.232,6.316,0,14.163,0S28.322,8.232,28.322,15.051a5.874,5.874,0,0,1-1.548,4.421C25.157,21.058,22.488,21.322,19.32,21.322Zm-5.157-1.8c.958,0,1.895.017,2.8.038,3.8.069,7.1.139,8.6-1.326a4.255,4.255,0,0,0,1.027-3.179c0-5.993-5.733-13.316-12.424-13.316S1.735,9.058,1.735,15.051A4.255,4.255,0,0,0,2.762,18.23c1.492,1.465,4.786,1.4,8.6,1.326C12.264,19.535,13.2,19.518,14.163,19.518Z" transform="translate(4.817 13.097)"/><path class="b" d="M4.8,11.831C2.152,11.831,0,9.179,0,5.917S2.152,0,4.8,0,9.6,2.655,9.6,5.917,7.447,11.831,4.8,11.831Zm0-10.1c-1.69,0-3.064,1.877-3.064,4.182S3.109,10.1,4.8,10.1,7.864,8.221,7.864,5.917,6.49,1.735,4.8,1.735Z" transform="translate(0 8.798)"/><path class="b" d="M4.8,11.831C2.152,11.831,0,9.179,0,5.917S2.152,0,4.8,0,9.6,2.655,9.6,5.917,7.448,11.831,4.8,11.831Zm0-10.1c-1.69,0-3.064,1.877-3.064,4.182S3.109,10.1,4.8,10.1,7.864,8.221,7.864,5.917,6.49,1.735,4.8,1.735Z" transform="translate(28.357 8.798)"/><path class="b" d="M5.744,14.253C2.578,14.253,0,11.057,0,7.128S2.578,0,5.744,0s5.743,3.2,5.743,7.128S8.912,14.253,5.744,14.253Zm0-12.518c-2.211,0-4.008,2.419-4.008,5.393s1.8,5.39,4.008,5.39S9.752,10.1,9.752,7.128,7.954,1.735,5.744,1.735Z" transform="translate(7.437)"/><path class="b" d="M5.744,14.253C2.575,14.253,0,11.057,0,7.128S2.575,0,5.744,0s5.744,3.2,5.744,7.128S8.912,14.253,5.744,14.253Zm0-12.518c-2.211,0-4.008,2.419-4.008,5.393s1.8,5.39,4.008,5.39S9.752,10.1,9.752,7.128,7.954,1.735,5.744,1.735Z" transform="translate(19.032)"/></g><g transform="matrix(0.966, 0.259, -0.259, 0.966, 613.844, 3014.5)"><path class="b" d="M19.32,21.322c-.77,0-1.568-.017-2.391-.035-1.787-.035-3.748-.035-5.535,0-4.206.083-7.833.153-9.846-1.815A5.875,5.875,0,0,1,0,15.051C0,8.232,6.316,0,14.163,0S28.322,8.232,28.322,15.051a5.874,5.874,0,0,1-1.548,4.421C25.157,21.058,22.488,21.322,19.32,21.322Zm-5.157-1.8c.958,0,1.895.017,2.8.038,3.8.069,7.1.139,8.6-1.326a4.255,4.255,0,0,0,1.027-3.179c0-5.993-5.733-13.316-12.424-13.316S1.735,9.058,1.735,15.051A4.255,4.255,0,0,0,2.762,18.23c1.492,1.465,4.786,1.4,8.6,1.326C12.264,19.535,13.2,19.518,14.163,19.518Z" transform="translate(4.817 13.097)"/><path class="b" d="M4.8,11.831C2.152,11.831,0,9.179,0,5.917S2.152,0,4.8,0,9.6,2.655,9.6,5.917,7.447,11.831,4.8,11.831Zm0-10.1c-1.69,0-3.064,1.877-3.064,4.182S3.109,10.1,4.8,10.1,7.864,8.221,7.864,5.917,6.49,1.735,4.8,1.735Z" transform="translate(0 8.798)"/><path class="b" d="M4.8,11.831C2.152,11.831,0,9.179,0,5.917S2.152,0,4.8,0,9.6,2.655,9.6,5.917,7.448,11.831,4.8,11.831Zm0-10.1c-1.69,0-3.064,1.877-3.064,4.182S3.109,10.1,4.8,10.1,7.864,8.221,7.864,5.917,6.49,1.735,4.8,1.735Z" transform="translate(28.357 8.798)"/><path class="b" d="M5.744,14.253C2.578,14.253,0,11.057,0,7.128S2.578,0,5.744,0s5.743,3.2,5.743,7.128S8.912,14.253,5.744,14.253Zm0-12.518c-2.211,0-4.008,2.419-4.008,5.393s1.8,5.39,4.008,5.39S9.752,10.1,9.752,7.128,7.954,1.735,5.744,1.735Z" transform="translate(7.437)"/><path class="b" d="M5.744,14.253C2.575,14.253,0,11.057,0,7.128S2.575,0,5.744,0s5.744,3.2,5.744,7.128S8.912,14.253,5.744,14.253Zm0-12.518c-2.211,0-4.008,2.419-4.008,5.393s1.8,5.39,4.008,5.39S9.752,10.1,9.752,7.128,7.954,1.735,5.744,1.735Z" transform="translate(19.032)"/></g><g transform="translate(268.042 5698.005) rotate(-16)"><path class="b" d="M7.655,18.124c-2.694,0-4.96-.224-6.338-1.573A4.992,4.992,0,0,1,0,12.795C0,7,5.371,0,12.04,0S24.082,7,24.082,12.795a4.993,4.993,0,0,1-1.316,3.756c-1.712,1.676-4.8,1.62-8.372,1.543-1.52-.027-3.19-.027-4.707,0C8.988,18.109,8.31,18.124,7.655,18.124Zm4.385-1.532c.817,0,1.614.015,2.384.03,3.231.053,6.04.118,7.31-1.124a3.628,3.628,0,0,0,.873-2.7c0-5.129-4.715-11.319-10.567-11.319S1.475,7.666,1.475,12.795a3.627,3.627,0,0,0,.874,2.7c1.269,1.242,4.066,1.177,7.309,1.124C10.428,16.607,11.225,16.592,12.04,16.592Z" transform="translate(4.096 11.142)"/><path class="b" d="M4.081,10.062C1.829,10.062,0,7.8,0,5.028S1.829,0,4.081,0,8.162,2.257,8.162,5.028,6.333,10.062,4.081,10.062Zm0-8.587c-1.437,0-2.605,1.593-2.605,3.553S2.644,8.587,4.081,8.587s2.606-1.6,2.606-3.559S5.518,1.475,4.081,1.475Z" transform="translate(0 7.483)"/><path class="b" d="M4.081,10.062C1.829,10.062,0,7.8,0,5.028S1.829,0,4.081,0,8.162,2.257,8.162,5.028,6.332,10.062,4.081,10.062Zm0-8.587c-1.437,0-2.606,1.593-2.606,3.553S2.644,8.587,4.081,8.587s2.606-1.6,2.606-3.559S5.518,1.475,4.081,1.475Z" transform="translate(24.111 7.483)"/><path class="b" d="M4.884,12.122C2.189,12.122,0,9.4,0,6.061S2.189,0,4.884,0,9.764,2.718,9.764,6.061,7.575,12.122,4.884,12.122Zm0-10.647C3,1.475,1.475,3.532,1.475,6.061S3,10.647,4.884,10.647s3.405-2.06,3.405-4.586S6.76,1.475,4.884,1.475Z" transform="translate(6.324)"/><path class="b" d="M4.884,12.122C2.189,12.122,0,9.4,0,6.061S2.189,0,4.884,0,9.767,2.718,9.767,6.061,7.578,12.122,4.884,12.122Zm0-10.647C3,1.475,1.475,3.532,1.475,6.061S3,10.647,4.884,10.647s3.408-2.06,3.408-4.586S6.763,1.475,4.884,1.475Z" transform="translate(16.182)"/></g><g transform="translate(349.465 1750.439) rotate(-14)"><path class="b" d="M16.543,35.822c-7.007,0-11.848-1.812-14.388-5.387-4.61-6.5-.8-17.395,1.974-25.355C4.714,3.4,5.258,1.848,5.67.486A.682.682,0,0,1,6.221.008.693.693,0,0,1,6.894.3l5.824,8.515a20.385,20.385,0,0,1,7.718.011L26.266.3a.7.7,0,0,1,.673-.288.682.682,0,0,1,.552.478c.368,1.214.879,2.652,1.444,4.245,2.677,7.537,6.719,18.927,1.988,25.63C28.364,33.985,23.526,35.822,16.543,35.822ZM6.557,2.235c-.338,1.027-.725,2.131-1.131,3.3C2.745,13.21-.926,23.724,3.275,29.639c2.268,3.193,6.73,4.811,13.268,4.811,6.51,0,10.972-1.642,13.257-4.879,4.325-6.123.423-17.109-2.158-24.38-.376-1.06-.73-2.054-1.033-2.957l-5.2,7.606-.014.03a.667.667,0,0,1-.755.4,19.041,19.041,0,0,0-8.089-.019.7.7,0,0,1-.708-.283Z" transform="translate(10.15)"/><g transform="translate(0 22.312)"><path class="b" d="M21.775,3.606,21.7,3.6.613,1.371A.689.689,0,0,1,0,.616.676.676,0,0,1,.759.007l21.088,2.23a.687.687,0,0,1-.071,1.37Z"/><path class="b" d="M.684,4.16A.687.687,0,0,1,.6,2.792L21.684.005A.694.694,0,0,1,22.453.6a.684.684,0,0,1-.59.769L.775,4.154A.5.5,0,0,1,.684,4.16Z" transform="translate(0 4.708)"/><path class="b" d="M.685,3.606a.687.687,0,0,1-.071-1.37L21.7.006a.686.686,0,0,1,.145,1.365L.757,3.6Z" transform="translate(31.2 0.001)"/><path class="b" d="M21.775,4.16a.5.5,0,0,1-.091-.005L.6,1.367A.687.687,0,0,1,.777.005L21.863,2.792a.687.687,0,0,1-.088,1.367Z" transform="translate(31.199 4.708)"/></g></g><g transform="matrix(0.966, 0.259, -0.259, 0.966, 288.334, 886.3)"><path class="c" d="M21.2,23.171c-.852,0-1.739-.017-2.651-.034-1.983-.04-4.168-.04-6.154,0-4.608.1-8.6.168-10.753-1.949A6.283,6.283,0,0,1,0,16.461C0,9.006,6.9,0,15.472,0S30.947,9.006,30.947,16.461a6.282,6.282,0,0,1-1.642,4.727C27.572,22.887,24.666,23.171,21.2,23.171Zm-5.727-1.494c1.065,0,2.105.02,3.105.04,4.3.091,8,.156,9.731-1.543a4.964,4.964,0,0,0,1.219-3.713c0-6.81-6.27-15.04-14.054-15.04S1.42,9.651,1.42,16.461a4.963,4.963,0,0,0,1.216,3.713c1.73,1.7,5.432,1.631,9.733,1.543C13.37,21.7,14.407,21.677,15.472,21.677Z" transform="translate(5.352 14.549)"/><path class="c" d="M5.077,12.637C2.278,12.637,0,9.8,0,6.318S2.278,0,5.077,0s5.077,2.835,5.077,6.318S7.878,12.637,5.077,12.637Zm0-11.216c-2.014,0-3.656,2.2-3.656,4.9s1.642,4.9,3.656,4.9,3.656-2.2,3.656-4.9S7.094,1.421,5.077,1.421Z" transform="translate(0 9.77)"/><path class="c" d="M5.077,12.637C2.279,12.637,0,9.8,0,6.318S2.279,0,5.077,0s5.077,2.835,5.077,6.318S7.878,12.637,5.077,12.637Zm0-11.216c-2.014,0-3.656,2.2-3.656,4.9s1.642,4.9,3.656,4.9,3.656-2.2,3.656-4.9S7.094,1.421,5.077,1.421Z" transform="translate(31.496 9.77)"/><path class="c" d="M6.125,15.327C2.747,15.327,0,11.89,0,7.662S2.747,0,6.125,0,12.25,3.438,12.25,7.662,9.5,15.327,6.125,15.327Zm0-13.907c-2.594,0-4.7,2.8-4.7,6.242s2.111,6.245,4.7,6.245,4.7-2.8,4.7-6.245S8.719,1.421,6.125,1.421Z" transform="translate(8.262)"/><path class="c" d="M6.125,15.327C2.747,15.327,0,11.89,0,7.662S2.747,0,6.125,0,12.25,3.438,12.25,7.662,9.5,15.327,6.125,15.327Zm0-13.907c-2.594,0-4.7,2.8-4.7,6.242s2.111,6.245,4.7,6.245,4.7-2.8,4.7-6.245S8.719,1.421,6.125,1.421Z" transform="translate(21.14)"/></g><g transform="translate(292.826 3232.258) rotate(11)"><path class="b" d="M13.739,29.714c-5.8,0-9.82-1.513-11.936-4.5-3.835-5.4-.7-14.37,1.584-20.919.479-1.369.921-2.636,1.257-3.744A.771.771,0,0,1,5.27.009a.786.786,0,0,1,.762.33L10.71,7.18a16.815,16.815,0,0,1,6.113.009L21.507.339a.784.784,0,0,1,.762-.33A.772.772,0,0,1,22.9.553c.3.987.716,2.16,1.177,3.458,2.2,6.2,5.531,15.575,1.6,21.146C23.533,28.179,19.521,29.714,13.739,29.714ZM5.643,2.527c-.24.722-.507,1.485-.787,2.285C2.683,11.039-.3,19.57,3.072,24.317c1.808,2.549,5.4,3.841,10.666,3.841,5.247,0,8.833-1.313,10.66-3.9,3.467-4.911.3-13.829-1.8-19.727-.252-.71-.489-1.382-.7-2.011l-4,5.842-.009.019a.766.766,0,0,1-.856.436A15.439,15.439,0,0,0,10.52,8.8a.783.783,0,0,1-.806-.321Z" transform="translate(8.295)"/><g transform="translate(0 18.238)"><path class="b" d="M18.016,3.38l-.084-.006L.7,1.553A.781.781,0,0,1,0,.7.765.765,0,0,1,.86.006L18.1,1.827a.779.779,0,0,1-.081,1.553Z"/><path class="b" d="M.775,3.833a.778.778,0,0,1-.1-1.55L17.913.007a.778.778,0,0,1,.2,1.544L.878,3.829C.844,3.833.81,3.833.775,3.833Z" transform="translate(0 3.846)"/><path class="b" d="M.776,3.38A.779.779,0,0,1,.7,1.827L17.932.006A.778.778,0,0,1,18.1,1.553L.861,3.374Z" transform="translate(25.5)"/><path class="b" d="M18.016,3.833c-.037,0-.068,0-.106,0L.677,1.551A.778.778,0,0,1,.879.007L18.115,2.283a.778.778,0,0,1-.1,1.55Z" transform="translate(25.5 3.846)"/></g></g><g transform="translate(240.521 2494.312) rotate(-11)"><path class="b" d="M16.71,18.445c-.666,0-1.357-.015-2.068-.03-1.543-.03-3.242-.03-4.785,0-3.639.075-6.779.135-8.517-1.576A5.07,5.07,0,0,1,0,13.017C0,7.121,5.464,0,12.249,0S24.5,7.121,24.5,13.017a5.07,5.07,0,0,1-1.339,3.822C21.76,18.214,19.451,18.445,16.71,18.445Zm-4.461-1.561c.832,0,1.639.015,2.423.033,3.293.051,6.145.12,7.436-1.147A3.683,3.683,0,0,0,23,13.017C23,7.833,18.037,1.5,12.249,1.5S1.5,7.833,1.5,13.017A3.684,3.684,0,0,0,2.39,15.77c1.291,1.267,4.143,1.2,7.436,1.147C10.61,16.9,11.417,16.884,12.249,16.884Z" transform="translate(4.167 11.33)"/><path class="b" d="M4.152,10.234C1.861,10.234,0,7.938,0,5.119S1.861,0,4.152,0,8.3,2.294,8.3,5.119,6.439,10.234,4.152,10.234Zm0-8.733C2.69,1.5,1.5,3.125,1.5,5.119S2.69,8.733,4.152,8.733,6.8,7.112,6.8,5.119,5.611,1.5,4.152,1.5Z" transform="translate(0 7.61)"/><path class="b" d="M4.149,10.234C1.861,10.234,0,7.938,0,5.119S1.861,0,4.149,0,8.3,2.294,8.3,5.119,6.44,10.234,4.149,10.234Zm0-8.733C2.69,1.5,1.5,3.125,1.5,5.119S2.69,8.733,4.149,8.733,6.8,7.112,6.8,5.119,5.611,1.5,4.149,1.5Z" transform="translate(24.53 7.61)"/><path class="b" d="M4.969,12.33C2.228,12.33,0,9.565,0,6.164S2.228,0,4.969,0,9.934,2.765,9.934,6.164,7.707,12.33,4.969,12.33Zm0-10.829C3.056,1.5,1.5,3.594,1.5,6.164s1.555,4.665,3.468,4.665S8.433,8.736,8.433,6.164,6.878,1.5,4.969,1.5Z" transform="translate(6.433)"/><path class="b" d="M4.966,12.33C2.228,12.33,0,9.565,0,6.164S2.228,0,4.966,0,9.934,2.765,9.934,6.164,7.707,12.33,4.966,12.33Zm0-10.829C3.056,1.5,1.5,3.594,1.5,6.164s1.555,4.665,3.465,4.665S8.433,8.736,8.433,6.164,6.878,1.5,4.966,1.5Z" transform="translate(16.464)"/></g><g transform="matrix(0.996, -0.087, 0.087, 0.996, 218.302, 1374.134)"><path class="b" d="M7.916,18.823c-2.813,0-5.176-.231-6.582-1.611A5.1,5.1,0,0,1,0,13.372C0,7.316,5.606,0,12.568,0S25.139,7.316,25.139,13.372a5.1,5.1,0,0,1-1.334,3.84c-1.754,1.719-4.987,1.664-8.737,1.583-1.611-.032-3.388-.032-5,0C9.328,18.809,8.608,18.823,7.916,18.823ZM12.568,1.154c-6.323,0-11.415,6.683-11.415,12.218a4.032,4.032,0,0,0,.988,3.016c1.408,1.38,4.42,1.325,7.9,1.253,1.627-.032,3.42-.032,5.045,0,3.485.072,6.5.127,7.906-1.253a4.031,4.031,0,0,0,.988-3.016C23.985,7.837,18.892,1.154,12.568,1.154Z" transform="translate(4.348 11.818)"/><path class="b" d="M4.124,10.265C1.851,10.265,0,7.964,0,5.133S1.851,0,4.124,0,8.248,2.3,8.248,5.133,6.4,10.265,4.124,10.265Zm0-9.111c-1.636,0-2.97,1.786-2.97,3.979s1.334,3.979,2.97,3.979,2.97-1.786,2.97-3.979S5.763,1.154,4.124,1.154Z" transform="translate(0 7.937)"/><path class="b" d="M4.124,10.265C1.851,10.265,0,7.964,0,5.133S1.851,0,4.124,0,8.248,2.3,8.248,5.133,6.4,10.265,4.124,10.265Zm0-9.111c-1.639,0-2.97,1.786-2.97,3.979s1.332,3.979,2.97,3.979,2.97-1.786,2.97-3.979S5.76,1.154,4.124,1.154Z" transform="translate(25.585 7.937)"/><path class="b" d="M4.976,12.448C2.232,12.448,0,9.656,0,6.224S2.232,0,4.976,0,9.951,2.792,9.951,6.224,7.717,12.448,4.976,12.448Zm0-11.295c-2.107,0-3.822,2.273-3.822,5.07s1.715,5.07,3.822,5.07S8.8,9.021,8.8,6.224,7.083,1.154,4.976,1.154Z" transform="translate(6.711)"/><path class="b" d="M4.976,12.448C2.232,12.448,0,9.656,0,6.224S2.232,0,4.976,0,9.949,2.792,9.949,6.224,7.717,12.448,4.976,12.448Zm0-11.295c-2.109,0-3.822,2.273-3.822,5.07s1.713,5.07,3.822,5.07S8.8,9.021,8.8,6.224,7.083,1.154,4.976,1.154Z" transform="translate(17.173)"/></g><g transform="translate(583.74 948.369)"><path class="c" d="M536.548,449.007c-.734,0-1.5-.015-2.281-.032-1.7-.032-3.583-.032-5.29,0-3.951.083-7.376.146-9.229-1.671a5.39,5.39,0,0,1-1.41-4.059c0-6.4,5.927-14.132,13.286-14.132s13.283,7.732,13.283,14.132a5.389,5.389,0,0,1-1.41,4.059C542.011,448.76,539.518,449.007,536.548,449.007Zm-4.925-1.283c.917,0,1.81.015,2.668.032,3.681.078,6.864.137,8.352-1.322a4.264,4.264,0,0,0,1.044-3.188c0-5.849-5.381-12.913-12.064-12.913s-12.066,7.064-12.066,12.913a4.265,4.265,0,0,0,1.044,3.188c1.488,1.456,4.664,1.4,8.352,1.322C529.813,447.738,530.708,447.724,531.623,447.724Z" transform="translate(-513.744 -416.622)"/><path class="c" d="M520.813,438.276c-2.4,0-4.359-2.432-4.359-5.422s1.956-5.422,4.359-5.422,4.359,2.432,4.359,5.422S523.216,438.276,520.813,438.276Zm0-9.625c-1.729,0-3.139,1.885-3.139,4.2s1.41,4.2,3.139,4.2,3.139-1.885,3.139-4.2S522.545,428.652,520.813,428.652Z" transform="translate(-516.454 -419.042)"/><path class="c" d="M531.9,438.276c-2.4,0-4.356-2.432-4.356-5.422s1.954-5.422,4.356-5.422,4.361,2.432,4.361,5.422S534.3,438.276,531.9,438.276Zm0-9.625c-1.729,0-3.137,1.885-3.137,4.2s1.407,4.2,3.137,4.2,3.142-1.885,3.142-4.2S533.628,428.652,531.9,428.652Z" transform="translate(-500.5 -419.042)"/><path class="c" d="M524.619,437.149c-2.9,0-5.256-2.951-5.256-6.578s2.358-6.578,5.256-6.578,5.258,2.951,5.258,6.578S527.519,437.149,524.619,437.149Zm0-11.937c-2.227,0-4.037,2.4-4.037,5.359s1.81,5.359,4.037,5.359,4.039-2.4,4.039-5.359S526.845,425.212,524.619,425.212Z" transform="translate(-512.269 -423.992)"/><path class="c" d="M529.153,437.149c-2.9,0-5.259-2.951-5.259-6.578s2.361-6.578,5.259-6.578,5.259,2.951,5.259,6.578S532.053,437.149,529.153,437.149Zm0-11.937c-2.227,0-4.039,2.4-4.039,5.359s1.812,5.359,4.039,5.359,4.039-2.4,4.039-5.359S531.38,425.212,529.153,425.212Z" transform="translate(-505.747 -423.992)"/></g><g transform="translate(519.969 4875.646)"><path class="b" d="M661.066,192.377c-6.481,0-10.959-1.676-13.308-4.986-4.267-6.006-.744-16.089,1.826-23.452.541-1.552,1.044-2.989,1.425-4.247a.63.63,0,0,1,.51-.444.641.641,0,0,1,.622.269l5.387,7.873a18.74,18.74,0,0,1,7.137.01l5.394-7.883a.641.641,0,0,1,.622-.269.63.63,0,0,1,.511.444c.338,1.12.813,2.451,1.336,3.924,2.476,6.972,6.214,17.509,1.839,23.706C672,190.676,667.524,192.377,661.066,192.377Zm-9.237-31.069c-.312.947-.67,1.973-1.046,3.05-2.479,7.1-5.875,16.826-1.989,22.3,2.1,2.954,6.225,4.452,12.272,4.452,6.022,0,10.146-1.519,12.262-4.516,4-5.664.391-15.825-2-22.55-.348-.98-.676-1.9-.955-2.735l-4.813,7.033-.018.041a.608.608,0,0,1-.693.356,17.569,17.569,0,0,0-7.482-.018.652.652,0,0,1-.655-.264Z" transform="translate(-636.376 -159.241)"/><g transform="translate(0 20.639)"><path class="b" d="M662.207,170.7l-.069-.005-19.5-2.062a.635.635,0,0,1,.132-1.262l19.505,2.062a.635.635,0,0,1-.066,1.267Z" transform="translate(-642.066 -167.368)"/><path class="b" d="M642.7,172.928a.635.635,0,0,1-.084-1.265l19.505-2.575a.635.635,0,0,1,.165,1.26l-19.5,2.575A.461.461,0,0,1,642.7,172.928Z" transform="translate(-642.067 -164.729)"/><path class="b" d="M654.063,170.7a.635.635,0,0,1-.066-1.267l19.5-2.062a.648.648,0,0,1,.7.564.632.632,0,0,1-.564.7l-19.5,2.062Z" transform="translate(-624.571 -167.367)"/><path class="b" d="M673.57,172.928a.462.462,0,0,1-.084-.005l-19.5-2.575a.635.635,0,1,1,.165-1.26l19.5,2.575a.635.635,0,0,1-.081,1.265Z" transform="translate(-624.572 -164.729)"/></g></g><g transform="matrix(0.951, 0.309, -0.309, 0.951, 619.146, 2310.922)"><path class="b" d="M21.381,23.593c-.853,0-1.74-.019-2.65-.038-1.974-.035-4.148-.035-6.122,0-4.655.092-8.672.173-10.9-2.009A6.5,6.5,0,0,1,0,16.657C0,9.11,6.99,0,15.67,0S31.34,9.11,31.34,16.657a6.5,6.5,0,0,1-1.713,4.889C27.837,23.3,24.887,23.593,21.381,23.593ZM15.67,21.6c1.064,0,2.1.019,3.1.038,4.217.069,7.862.154,9.513-1.463a4.721,4.721,0,0,0,1.137-3.518c0-6.637-6.345-14.737-13.75-14.737S1.92,10.02,1.92,16.657a4.705,4.705,0,0,0,1.137,3.518c1.652,1.617,5.293,1.536,9.513,1.463C13.569,21.619,14.606,21.6,15.67,21.6Z" transform="translate(5.331 14.499)"/><path class="b" d="M5.308,13.1C2.381,13.1,0,10.159,0,6.548S2.381,0,5.308,0s5.312,2.938,5.312,6.548S8.238,13.1,5.308,13.1Zm0-11.176C3.441,1.92,1.92,4,1.92,6.548s1.521,4.628,3.387,4.628S8.7,9.1,8.7,6.548,7.178,1.92,5.308,1.92Z" transform="translate(0 9.736)"/><path class="b" d="M5.308,13.1C2.381,13.1,0,10.159,0,6.548S2.381,0,5.308,0,10.62,2.938,10.62,6.548,8.238,13.1,5.308,13.1Zm0-11.176C3.441,1.92,1.92,4,1.92,6.548s1.521,4.628,3.388,4.628S8.7,9.1,8.7,6.548,7.178,1.92,5.308,1.92Z" transform="translate(31.382 9.736)"/><path class="b" d="M6.352,15.777C2.85,15.777,0,12.24,0,7.889S2.85,0,6.352,0s6.356,3.537,6.356,7.889S9.859,15.777,6.352,15.777Zm0-13.857C3.91,1.92,1.92,4.6,1.92,7.889s1.99,5.968,4.432,5.968,4.436-2.681,4.436-5.968S8.8,1.92,6.352,1.92Z" transform="translate(8.23)"/><path class="b" d="M6.353,15.777C2.85,15.777,0,12.24,0,7.889S2.85,0,6.353,0s6.356,3.537,6.356,7.889S9.859,15.777,6.353,15.777Zm0-13.857C3.91,1.92,1.92,4.6,1.92,7.889s1.989,5.968,4.432,5.968,4.436-2.681,4.436-5.968S8.8,1.92,6.353,1.92Z" transform="translate(21.062)"/></g></g></svg>