<svg xmlns="http://www.w3.org/2000/svg" width="63" height="63" viewBox="0 0 63 63"><defs><style>.a{fill:#056cf2;}.b,.c{fill:#fff;stroke:#fff;}.c{stroke-width:0.5px;}</style></defs><g transform="translate(-982 -2641)"><circle class="a" cx="31.5" cy="31.5" r="31.5" transform="translate(982 2641)"/><g transform="translate(993.459 2657.45)"><path class="b" d="M38.951,26.213a10.708,10.708,0,0,0-20.847,0,10.706,10.706,0,0,0,1.226,21.342h18.4a10.706,10.706,0,0,0,1.226-21.342ZM37.725,46.46h-18.4a9.611,9.611,0,0,1-.733-19.2.547.547,0,0,0,.5-.441,9.613,9.613,0,0,1,18.871,0,.547.547,0,0,0,.5.441,9.611,9.611,0,0,1-.733,19.195Z" transform="translate(-8.618 -17.955)"/><path class="c" d="M45.488,40.872H43.122V36.767a.547.547,0,0,0-.547-.547H37.5a.547.547,0,0,0-.547.547v4.105H34.589a.547.547,0,0,0-.39.931l5.45,5.521a.547.547,0,0,0,.779,0l5.45-5.521a.547.547,0,0,0-.39-.931Zm-5.45,5.289L35.9,41.967h1.6a.547.547,0,0,0,.547-.547V37.314h3.978v4.105a.547.547,0,0,0,.547.547h1.6Z" transform="translate(-20.129 -26.225)"/></g></g></svg>