<svg xmlns="http://www.w3.org/2000/svg" xmlns:xlink="http://www.w3.org/1999/xlink" width="206.599" height="67.581" viewBox="0 0 206.599 67.581"><defs><style>.a{fill:none;}.b{fill:#ff978f;}.c{clip-path:url(#a);}.d{fill:url(#b);}.e{fill:url(#c);}.f{fill:url(#d);}.g{fill:url(#e);}.h{fill:#f9f9f9;}.i{fill:#fbfcfc;}</style><clipPath id="a"><path class="a" d="M164.282,144.081l-9.316-5.379L137,128.327c-1-.576-1.991-.227-1.991.977v42.27c0,.9.711,1.292,1.577.791l18.383-10.615,9.315-5.378,8.955-5.169c1.051-.607.95-1.439.063-1.917S164.282,144.081,164.282,144.081Z" transform="translate(-135.006 -128.056)"/></clipPath><linearGradient id="b" x1="0.5" x2="0.5" y2="1" gradientUnits="objectBoundingBox"><stop offset="0" stop-color="#0067a2"/><stop offset="0.403" stop-color="#3d91a8"/><stop offset="0.805" stop-color="#74b7ae"/><stop offset="1" stop-color="#8ac6b1"/></linearGradient><linearGradient id="c" y1="0.5" x2="1" y2="0.5" gradientUnits="objectBoundingBox"><stop offset="0" stop-color="#50b09b"/><stop offset="1" stop-color="#e9e486"/></linearGradient><linearGradient id="d" x1="0.5" x2="0.5" y2="1" gradientUnits="objectBoundingBox"><stop offset="0" stop-color="#dc1b24"/><stop offset="0.228" stop-color="#c1203b"/><stop offset="0.748" stop-color="#8a2b6c"/><stop offset="1" stop-color="#753080"/></linearGradient><linearGradient id="e" x1="0.5" x2="0.5" y2="1" gradientUnits="objectBoundingBox"><stop offset="0" stop-color="#eb7165"/><stop offset="0.003" stop-color="#eb7164"/><stop offset="0.675" stop-color="#f9a85e"/><stop offset="1" stop-color="#ffbe5c"/></linearGradient></defs><path class="b" d="M303.24,152.969a9.132,9.132,0,0,1-9.131,9.133H105.774a9.134,9.134,0,0,1-9.133-9.133V103.655a9.134,9.134,0,0,1,9.133-9.133H294.109a9.132,9.132,0,0,1,9.131,9.133Z" transform="translate(-96.641 -94.522)"/><g transform="translate(15.497 13.545)"><g class="c"><path class="d" d="M135.006,126.292v45.766l23.078-22.883Z" transform="translate(-135.006 -127.005)"/><path class="e" d="M164.282,142.784l-9.316-5.378-19.96-11.525v.166l23.078,22.883Z" transform="translate(-135.006 -126.759)"/><path class="f" d="M135.006,205.828v.166l19.96-11.525,9.315-5.378-6.2-6.146Z" transform="translate(-135.006 -160.774)"/><path class="g" d="M198.338,167.728l-6.2,6.146,6.2,6.146,10.646-6.146Z" transform="translate(-169.062 -151.704)"/></g></g><g transform="translate(154.592 25.523)"><path class="h" d="M485.561,184.735a5.761,5.761,0,0,1-2.374-.479,4.476,4.476,0,0,1-1.8-1.476h-.145a17.9,17.9,0,0,1,.145,2.21v5.477h-2.015V171.183h1.639l.279,1.822h.1a4.694,4.694,0,0,1,1.81-1.579,5.5,5.5,0,0,1,2.367-.486,4.919,4.919,0,0,1,4.086,1.809,9.638,9.638,0,0,1-.023,10.172A4.932,4.932,0,0,1,485.561,184.735Zm-.292-12.083a3.571,3.571,0,0,0-2.95,1.129,5.815,5.815,0,0,0-.936,3.595v.449a6.659,6.659,0,0,0,.936,4.014,3.557,3.557,0,0,0,3,1.208,3.12,3.12,0,0,0,2.7-1.4A6.626,6.626,0,0,0,489,177.8a6.378,6.378,0,0,0-.977-3.819A3.217,3.217,0,0,0,485.269,172.652Z" transform="translate(-479.368 -165.597)"/><path class="h" d="M516.96,176.606h-2.016v-18.9h2.016Z" transform="translate(-500.574 -157.711)"/><path class="h" d="M535.078,184.528l-.4-1.894h-.1a5.584,5.584,0,0,1-1.986,1.694,6.038,6.038,0,0,1-2.471.444,4.445,4.445,0,0,1-3.1-1.02,3.718,3.718,0,0,1-1.124-2.9q0-4.031,6.448-4.226l2.26-.073v-.826a3.372,3.372,0,0,0-.675-2.313,2.769,2.769,0,0,0-2.155-.747,8.776,8.776,0,0,0-3.765,1.02l-.62-1.542a9.472,9.472,0,0,1,2.156-.838,9.331,9.331,0,0,1,2.35-.3,5.072,5.072,0,0,1,3.528,1.056,4.412,4.412,0,0,1,1.147,3.388v9.083Zm-4.554-1.42a4.1,4.1,0,0,0,2.957-1.032,3.822,3.822,0,0,0,1.075-2.891v-1.2l-2.017.085a7.33,7.33,0,0,0-3.467.747,2.253,2.253,0,0,0-1.062,2.058,2.073,2.073,0,0,0,.662,1.663A2.746,2.746,0,0,0,530.524,183.108Z" transform="translate(-507.103 -165.632)"/><path class="h" d="M555.222,171.541h2.161l2.915,7.59a29,29,0,0,1,1.191,3.753h.1q.158-.62.661-2.12t3.3-9.223h2.163l-5.72,15.156A7.563,7.563,0,0,1,560,189.885a4.223,4.223,0,0,1-2.786.94,8.132,8.132,0,0,1-1.822-.206V189a7.039,7.039,0,0,0,1.494.146,3.08,3.08,0,0,0,2.963-2.332l.74-1.894Z" transform="translate(-524.583 -165.955)"/></g><g transform="translate(62.695 24.035)"><path class="h" d="M386.927,173.124a4.693,4.693,0,0,1,1.976,3.758c0,2.059-1.169,3.035-2.339,3.952a1.958,1.958,0,0,0-.78,1.366,1.527,1.527,0,0,0,.725,1.2l1,.778c1.225,1.03,2.337,1.978,2.337,3.9,0,2.616-2.533,5.26-7.321,5.26-4.037,0-5.985-1.92-5.985-3.981a4.006,4.006,0,0,1,2.144-3.4A11.993,11.993,0,0,1,384,184.676a2.915,2.915,0,0,1-.836-1.892,2.509,2.509,0,0,1,.279-1.087c-.307.028-.613.055-.892.055a4.4,4.4,0,0,1-4.62-4.369,5.008,5.008,0,0,1,1.781-3.731,7.591,7.591,0,0,1,4.985-1.531h5.734l-1.782,1Zm-1.977,12.361a4.318,4.318,0,0,0-.639-.029,11.121,11.121,0,0,0-2.924.448,3.127,3.127,0,0,0-2.394,2.867c0,1.976,1.922,3.4,4.9,3.4,2.671,0,4.092-1.283,4.092-3.008C387.985,187.738,387.066,186.989,384.949,185.485Zm.808-5.29a2.815,2.815,0,0,0,.694-2.032c0-2-1.2-5.122-3.506-5.122a2.6,2.6,0,0,0-1.949.919,3.218,3.218,0,0,0-.613,2.06c0,1.865,1.086,4.955,3.481,4.955A2.849,2.849,0,0,0,385.757,180.195Z" transform="translate(-326.179 -164.813)"/><path class="h" d="M348.854,184.455a6.559,6.559,0,0,1-6.781-6.561,6.887,6.887,0,0,1,7.2-6.753,6.5,6.5,0,0,1,6.641,6.559A6.791,6.791,0,0,1,348.854,184.455Zm3.474-2.251a5.028,5.028,0,0,0,.835-3.086c0-2.446-1.167-7.115-4.614-7.115a3.87,3.87,0,0,0-2.5.946,4.205,4.205,0,0,0-1.28,3.391c0,2.75,1.362,7.279,4.726,7.279A3.55,3.55,0,0,0,352.328,182.2Z" transform="translate(-305.632 -164.228)"/><path class="h" d="M311.558,184.455a6.559,6.559,0,0,1-6.782-6.561,6.888,6.888,0,0,1,7.2-6.753,6.5,6.5,0,0,1,6.642,6.559A6.791,6.791,0,0,1,311.558,184.455Zm3.474-2.251a5.032,5.032,0,0,0,.835-3.086c0-2.446-1.168-7.115-4.614-7.115a3.873,3.873,0,0,0-2.5.946,4.205,4.205,0,0,0-1.278,3.391c0,2.75,1.361,7.279,4.725,7.279A3.552,3.552,0,0,0,315.032,182.2Z" transform="translate(-283.4 -164.228)"/><path class="h" d="M271.108,174.736l-4,.922a29.568,29.568,0,0,1-4.61.474c-7.713,0-10.646-5.673-10.646-10.116,0-5.42,4.163-10.449,11.289-10.449a16.085,16.085,0,0,1,4.274.587,10.889,10.889,0,0,1,3.689,1.732l-2.32,2.208-.977.223.7-1.118a7.986,7.986,0,0,0-5.979-2.625c-4.415,0-7.741,3.354-7.741,8.244,0,5.252,3.8,10.2,9.891,10.2a8.321,8.321,0,0,0,3.549-.7v-4.5l-4.219.223,2.234-1.2h5.924l-.725.7a.654.654,0,0,0-.28.447c-.029.252-.055,1.063-.055,1.342Z" transform="translate(-251.856 -154.945)"/><path class="h" d="M415.356,173.012c-.923-.084-1.116-.251-1.116-1.342V155.855c.006-.061.01-.122.015-.181.113-.977.391-1.145,1.259-1.649h-4l-2.1,1.006h2.136v.013l0-.01v17.251c0,.558-.11.642-.754,1.48h4.946l1.034-.614C416.308,173.1,415.832,173.068,415.356,173.012Z" transform="translate(-345.777 -154.026)"/><path class="h" d="M437.318,183.485c-.3.167-.61.362-.914.5a6.469,6.469,0,0,1-2.695.527,5.93,5.93,0,0,1-3.691-1.083,7.182,7.182,0,0,1-2.829-5.856,6.289,6.289,0,0,1,6.355-6.409,5.394,5.394,0,0,1,2.86.777,4.6,4.6,0,0,1,1.94,2.745l-6.52,2.638-2.137.167c.693,3.524,3.079,5.576,5.716,5.576a7.17,7.17,0,0,0,3.385-.97Zm-2.607-8.27c.526-.194.8-.361.8-.749a2.754,2.754,0,0,0-2.748-2.387c-1.111,0-3.191.861-3.191,3.857,0,.472.055.971.084,1.472Z" transform="translate(-356.369 -164.242)"/><g transform="translate(82.8 6.923)"><path class="h" d="M457.674,171.354v1.831h-.222v-1.831h-.606v-.189h1.434v.189Z" transform="translate(-456.846 -171.165)"/><path class="h" d="M462.824,173.185v-1.848h-.01l-.564,1.848h-.174l-.569-1.848H461.5v1.848h-.2v-2.02h.346l.515,1.633h.007l.507-1.633h.351v2.02Z" transform="translate(-459.5 -171.165)"/></g></g><g transform="translate(62.743 13.437)"><path class="i" d="M257.476,133.76h-1.388a9.212,9.212,0,0,0-.4-1.623h-2a8.387,8.387,0,0,0-.408,1.623h-1.306q0-.17,1.013-2.777A21.8,21.8,0,0,0,254,128.11h1.64a23.961,23.961,0,0,0,.918,2.831A24.769,24.769,0,0,1,257.476,133.76Zm-2-2.452a24.527,24.527,0,0,1-.742-2.421h-.07a25.38,25.38,0,0,1-.768,2.421Z" transform="translate(-251.974 -127.98)"/><path class="i" d="M272.576,133.76H271.5a10.574,10.574,0,0,0-1.193-1.879,10.342,10.342,0,0,1-1.423-2.451h-.069a15.284,15.284,0,0,1,.109,1.718q0,1.072.061,2.612H267.92q.065-1.345.065-2.955,0-1.583-.065-2.695h1.289a8.151,8.151,0,0,0,1.072,1.835,10.8,10.8,0,0,1,1.31,2.313h.065a16.465,16.465,0,0,1-.1-1.736q0-1.175-.061-2.413h1.085q-.061,1.077-.061,2.695T272.576,133.76Z" transform="translate(-261.479 -127.98)"/><path class="i" d="M287.973,130.7a3.2,3.2,0,0,1-.79,2.152,2.758,2.758,0,0,1-2.213.92q-.642,0-1.77-.052.056-1.311.057-2.955,0-1.579-.057-2.695h.759q.187,0,.555-.013t.482-.013a2.924,2.924,0,0,1,2.272.781A2.7,2.7,0,0,1,287.973,130.7Zm-1.185.187a2.091,2.091,0,0,0-.486-1.4,1.843,1.843,0,0,0-1.484-.571,4.621,4.621,0,0,0-.512.039q.044.868.044,1.814,0,1.037.043,2.057a2.876,2.876,0,0,0,.564.057,1.639,1.639,0,0,0,1.382-.579A2.237,2.237,0,0,0,286.788,130.888Z" transform="translate(-270.587 -127.942)"/><path class="i" d="M302.624,133.722H301.34a8.538,8.538,0,0,0-.772-1.9,1.012,1.012,0,0,0-.868-.36q-.252,0-.482,0,0,1.115.039,2.252h-1.206q.056-1.311.056-2.955,0-1.579-.056-2.695h.75q.13,0,.544-.013t.766-.013q1.992,0,1.992,1.362a1.528,1.528,0,0,1-1.137,1.506v.065a1.353,1.353,0,0,1,.768.683A15.065,15.065,0,0,1,302.624,133.722ZM301,129.73q0-.863-1.111-.864a3.813,3.813,0,0,0-.721.061q.048.673.048,1.753.238.009.4.009Q301,130.688,301,129.73Z" transform="translate(-279.439 -127.942)"/><path class="i" d="M316.62,130.639a3.117,3.117,0,0,1-.816,2.209,2.647,2.647,0,0,1-2.018.876,2.55,2.55,0,0,1-1.918-.8,2.834,2.834,0,0,1-.772-2.046,3.115,3.115,0,0,1,.816-2.209,2.646,2.646,0,0,1,2.018-.877,2.555,2.555,0,0,1,1.918.8A2.834,2.834,0,0,1,316.62,130.639Zm-1.2.126a2.24,2.24,0,0,0-.465-1.471,1.429,1.429,0,0,0-1.146-.564,1.324,1.324,0,0,0-1.076.568,2.27,2.27,0,0,0-.443,1.436,2.234,2.234,0,0,0,.466,1.469,1.429,1.429,0,0,0,1.143.566,1.323,1.323,0,0,0,1.076-.57A2.271,2.271,0,0,0,315.423,130.764Z" transform="translate(-287.216 -127.788)"/><path class="i" d="M329.033,133.76H327.8q.056-1.345.057-2.955,0-1.583-.057-2.695h1.228q-.056,1.094-.056,2.695Q328.977,132.44,329.033,133.76Z" transform="translate(-297.175 -127.98)"/><path class="i" d="M339.372,130.7a3.2,3.2,0,0,1-.79,2.152,2.758,2.758,0,0,1-2.213.92q-.642,0-1.77-.052.056-1.311.057-2.955,0-1.579-.057-2.695h.759q.187,0,.555-.013c.246-.008.406-.013.481-.013a2.924,2.924,0,0,1,2.272.781A2.7,2.7,0,0,1,339.372,130.7Zm-1.184.187a2.093,2.093,0,0,0-.486-1.4,1.844,1.844,0,0,0-1.484-.571,4.614,4.614,0,0,0-.512.039q.044.868.044,1.814,0,1.037.043,2.057a2.876,2.876,0,0,0,.564.057,1.639,1.639,0,0,0,1.382-.579A2.237,2.237,0,0,0,338.187,130.888Z" transform="translate(-301.225 -127.942)"/><path class="i" d="M358.952,133.76h-1.388a9.151,9.151,0,0,0-.4-1.623h-2a8.374,8.374,0,0,0-.408,1.623H353.45q0-.17,1.013-2.777a21.766,21.766,0,0,0,1.013-2.873h1.64a23.922,23.922,0,0,0,.918,2.831A24.878,24.878,0,0,1,358.952,133.76Zm-2-2.452a24.605,24.605,0,0,1-.742-2.421h-.069a25.376,25.376,0,0,1-.768,2.421Z" transform="translate(-312.462 -127.98)"/><path class="i" d="M373.518,129.551a1.691,1.691,0,0,1-.771,1.532,3.422,3.422,0,0,1-1.889.495q-.2,0-.291-.008,0,.816.048,2.152H369.4q.056-1.254.057-2.955,0-1.562-.057-2.695h.755q.16,0,.616-.013t.79-.013a2.483,2.483,0,0,1,1.393.373A1.262,1.262,0,0,1,373.518,129.551Zm-1.12.239q0-.928-1.232-.929a3.47,3.47,0,0,0-.651.065q.048.82.048,1.857.108.009.252.009Q372.4,130.793,372.4,129.79Z" transform="translate(-321.967 -127.942)"/><path class="i" d="M386.4,129.551a1.691,1.691,0,0,1-.77,1.532,3.425,3.425,0,0,1-1.89.495c-.136,0-.233,0-.29-.008q0,.816.048,2.152H382.28q.056-1.254.057-2.955,0-1.562-.057-2.695h.755q.161,0,.616-.013t.79-.013a2.483,2.483,0,0,1,1.393.373A1.262,1.262,0,0,1,386.4,129.551Zm-1.119.239q0-.928-1.232-.929a3.47,3.47,0,0,0-.651.065q.048.82.048,1.857.108.009.252.009Q385.283,130.793,385.283,129.79Z" transform="translate(-329.646 -127.942)"/><path class="i" d="M405.4,130.639a3.115,3.115,0,0,1-.816,2.209,2.646,2.646,0,0,1-2.018.876,2.55,2.55,0,0,1-1.918-.8,2.836,2.836,0,0,1-.772-2.046,3.117,3.117,0,0,1,.816-2.209,2.648,2.648,0,0,1,2.018-.877,2.555,2.555,0,0,1,1.918.8A2.836,2.836,0,0,1,405.4,130.639Zm-1.2.126a2.238,2.238,0,0,0-.465-1.471,1.429,1.429,0,0,0-1.145-.564,1.324,1.324,0,0,0-1.076.568,2.27,2.27,0,0,0-.442,1.436,2.233,2.233,0,0,0,.467,1.469,1.428,1.428,0,0,0,1.143.566,1.322,1.322,0,0,0,1.076-.57A2.269,2.269,0,0,0,404.2,130.764Z" transform="translate(-340.134 -127.788)"/><path class="i" d="M421.24,133.76h-1.072a10.571,10.571,0,0,0-1.193-1.879,10.348,10.348,0,0,1-1.423-2.451h-.069a15.371,15.371,0,0,1,.108,1.718q0,1.072.061,2.612h-1.068q.065-1.345.065-2.955,0-1.583-.065-2.695h1.288a8.164,8.164,0,0,0,1.072,1.835,10.807,10.807,0,0,1,1.31,2.313h.065a16.376,16.376,0,0,1-.1-1.736q0-1.175-.061-2.413h1.085q-.061,1.077-.061,2.695T421.24,133.76Z" transform="translate(-350.094 -127.98)"/></g></svg>