<svg xmlns="http://www.w3.org/2000/svg" width="206.599" height="67.581" viewBox="0 0 206.599 67.581"><defs><style>.a{fill:#ff978f;}.b{fill:#fff;}</style></defs><path class="a" d="M303.24,994.272a9.133,9.133,0,0,1-9.131,9.134H105.774a9.134,9.134,0,0,1-9.133-9.134V944.958a9.134,9.134,0,0,1,9.133-9.133H294.109a9.132,9.132,0,0,1,9.131,9.133Z" transform="translate(-96.641 -935.825)"/><g transform="translate(13.859 10.506)"><path class="b" d="M171.654,1013.148a33.475,33.475,0,0,1-3.025,5.649c-1.965,2.991-4.734,6.716-8.165,6.748-3.05.028-3.833-1.985-7.97-1.962s-5,2-8.052,1.969c-3.431-.032-6.055-3.4-8.02-6.386-5.495-8.364-6.068-18.18-2.68-23.4,2.409-3.709,6.207-5.879,9.779-5.879,3.637,0,5.923,1.995,8.93,1.995,2.917,0,4.695-2,8.9-2a11.867,11.867,0,0,1,8.946,4.724C162.433,998.916,163.71,1010.146,171.654,1013.148Z" transform="translate(-131.637 -978.983)"/><g transform="translate(19.234)"><path class="b" d="M187.5,969.915a10.208,10.208,0,0,0,2.267-7.56,11.029,11.029,0,0,0-7.119,3.829c-1.547,1.88-2.824,4.667-2.327,7.375A9.308,9.308,0,0,0,187.5,969.915Z" transform="translate(-180.207 -962.355)"/></g></g><g transform="translate(62.743 10.606)"><g transform="translate(0 16.189)"><path class="b" d="M262.953,1004.42l-7.871,23.168h3.6l2.35-7.114h7.621l2.416,7.114h3.7l-7.9-23.168Zm1.868,3.809c.266,1.034.552,2.108.921,3.269l2.121,6.143h-6.037l2.092-6.183C264.236,1010.455,264.538,1009.372,264.82,1008.229Z" transform="translate(-255.082 -1004.051)"/><path class="b" d="M316.932,1019.586a6.558,6.558,0,0,0-5.573,2.673l-.14-2.3h-3.206l.019.295c.095,1.435.134,3.015.134,5.284v17.857h3.505v-8.333a6.155,6.155,0,0,0,4.792,2.059,7.226,7.226,0,0,0,5.311-2.258,9.576,9.576,0,0,0,2.345-6.742,9.324,9.324,0,0,0-2.036-6.156A6.669,6.669,0,0,0,316.932,1019.586Zm-.873,2.9c3.125,0,4.523,2.895,4.523,5.763,0,3.7-1.784,6-4.656,6A4.25,4.25,0,0,1,311.8,1031a4.474,4.474,0,0,1-.124-1.135v-2.819a5.272,5.272,0,0,1,.111-.865c.017-.1.036-.192.05-.284A4.439,4.439,0,0,1,316.059,1022.488Z" transform="translate(-287.053 -1013.211)"/><path class="b" d="M362.514,1019.586a6.562,6.562,0,0,0-5.573,2.673l-.14-2.3h-3.2l.018.295c.1,1.437.135,3.015.135,5.284v17.857h3.505v-8.333a6.152,6.152,0,0,0,4.79,2.059,7.236,7.236,0,0,0,5.314-2.258,9.588,9.588,0,0,0,2.344-6.742,9.325,9.325,0,0,0-2.038-6.156A6.667,6.667,0,0,0,362.514,1019.586Zm-.872,2.9c3.123,0,4.522,2.895,4.522,5.763,0,3.7-1.786,6-4.656,6a4.25,4.25,0,0,1-4.13-3.253,4.478,4.478,0,0,1-.124-1.135v-2.819a5.2,5.2,0,0,1,.112-.868c.017-.095.035-.189.051-.282A4.436,4.436,0,0,1,361.641,1022.488Z" transform="translate(-314.584 -1013.211)"/><path class="b" d="M420.49,1013.673c-3.271-1.267-4.32-2.263-4.32-4.1,0-1.55,1.232-3.113,3.984-3.113a7.965,7.965,0,0,1,4.115,1.033l.3.183.989-2.925-.2-.115a10.161,10.161,0,0,0-5.1-1.145c-4.47,0-7.592,2.639-7.592,6.416,0,3.046,1.955,5.176,6.152,6.7,2.975,1.112,4.082,2.251,4.082,4.2,0,2.21-1.708,3.582-4.455,3.582a9.593,9.593,0,0,1-5.052-1.433l-.3-.195-.941,2.993.173.115a12.007,12.007,0,0,0,5.924,1.523c6.024,0,8.16-3.673,8.16-6.819C426.4,1017.331,424.69,1015.331,420.49,1013.673Z" transform="translate(-349.947 -1003.488)"/><path class="b" d="M455,1010.439l-3.438,1.079v2.912h-2.517v2.8h2.517v8.581c0,2.074.4,3.528,1.214,4.447a4.493,4.493,0,0,0,3.391,1.331,8.257,8.257,0,0,0,2.709-.418l.2-.07-.168-2.807-.336.1a5.278,5.278,0,0,1-1.63.188c-1.358,0-1.938-.859-1.938-2.877v-8.48h4.229v-2.8H455Z" transform="translate(-372.235 -1007.686)"/><path class="b" d="M483.991,1019.586c-4.9,0-8.329,3.661-8.329,8.9,0,5.082,3.314,8.631,8.061,8.631h.032c4.012,0,8.329-2.8,8.329-8.933a8.856,8.856,0,0,0-2.234-6.2A7.8,7.8,0,0,0,483.991,1019.586Zm-.1,2.767c3.153,0,4.589,3.074,4.589,5.932,0,3.514-1.959,6.064-4.655,6.064h-.034c-2.658,0-4.588-2.508-4.588-5.963C479.2,1025.384,480.652,1022.353,483.89,1022.353Z" transform="translate(-388.311 -1013.211)"/><path class="b" d="M530.936,1019.749l-.21-.053a3.376,3.376,0,0,0-.872-.109,5,5,0,0,0-4.395,2.822l-.1-2.453h-3.146l.02.295c.093,1.388.132,2.945.132,5.047l-.032,11.451h3.505v-8.933a9.043,9.043,0,0,1,.1-1.359c.4-2.145,1.843-3.532,3.688-3.532a8.993,8.993,0,0,1,.941.059l.375.039Z" transform="translate(-416.427 -1013.211)"/><path class="b" d="M552.056,1019.5c-4.666,0-7.925,3.729-7.925,9.067,0,5.141,3.242,8.464,8.261,8.464a13.443,13.443,0,0,0,5.55-1.065l.211-.1-.674-2.612-.292.118a10.865,10.865,0,0,1-4.392.785c-1.523,0-5.035-.5-5.25-5.082l11.314.034.046-.224a7.782,7.782,0,0,0,.105-1.463C559.01,1023.772,557.189,1019.5,552.056,1019.5Zm-.233,2.667a3.459,3.459,0,0,1,2.573.982,4.989,4.989,0,0,1,1.207,3.263h-7.995C547.935,1024.389,549.2,1022.169,551.823,1022.169Z" transform="translate(-429.666 -1013.16)"/></g><g transform="translate(0)"><path class="b" d="M255.082,964.108a25.55,25.55,0,0,1,3.362-.227,7.5,7.5,0,0,1,4.935,1.35,4.8,4.8,0,0,1,1.736,3.953,5.55,5.55,0,0,1-1.754,4.262,8.134,8.134,0,0,1-5.405,1.578,24.3,24.3,0,0,1-2.875-.131Zm1.591,9.712a11.276,11.276,0,0,0,1.591.065c3.362.015,5.188-1.692,5.188-4.653.018-2.62-1.609-4.23-4.935-4.23a9.989,9.989,0,0,0-1.844.146Z" transform="translate(-255.082 -963.376)"/><path class="b" d="M288.258,979.672a3.952,3.952,0,0,1-4.194-4.051,4.062,4.062,0,0,1,4.338-4.181,3.92,3.92,0,0,1,4.211,4.034,4.076,4.076,0,0,1-4.337,4.2Zm.054-1.074a2.8,2.8,0,0,0,2.658-3.075,2.742,2.742,0,0,0-2.621-3.01c-1.862,0-2.676,1.562-2.676,3.059a2.757,2.757,0,0,0,2.621,3.026Z" transform="translate(-272.587 -967.942)"/><path class="b" d="M309.528,971.891l1.175,3.986c.234.878.47,1.708.632,2.521h.054c.2-.8.488-1.643.777-2.505l1.428-4h1.338l1.356,3.937c.325.928.578,1.773.777,2.571h.054a21.789,21.789,0,0,1,.669-2.554l1.247-3.953h1.573l-2.82,7.874h-1.446l-1.337-3.758a25.79,25.79,0,0,1-.778-2.6h-.036a21.623,21.623,0,0,1-.8,2.619l-1.409,3.741H310.54l-2.64-7.874Z" transform="translate(-286.984 -968.214)"/><path class="b" d="M343.9,973.75c0-.83-.018-1.48-.073-2.131h1.411l.09,1.286h.036a3.313,3.313,0,0,1,2.892-1.464,2.994,2.994,0,0,1,3.091,3.351v4.7h-1.59v-4.539c0-1.269-.525-2.342-2.026-2.342a2.269,2.269,0,0,0-2.132,1.464,1.928,1.928,0,0,0-.109.667v4.75H343.9Z" transform="translate(-308.684 -967.942)"/><path class="b" d="M369.346,962.607h1.591v11.55h-1.591Z" transform="translate(-324.097 -962.607)"/><path class="b" d="M382.625,979.672a3.952,3.952,0,0,1-4.193-4.051,4.061,4.061,0,0,1,4.338-4.181,3.921,3.921,0,0,1,4.211,4.034,4.077,4.077,0,0,1-4.338,4.2Zm.053-1.074a2.8,2.8,0,0,0,2.658-3.075,2.742,2.742,0,0,0-2.621-3.01c-1.862,0-2.676,1.562-2.676,3.059a2.757,2.757,0,0,0,2.622,3.026Z" transform="translate(-329.585 -967.942)"/><path class="b" d="M410.207,977.606a11.865,11.865,0,0,0,.127,1.887h-1.429l-.145-.992h-.053a3.364,3.364,0,0,1-2.675,1.171,2.385,2.385,0,0,1-2.675-2.262c0-1.9,1.879-2.945,5.26-2.928v-.162c0-.651-.2-1.838-1.988-1.822a4.567,4.567,0,0,0-2.3.585l-.362-.96a6.162,6.162,0,0,1,2.893-.683c2.693,0,3.343,1.643,3.343,3.221Zm-1.554-2.131c-1.735-.032-3.706.244-3.706,1.773a1.33,1.33,0,0,0,1.482,1.367,2.206,2.206,0,0,0,2.151-1.318,1.314,1.314,0,0,0,.073-.455Z" transform="translate(-344.64 -967.942)"/><path class="b" d="M433.684,962.607v9.517c0,.7.019,1.5.072,2.034h-1.428l-.072-1.366h-.036a3.273,3.273,0,0,1-2.964,1.546,3.755,3.755,0,0,1-3.76-4,3.926,3.926,0,0,1,3.922-4.229,3.009,3.009,0,0,1,2.64,1.188h.036v-4.686Zm-1.59,6.881a2.383,2.383,0,0,0-.072-.618,2.3,2.3,0,0,0-2.3-1.643c-1.645,0-2.622,1.3-2.622,3.026,0,1.61.886,2.928,2.585,2.928a2.367,2.367,0,0,0,2.332-1.708,2.23,2.23,0,0,0,.072-.618Z" transform="translate(-358.011 -962.607)"/><path class="b" d="M465.114,979.672a3.952,3.952,0,0,1-4.194-4.051,4.062,4.062,0,0,1,4.338-4.181,3.921,3.921,0,0,1,4.212,4.034,4.077,4.077,0,0,1-4.337,4.2Zm.055-1.074a2.8,2.8,0,0,0,2.657-3.075,2.741,2.741,0,0,0-2.62-3.01c-1.862,0-2.675,1.562-2.675,3.059a2.757,2.757,0,0,0,2.621,3.026Z" transform="translate(-379.407 -967.942)"/><path class="b" d="M487.471,973.75c0-.83-.019-1.48-.073-2.131h1.41l.091,1.286h.036a3.313,3.313,0,0,1,2.892-1.464,3,3,0,0,1,3.092,3.351v4.7h-1.591v-4.539c0-1.269-.524-2.342-2.025-2.342a2.272,2.272,0,0,0-2.133,1.464,1.937,1.937,0,0,0-.108.667v4.75h-1.59Z" transform="translate(-395.4 -967.942)"/><path class="b" d="M522.995,967.127v1.887h2.277v1.09h-2.277v4.246c0,.976.308,1.529,1.193,1.529a3.271,3.271,0,0,0,.922-.1l.072,1.09a4.779,4.779,0,0,1-1.41.2,2.408,2.408,0,0,1-1.717-.6,2.858,2.858,0,0,1-.614-2.067V970.1h-1.356v-1.09h1.356v-1.448Z" transform="translate(-415.142 -965.337)"/><path class="b" d="M537.705,962.607h1.59v4.913h.037a2.7,2.7,0,0,1,1.139-1.009,3.357,3.357,0,0,1,1.627-.407c1.174,0,3.054.65,3.054,3.367v4.685h-1.59v-4.522c0-1.285-.524-2.342-2.025-2.342a2.286,2.286,0,0,0-2.133,1.431,1.576,1.576,0,0,0-.109.683v4.75h-1.59Z" transform="translate(-425.785 -962.607)"/><path class="b" d="M562.979,975.774a2.667,2.667,0,0,0,2.983,2.734,6.634,6.634,0,0,0,2.424-.391l.289,1.009a7.825,7.825,0,0,1-2.929.5c-2.676,0-4.3-1.611-4.3-3.969a4.009,4.009,0,0,1,4.121-4.263,3.446,3.446,0,0,1,3.6,3.71,3.3,3.3,0,0,1-.053.683Zm4.647-1.025a2.113,2.113,0,0,0-2.188-2.327,2.476,2.476,0,0,0-2.44,2.327Z" transform="translate(-440.123 -967.917)"/></g></g></svg>