<svg xmlns="http://www.w3.org/2000/svg" width="73.235" height="73.235" viewBox="0 0 73.235 73.235"><defs><style>.a{fill:#008cff;stroke:#008cff;}</style></defs><g transform="translate(0.5 0.5)"><path class="a" d="M157.933,107.556l-3.041,3.04a31.895,31.895,0,0,1-44.3,44.3l-3.04,3.04a36.126,36.126,0,0,0,50.377-50.377Z" transform="translate(-92.382 -92.382)"/><path class="a" d="M9.724,54.02a31.895,31.895,0,0,1,44.3-44.3l3.04-3.04A36.123,36.123,0,0,0,0,36.117,35.851,35.851,0,0,0,6.684,57.06Z"/><path class="a" d="M99.554,166.306l25.7-24.08L116.2,123.667H82.9l-9.047,18.559Zm-5.388-26.673H79.829l4.945-10.144Zm7.5,4.232h15.641L101.67,158.522Zm3.2-4.232,9.378-10.316,5.029,10.316Zm-5.333-.426L89.069,127.9h20.749Zm-2.1,4.659v14.657L81.8,143.866Z" transform="translate(-63.436 -106.22)"/></g></svg>