<svg xmlns="http://www.w3.org/2000/svg" width="63" height="64" viewBox="0 0 63 64"><defs><style>.a{fill:#008cff;}.b{fill:none;stroke:#fff;stroke-width:2px;}</style></defs><g transform="translate(-982 -2303)"><ellipse class="a" cx="31.5" cy="32" rx="31.5" ry="32" transform="translate(982 2303)"/><g transform="translate(999 2321)"><path class="b" d="M6.412,1.676A3.473,3.473,0,0,0,4.615.2,3.414,3.414,0,0,0,3.462,0a3.5,3.5,0,0,0-3.1,5.057A3.455,3.455,0,0,0,3.462,7a3.418,3.418,0,0,0,1.154-.2,3.509,3.509,0,0,0,1.8-5.121" transform="translate(0 7)"/><path class="b" d="M3.462,0A3.429,3.429,0,0,0,.708,1.385,3.526,3.526,0,0,0,.989,5.947,3.431,3.431,0,0,0,3.462,7,3.481,3.481,0,0,0,6.923,3.5,3.481,3.481,0,0,0,3.462,0" transform="translate(16.154)"/><path class="b" d="M6.216,1.386A3.451,3.451,0,0,0,0,3.5,3.481,3.481,0,0,0,3.462,7,3.431,3.431,0,0,0,5.934,5.948a3.518,3.518,0,0,0,.282-4.562" transform="translate(6.923)"/><path class="b" d="M20.831,12.583A15.187,15.187,0,0,0,14.343,1.423q-.536-.371-1.106-.694L13.182.7A5.718,5.718,0,0,0,7.707.7L7.664.723q-.573.326-1.115.7A15.188,15.188,0,0,0,.062,12.584c-.04.451-.062.908-.062,1.37s.022.919.062,1.37c.006.066.011.131.018.2v.011a3.476,3.476,0,0,0,3.3,3.129c.049,0,.1.007.146.007a3.415,3.415,0,0,0,1.128-.194h0a14.991,14.991,0,0,0,5.794-3.808A15.134,15.134,0,0,1,7.188,9.348l0,0a3.52,3.52,0,0,1-.206-1.179,3.462,3.462,0,1,1,6.923,0,3.518,3.518,0,0,1-.213,1.2h0a15.112,15.112,0,0,1-.737,1.716,15.208,15.208,0,0,1-2.513,3.579,15,15,0,0,0,5.828,3.823l0,0a3.416,3.416,0,0,0,1.093.181h.005a3.476,3.476,0,0,0,3.438-3.137v-.008c.007-.066.012-.131.018-.2.04-.452.062-.909.062-1.371s-.022-.919-.062-1.371" transform="translate(4.554 9.333)"/><path class="b" d="M3.462,0A3.413,3.413,0,0,0,2.308.2,3.508,3.508,0,0,0,0,3.5,3.5,3.5,0,0,0,2.308,6.8,3.418,3.418,0,0,0,3.462,7a3.455,3.455,0,0,0,3.1-1.943A3.5,3.5,0,0,0,3.462,0" transform="translate(23.077 7)"/></g></g></svg>