<svg xmlns="http://www.w3.org/2000/svg" width="27.063" height="27.063" viewBox="0 0 27.063 27.063"><defs><style>.a{fill:#008cff;}</style></defs><path class="a" d="M26.5.558A1.892,1.892,0,0,0,24.727.051l-.009,0L3.465,5.254A4.535,4.535,0,0,0,0,9.669v2.8a1.905,1.905,0,0,0,1.821,1.9l7.994,1.361a.529.529,0,0,0,.462-.147L19.7,6.168a.846.846,0,1,1,1.2,1.2l-9.421,9.421a.529.529,0,0,0-.147.462l1.361,7.994a1.905,1.905,0,0,0,1.9,1.821h2.8A4.535,4.535,0,0,0,21.809,23.6l5.2-21.253,0-.009A1.891,1.891,0,0,0,26.5.558Z" transform="translate(0 0)"/></svg>