<svg xmlns="http://www.w3.org/2000/svg" width="63" height="64" viewBox="0 0 63 64"><defs><style>.a{fill:rgba(246,112,98,0.88);}.b{fill:#fff;stroke:#fff;}</style></defs><g transform="translate(-982 -2474)"><ellipse class="a" cx="31.5" cy="32" rx="31.5" ry="32" transform="translate(982 2474)"/><g transform="translate(999.434 2486.43)"><path class="b" d="M15.8,38.03h13.2a7.8,7.8,0,0,0,7.8-7.8v-12.6a7.8,7.8,0,0,0-7.8-7.8H27.3c.276-1.488,1.248-5.023,4.2-5.372a1.8,1.8,0,1,0,0-1.2c-3.6.33-5.065,4.123-5.432,6.566h-7.34c-.366-2.443-1.861-6.236-5.4-6.566a1.8,1.8,0,1,0,0,1.2c3,.348,3.949,3.883,4.2,5.4H15.8A7.8,7.8,0,0,0,8,17.624v12.6A7.8,7.8,0,0,0,15.8,38.03ZM33.207,3.22a.6.6,0,1,1-.6.6A.6.6,0,0,1,33.207,3.22ZM11.6,4.421a.6.6,0,1,1,.6-.6A.6.6,0,0,1,11.6,4.421Zm-2.4,13.2a6.6,6.6,0,0,1,6.6-6.6h13.2a6.6,6.6,0,0,1,6.6,6.6v12.6a6.6,6.6,0,0,1-6.6,6.6H15.8a6.6,6.6,0,0,1-6.6-6.6Z" transform="translate(-8 -2.05)"/><path class="b" d="M13.6,34.4a.6.6,0,0,0,.6-.6,3.6,3.6,0,1,1,7.2,0,.6.6,0,0,0,1.2,0,4.8,4.8,0,0,0-9.6,0A.6.6,0,0,0,13.6,34.4Z" transform="translate(-9.999 -12.825)"/><path class="b" d="M35.6,34.4a.6.6,0,0,0,.6-.6,3.6,3.6,0,1,1,7.2,0,.6.6,0,1,0,1.2,0,4.8,4.8,0,0,0-9.6,0A.6.6,0,0,0,35.6,34.4Z" transform="translate(-18.795 -12.825)"/><path class="b" d="M24.076,47.3a.6.6,0,0,0,.222.822,8.564,8.564,0,0,0,9,0,.6.6,0,0,0-.6-1.044,7.322,7.322,0,0,1-7.8,0,.6.6,0,0,0-.822.222Z" transform="translate(-14.395 -20.02)"/></g></g></svg>